<svg width="123" height="95" viewBox="0 0 123 95" fill="none" xmlns="http://www.w3.org/2000/svg">
<g id="Icon" clip-path="url(#clip0_3956_14698)">
<path id="Vector" d="M48.4304 67.3668C41.6042 73.9185 21.8258 65.6655 21.8258 65.6655C-4.6072 53.5485 0.981172 12.9034 0.42098 6.37878C-0.139213 -0.145792 7.31045 3.20699 7.31045 3.20699C59.2457 13.6454 59.2457 46.0873 59.2457 46.0873C59.2457 46.0873 61.5046 54.8199 48.4349 67.3623L48.4304 67.3668Z" fill="#A2C617"/>
<path id="Vector_2" d="M69.1138 80.2033C73.1572 86.0583 89.5518 77.674 89.5518 77.674C110.848 72.7422 112.859 41.9563 114.255 37.2371C115.65 32.5133 109.66 33.8617 109.66 33.8617C69.8276 33.7033 64.944 57.6026 64.944 57.6026C64.944 57.6026 61.3796 68.9912 69.1229 80.2079L69.1138 80.2033Z" fill="#7DB928"/>
<g id="Group">
<path id="Vector_3" d="M122.145 30.4546C121.992 29.8845 121.761 29.3958 121.472 29.0248C121.328 28.8121 121.17 28.6538 121.016 28.4999L120.917 28.4004C120.695 28.2104 120.51 28.0701 120.338 27.9615C119.995 27.7443 119.629 27.5679 119.218 27.4321C118.513 27.1968 117.921 27.138 117.361 27.0973C117.113 27.0837 116.828 27.0747 116.58 27.0837C116.331 27.0837 116.087 27.0973 115.834 27.1199C115.586 27.1335 115.346 27.1606 115.116 27.1923L113.39 27.405C112.785 27.4728 112.166 27.5633 111.569 27.6538C110.892 27.7534 110.187 27.862 109.509 27.9253C109.225 27.9525 108.945 27.9751 108.66 27.9977C108.177 28.0384 107.675 28.0791 107.174 28.138C106.821 28.1877 106.478 28.2104 106.117 28.2375C105.724 28.2647 105.317 28.2963 104.906 28.3597C104.698 28.3868 104.499 28.4411 104.31 28.4909C104.169 28.5271 104.029 28.5633 103.88 28.5904C103.311 28.6945 102.737 28.7805 102.168 28.8619C101.585 28.9479 101.007 29.0339 100.438 29.1379C100.14 29.1877 99.8641 29.2646 99.5931 29.3415C99.3988 29.3958 99.2046 29.4501 99.0013 29.4954L97.9396 29.7261C95.2425 30.3143 92.4597 30.9252 89.853 31.8572C87.1649 32.821 84.1065 34.1513 80.7634 35.8118C79.3177 36.5177 78.0708 37.4045 76.9685 38.1873L76.8691 38.2551C75.5138 39.2279 74.5019 40.0514 73.246 41.2097L72.0036 42.4359C71.8771 42.5581 71.7506 42.6848 71.6286 42.8205L71.1362 43.3861C70.8109 43.7617 70.4947 44.1417 70.1784 44.5308C69.9661 44.7978 69.7719 45.0783 69.5776 45.3589C69.4918 45.4855 69.4059 45.6077 69.3111 45.7435C69.2117 45.8882 69.1123 46.033 69.0084 46.1778C68.8277 46.4312 68.647 46.6846 68.4843 46.9515C68.2358 47.3588 67.9829 47.7569 67.7208 48.1551C66.8308 49.5125 65.6788 51.4355 65.218 52.9196C65.0554 53.2454 64.8973 53.5802 64.7346 53.9195C64.6307 54.1412 64.5223 54.363 64.4139 54.5847L63.7453 55.9602L63.5646 56.4352C63.0224 57.9012 63.1444 58.9872 63.8989 59.417C64.0796 59.5211 64.2829 59.5346 64.4591 59.5482C64.5765 59.5573 64.6985 59.5663 64.7708 59.598C64.9379 59.6704 65.8008 60.0278 66.4017 59.8966C66.5733 59.8604 66.6863 59.7518 66.7676 59.6704C66.7947 59.6478 66.8308 59.6116 66.8399 59.6025C66.867 59.5935 66.8715 59.5889 66.9122 59.5889C67.0025 59.5799 67.1742 59.5663 67.3549 59.417C67.5898 59.2224 67.7028 58.96 67.8338 58.6614C67.888 58.5347 67.9512 58.3854 68.0416 58.2089C68.1229 58.0325 68.2178 57.8741 68.3036 57.7157C68.4211 57.5121 68.543 57.2995 68.6515 57.0506L69.2026 55.7746L69.8351 54.5032C70.0926 53.9376 70.3908 53.4037 70.707 52.8381C70.8561 52.5757 71.0052 52.3088 71.1452 52.0418C72.5819 49.4944 74.7142 47.0556 77.854 44.368C79.4487 43.0015 81.5404 41.6486 83.7405 40.5491C87.3863 38.6985 90.9643 36.9837 94.6959 36.305L94.7817 36.2824C95.238 36.1014 95.7169 35.9611 96.3358 35.8254L98.0209 35.4498C98.2333 35.4001 98.432 35.3231 98.6218 35.2507C98.7934 35.1829 98.9606 35.1241 99.1097 35.0879C99.3762 35.029 99.6473 34.9838 99.9184 34.934C100.546 34.8254 101.197 34.7123 101.811 34.468L103.6 34.2372C106.876 33.8119 110.264 33.373 113.3 32.907C113.661 32.9205 114.081 32.8979 114.605 32.8391C114.8 32.8165 115.021 32.7848 115.242 32.7486L115.974 32.631C116.114 32.6083 116.245 32.5948 116.376 32.5812H116.412L116.128 33.2418L116.101 33.3323C116.006 33.7938 115.92 34.2598 115.83 34.7259C115.622 35.8209 115.409 36.9565 115.125 38.0379C115.071 38.2461 114.998 38.4542 114.931 38.6623C114.84 38.9293 114.75 39.2098 114.682 39.4904C114.651 39.6216 114.637 39.7483 114.623 39.8795C114.614 39.979 114.605 40.0786 114.578 40.1781C114.542 40.3048 114.492 40.436 114.443 40.5672C114.388 40.7075 114.339 40.8478 114.298 40.9835C114.208 41.2821 114.149 41.5762 114.095 41.8613C114.036 42.1509 113.982 42.4223 113.905 42.6712C113.756 43.1146 113.589 43.549 113.426 43.9834C113.264 44.4132 113.105 44.843 112.956 45.2729C112.839 45.6122 112.767 45.9561 112.699 46.2955C112.649 46.5262 112.604 46.7434 112.55 46.9561C112.346 47.2049 112.256 47.5126 112.17 47.8112C112.094 48.0691 112.026 48.3089 111.89 48.5035L111.827 48.594L111.813 48.7026C111.746 49.1777 111.524 49.7342 111.267 50.3631L111.19 50.5487C110.973 51.078 110.752 51.6255 110.607 52.1368C110.44 52.3947 110.341 52.6662 110.241 52.9286C110.183 53.0825 110.128 53.2363 110.056 53.3811L109.333 54.7702C108.493 56.5665 107.481 58.4442 106.153 60.6794C106.085 60.788 106.035 60.9147 105.981 61.0414C105.94 61.1409 105.904 61.2359 105.864 61.3038C105.796 61.4124 105.705 61.521 105.611 61.6341C105.507 61.7563 105.407 61.8829 105.321 62.0051C105.028 62.4214 104.784 62.8693 104.544 63.3037C104.395 63.5752 104.246 63.8467 104.097 64.1C103.004 65.7696 101.658 67.2718 100.262 68.7876C100.108 68.955 99.959 69.1315 99.8144 69.3079C99.6383 69.5206 99.4711 69.7242 99.2859 69.9142C98.9742 70.2491 98.6353 70.5975 98.2829 70.9006C98.2378 70.9368 98.17 70.9775 98.0932 71.0183C97.9893 71.0726 97.8854 71.1359 97.7679 71.2219C97.4291 71.4888 97.1309 71.801 96.8418 72.1087L96.6521 72.3078L96.4623 72.4481C95.997 72.7874 95.5181 73.1403 95.0573 73.5294C94.6056 73.8959 94.1312 74.2353 93.6704 74.5656L93.4626 74.7149C93.1147 74.9502 92.7262 75.1583 92.3151 75.38C92.1615 75.4615 92.0079 75.5429 91.8678 75.6244C91.7007 75.7103 91.5335 75.7963 91.3664 75.8778C90.9733 76.0723 90.5667 76.2759 90.1873 76.5067C90.115 76.5519 90.0472 76.6107 89.984 76.6696C89.9478 76.7012 89.8981 76.7465 89.8936 76.751C89.8575 76.7601 89.8168 76.7646 89.7716 76.7691C89.6722 76.7827 89.5638 76.7917 89.4599 76.8325C89.2837 76.8958 89.1211 76.9953 88.9675 77.0858C88.8726 77.1401 88.7777 77.199 88.7009 77.2352C88.3983 77.3664 88.1227 77.475 87.8607 77.5745C87.3185 77.7872 86.8487 77.9727 86.3698 78.2487C85.9226 78.303 85.525 78.484 85.1365 78.6604C84.7254 78.8459 84.3369 79.0224 83.9754 78.9953L83.7586 78.9772L83.6095 79.1355C83.5417 79.2079 83.3656 79.2351 83.1803 79.2622C83.0403 79.2848 82.8822 79.3074 82.7286 79.3527C82.5795 79.3979 82.453 79.4613 82.3265 79.5201C82.2316 79.5654 82.1322 79.6151 82.0374 79.6423C81.8024 79.7102 81.5178 79.7644 81.2423 79.8142C81.1112 79.8368 80.9802 79.864 80.8402 79.8911C80.2981 80.0269 79.7785 80.1807 79.2771 80.3255C78.9834 80.4115 78.6988 80.4929 78.4458 80.5653C78.2877 80.6015 78.1296 80.6332 77.976 80.6694C77.6642 80.7327 77.3435 80.8006 77.0408 80.9001L76.8962 80.9454L76.8104 81.0676C76.7246 81.1897 76.2954 81.2983 76.0153 81.3707C75.6674 81.4612 75.306 81.5517 75.0304 81.7327L74.9039 81.8141L74.8543 81.9544C74.8271 82.0313 74.8181 82.1082 74.8226 82.1851C74.6419 82.244 74.4567 82.3435 74.3483 82.5381L74.3031 82.6195L74.2941 82.71C74.0908 82.796 73.9688 82.9091 73.8423 83.0494C73.8016 83.0901 73.761 83.1398 73.7022 83.1896C73.6345 83.2439 73.5667 83.2892 73.5035 83.3299C73.3273 83.443 73.0698 83.6104 72.9749 83.9045C72.9342 83.9181 72.8891 83.9317 72.8484 83.9452C72.5231 84.0493 72.1888 84.1579 71.9178 84.3525L71.2988 84.7823L71.9765 85.1126C71.9765 85.1126 71.9991 85.1759 72.0126 85.2076L72.103 85.5062L72.4102 85.5289C72.7219 85.5515 73.0427 85.5877 73.3634 85.6284C73.8423 85.6872 74.2941 85.737 74.6961 85.737C74.7323 85.737 74.7639 85.737 74.8 85.737H74.8046C76.6929 85.6691 78.369 85.4655 80.4155 85.0628C80.8582 84.9678 81.3055 84.8818 81.7573 84.7914C82.7873 84.5877 83.8535 84.3751 84.8971 84.0991C85.4166 83.986 85.9316 83.8321 86.4286 83.6873C86.677 83.6149 86.9255 83.5425 87.2056 83.4611C87.4179 83.3842 87.6348 83.3118 87.8471 83.2394C88.3712 83.0629 88.9133 82.8774 89.4193 82.6557C91.9537 81.6286 94.0454 80.5608 95.6356 79.4884C97.8041 78.0586 99.9455 76.3619 102.191 74.3077C104.919 71.8055 107.458 68.6247 109.948 64.5887C111.52 62.0458 113.038 59.5482 114.267 56.9375C114.483 56.485 114.682 56.0054 114.872 55.5394C114.953 55.3448 115.03 55.1502 115.116 54.9466C115.22 54.6842 115.333 54.4218 115.441 54.1639C115.608 53.7702 115.78 53.363 115.92 52.9784C117.488 49.1415 118.82 45.0693 119.99 40.5265C120.28 39.4632 120.519 38.3728 120.745 37.3185C120.858 36.7982 120.971 36.2778 121.088 35.762L121.287 34.925C121.35 34.8119 121.409 34.6987 121.468 34.5856C121.608 34.3096 121.721 34.0517 121.82 33.7938C122.001 33.3232 122.213 32.6717 122.263 31.8075C122.281 31.3369 122.24 30.898 122.132 30.4501L122.145 30.4546Z" fill="#024089"/>
<path id="Vector_4" d="M73.84 69.0505C74.1382 68.7836 74.346 68.4261 74.5448 68.0822C74.7706 67.6931 74.9875 67.3266 75.2857 67.1456L75.3805 67.0732C75.4799 66.9692 75.5341 66.8425 75.5387 66.6932C76.022 66.1457 76.4196 65.5303 76.781 64.9602L77.034 64.5892C77.3683 64.096 77.7117 63.5893 78.0866 63.1187C78.1363 63.0553 78.2086 62.9875 78.2899 62.9151C78.3938 62.8201 78.5068 62.716 78.6062 62.5893C78.6739 62.4988 78.7146 62.4083 78.7417 62.345C78.7507 62.3269 78.7552 62.3042 78.7552 62.2997C78.7824 62.2681 78.823 62.2409 78.8592 62.2138C78.9314 62.1595 79.0037 62.1006 79.0624 62.0373C79.2115 61.888 79.3019 61.716 79.3877 61.5667C79.4465 61.4627 79.4961 61.3676 79.5549 61.3088C79.6859 61.1686 79.844 61.0419 80.0112 60.9061C80.2054 60.7478 80.4042 60.5849 80.5759 60.3948C80.725 60.2319 80.8243 60.0464 80.9147 59.8835C80.9463 59.8247 80.9779 59.7659 81.0096 59.7116C81.2174 59.6256 81.3439 59.4673 81.4342 59.3587C81.4794 59.2999 81.5336 59.232 81.5652 59.2229L81.7685 59.1551L81.8453 58.9515C81.9176 58.7614 82.1254 58.5759 82.3423 58.3723C82.5546 58.1823 82.7895 57.9651 82.9567 57.6981C83.1058 57.6031 83.2142 57.4855 83.2955 57.3905C83.3362 57.3452 83.3723 57.2954 83.422 57.2592C83.4943 57.2049 83.5666 57.1552 83.6434 57.1054C83.7789 57.0149 83.937 56.9108 84.0861 56.7706C84.4656 56.395 84.8903 56.0512 85.3285 55.6982L86.6341 54.6168C86.7244 54.5399 86.7832 54.4494 86.8283 54.3861C86.8419 54.368 86.8509 54.3499 86.8464 54.3499C86.86 54.3408 86.9097 54.3227 86.9458 54.3092C87.0362 54.273 87.1446 54.2322 87.253 54.1508C87.4699 53.9924 87.6415 53.7979 87.8087 53.6124C87.9216 53.4857 88.03 53.3635 88.152 53.2549C88.536 52.9065 88.9652 52.6079 89.3628 52.3455L89.5841 52.2097C89.9636 51.9744 90.3205 51.7482 90.6593 51.4993C90.7632 51.4179 90.8717 51.3319 90.9756 51.246C91.2466 51.0242 91.5042 50.8161 91.7571 50.6804C91.7571 50.6804 91.7662 50.6804 91.7752 50.6804C91.8565 50.6713 91.983 50.6623 92.1231 50.5899C92.3399 50.4768 92.5161 50.3184 92.6697 50.1781C92.7013 50.151 92.733 50.1238 92.7601 50.0967C93.1621 49.9293 93.5281 49.6804 93.8804 49.4406C94.1018 49.2913 94.3096 49.151 94.522 49.0334C94.7524 48.8977 95.0189 48.7891 95.299 48.6714C95.6288 48.5357 95.9676 48.3954 96.2703 48.2009C96.3245 48.1647 96.3652 48.1285 96.4013 48.0877C96.46 48.0877 96.5233 48.0787 96.5911 48.0561C96.7266 48.0108 96.8305 47.9294 96.9163 47.866C96.948 47.8434 96.9796 47.8163 97.0112 47.7982C97.1332 47.7348 97.2461 47.685 97.3545 47.6353C97.6346 47.5086 97.9012 47.3864 98.1451 47.1692C98.4523 47.124 98.6737 46.9385 98.8454 46.7982C98.9764 46.6896 99.0667 46.6217 99.1119 46.6308L99.5366 46.7258L99.6224 46.4C99.7083 46.3819 99.8212 46.3548 99.9341 46.2869C100.061 46.2145 100.146 46.115 100.205 46.0381C100.223 46.0154 100.237 45.9928 100.241 45.9883C100.296 45.9566 100.377 45.9204 100.463 45.8842C100.58 45.839 100.693 45.7892 100.802 45.7213C101.131 45.5177 101.416 45.2779 101.669 45.0607L101.881 44.8797C101.945 44.8255 102.012 44.7802 102.08 44.7304C102.216 44.6354 102.369 44.5268 102.505 44.373L102.618 44.2463V44.0789C102.622 44.011 102.672 43.9522 102.825 43.8029C102.979 43.6536 103.173 43.4681 103.264 43.1785L103.295 43.0789L103.282 42.9749C103.273 42.9115 103.25 42.8346 103.205 42.7532C103.282 42.6491 103.34 42.5043 103.331 42.3143L103.313 42.2147C103.304 42.1876 103.3 42.1649 103.291 42.1423C103.377 41.984 103.395 41.8256 103.404 41.708C103.408 41.6582 103.413 41.6084 103.426 41.5496C103.44 41.4908 103.458 41.4365 103.476 41.3867C103.53 41.2283 103.598 41.0293 103.544 40.7578L103.593 40.6899C103.702 40.5406 103.824 40.3732 103.928 40.1515L104.163 39.6583L103.688 39.5361C103.688 39.5361 103.666 39.4909 103.657 39.4773L103.485 39.1379L103.119 39.2511C102.952 39.3008 102.762 39.3325 102.581 39.3642C102.329 39.4049 102.094 39.4456 101.877 39.5406C101.018 39.9207 100.341 40.3008 99.6315 40.699L99.3785 40.8392C98.6963 41.2238 97.9689 41.536 97.1964 41.8663C96.573 42.1333 95.927 42.4093 95.3035 42.7305C95.0099 42.8798 94.7072 43.0292 94.4 43.183C93.6907 43.5314 92.9543 43.8934 92.3083 44.2961L90.5961 45.3503L88.8568 46.391C87.0362 47.4452 85.4324 48.7664 83.8919 50.0469C83.5621 50.3139 83.2232 50.5718 82.8844 50.8297C82.645 51.0107 82.4055 51.1962 82.1751 51.3772L82.1209 51.4179C81.5562 51.8477 80.9734 52.2912 80.4494 52.7889C79.9479 53.2594 79.4374 53.7798 78.9179 54.3092L77.7704 55.4448C77.5129 55.7028 77.2599 55.9742 77.0069 56.2457L76.6455 56.6303C75.9769 57.3226 75.358 58.0601 74.7029 58.8338L74.4047 59.1913C74.1111 59.5442 73.8355 59.9152 73.5689 60.2727C73.3476 60.5713 73.1262 60.8745 72.8868 61.1686C72.6338 61.4989 72.3763 61.8201 72.1233 62.1459C71.2333 63.2816 70.3162 64.4535 69.5211 65.6751C69.3088 65.9873 69.1416 66.3131 68.979 66.6298C68.8299 66.9194 68.6898 67.1909 68.5227 67.4397C68.4278 67.58 68.3239 67.7203 68.2245 67.856C68.089 68.037 67.9535 68.2225 67.836 68.408C67.7456 68.5438 67.6508 68.6705 67.5514 68.8017C67.4204 68.9781 67.2848 69.1591 67.1538 69.3673C67.0816 69.4894 67.0364 69.6116 67.0002 69.7202C66.9822 69.7745 66.9641 69.8288 66.9415 69.8785C66.7834 70.1817 66.5982 70.4622 66.3994 70.7654C66.2729 70.9599 66.1419 71.1545 66.0154 71.3672C65.9341 71.5119 65.8799 71.6613 65.8302 71.7925C65.7985 71.883 65.7624 71.9735 65.7217 72.064C65.4145 72.6838 65.0441 73.3128 64.6872 73.9191L64.5788 74.1046C64.3981 74.4439 64.2038 74.8059 64.014 75.1769C63.9824 74.9824 63.9508 74.7878 63.9192 74.5978C63.743 73.7064 63.5984 72.8874 63.4764 72.1002C63.2867 70.9237 62.9885 69.7609 62.6994 68.6388L62.6045 68.2632C62.4916 67.8967 62.3786 67.5348 62.2657 67.1728C62.0037 66.3312 61.7371 65.4579 61.4525 64.6073C61.1453 63.7295 60.8743 62.8065 60.6348 61.9875C60.3457 61.0464 59.9978 60.1279 59.6951 59.3496C59.528 58.9424 59.3473 58.508 59.1395 58.0601C58.9362 57.6574 58.7374 57.2547 58.5567 56.8611L57.6983 55.006C57.4995 54.5897 57.2782 54.1779 57.0658 53.7798C56.9574 53.5762 56.849 53.3726 56.7451 53.1689C56.2346 52.1599 55.6609 51.2007 55.051 50.1872L54.6082 49.4497C54.3055 48.9655 53.9803 48.4904 53.6686 48.0289C53.402 47.6398 53.131 47.2461 52.8734 46.8435L50.9037 43.8979C50.1719 42.8391 49.4084 41.8211 48.812 41.0428C48.5455 40.7125 48.2609 40.4049 47.9808 40.1107C47.6781 39.785 47.389 39.4818 47.1315 39.147C47.0095 38.9932 46.8966 38.8348 46.7836 38.6764C46.6119 38.4321 46.4312 38.1787 46.2234 37.9434C46.0698 37.767 45.9343 37.5769 45.7897 37.3778C45.6497 37.1833 45.5051 36.9842 45.347 36.7987C45.2476 36.6765 45.1301 36.5815 45.0307 36.5001C44.9675 36.4458 44.9043 36.396 44.85 36.3372C44.6242 36.0974 44.4209 35.844 44.204 35.577L43.4134 34.663C43.2824 34.5183 43.1469 34.4006 43.0159 34.2875C42.921 34.2015 42.8216 34.1201 42.7312 34.0251C42.4421 33.7264 42.1394 33.3961 41.7419 32.9482L40.3278 31.4415C39.7812 30.8578 39.2165 30.2515 38.6021 29.7312C38.2678 29.4416 37.9335 29.1475 37.5992 28.8534C37.1519 28.4552 36.7001 28.057 36.2439 27.6724C35.3268 26.9078 34.613 26.2743 33.9895 25.668C33.4203 25.1477 32.8059 24.7269 32.2593 24.3559C32.065 24.2246 31.8753 24.0934 31.7036 23.9713C30.8226 23.3242 30.1405 22.917 29.2731 22.4057L28.8574 22.1614C28.4599 21.9261 28.0533 21.6863 27.6422 21.4691C27.0775 21.1886 26.5037 20.9488 25.9481 20.7135C25.3879 20.4782 24.8638 20.2565 24.3307 19.9895C24.0461 19.8629 23.7525 19.7226 23.4633 19.5869C22.6998 19.2249 21.9138 18.8539 21.2406 18.6955C20.8521 18.5281 20.4591 18.3064 20.0434 18.0711C19.7588 17.9082 19.4697 17.7453 19.167 17.5915C18.2319 17.1209 17.3645 17.2747 16.9082 17.9942C16.8178 18.139 16.7681 18.3018 16.723 18.4647C16.6868 18.5869 16.6507 18.7136 16.601 18.8086C16.5151 18.9624 16.0995 19.7543 16.0634 20.2791C16.0543 20.4465 16.1176 20.5778 16.1582 20.6547C16.1673 20.6682 16.1718 20.6818 16.1763 20.6818C16.1763 20.709 16.1763 20.7225 16.1718 20.7678C16.1582 20.8583 16.1311 21.0076 16.2079 21.1886C16.3209 21.4691 16.5377 21.6003 16.7275 21.718C16.7998 21.7632 16.8856 21.813 16.9759 21.8809L17.0753 21.9578C17.2922 22.1207 17.491 22.2745 17.7756 22.4102C18.2544 22.6274 18.7243 22.8537 19.1896 23.0799C19.8266 23.3876 20.4817 23.7088 21.1638 23.9984C22.9528 24.7993 24.6876 25.8988 26.3682 26.9575L27.0504 27.3874C27.6512 27.7403 28.2295 28.1837 28.862 28.686L29.2234 28.9755C29.7023 29.3601 30.1992 29.7538 30.6465 30.161C31.1976 30.6497 31.7759 31.1248 32.3406 31.5863C33.7185 32.7129 35.1415 33.8803 36.1806 35.2875L36.271 35.3779C36.6279 35.6494 36.908 35.9616 37.2016 36.2874C37.3733 36.482 37.554 36.6765 37.7437 36.8666C37.8567 36.9887 37.9832 37.0792 38.0961 37.1561C38.1819 37.215 38.2633 37.2738 38.3175 37.3281C38.4259 37.4457 38.5298 37.5679 38.6337 37.6946C38.8912 38.0068 39.1758 38.3552 39.5779 38.595L40.6667 39.9886C41.0507 40.4727 41.4618 40.9614 41.8819 41.441L42.0491 41.631C42.808 42.5088 43.5264 43.3368 44.2627 44.0834C44.4751 44.5087 44.8049 44.9024 45.1256 45.287C45.5006 45.7304 45.8846 46.1919 46.0382 46.6534L46.0834 46.7484C46.1828 46.9068 46.3092 46.9747 46.4041 47.0109C46.8469 47.7574 47.3709 48.4588 48.0124 49.2687C48.5952 50.0469 49.1644 50.8071 49.6794 51.6125C49.7517 51.721 49.815 51.8477 49.8782 51.988C49.9505 52.1373 50.0228 52.2912 50.1177 52.4405C50.1719 52.5264 50.2396 52.5988 50.3119 52.6712C50.3435 52.7029 50.3842 52.7436 50.3932 52.7617C50.4294 52.8205 50.452 52.8884 50.4791 52.9563C50.5152 53.0558 50.5559 53.1508 50.601 53.2413C50.714 53.454 50.8586 53.6305 50.9851 53.7843C51.089 53.9065 51.1838 54.0241 51.2471 54.1463C51.3781 54.377 51.4775 54.6304 51.5814 54.8974C51.6898 55.1734 51.8027 55.4539 51.9518 55.7209C52.0693 55.9426 52.2229 56.1281 52.3675 56.3045C52.4397 56.395 52.512 56.4765 52.5708 56.5624C52.5888 56.8158 52.7153 57.0194 52.8057 57.1687C52.8734 57.2909 52.9322 57.395 52.9412 57.49L52.9548 57.6574L53.0722 57.7751C53.2755 57.9787 53.4246 58.3271 53.5782 58.6981C53.7273 59.051 53.8809 59.413 54.1113 59.7207C54.1565 59.9107 54.2468 60.0691 54.3191 60.2003C54.3733 60.2953 54.4185 60.3767 54.4456 60.4672C54.4817 60.5803 54.5134 60.6935 54.5405 60.8111C54.5947 61.0147 54.6489 61.2274 54.7347 61.44C54.9877 62.0509 55.2272 62.6843 55.4576 63.2997L55.575 63.6526C55.7648 64.2408 55.959 64.8471 56.1759 65.4398C56.2165 65.553 56.2753 65.648 56.325 65.7204C56.3475 65.752 56.3792 65.8018 56.3837 65.8199C56.3972 65.8606 56.4018 65.933 56.4108 66.01C56.4198 66.1231 56.4334 66.2498 56.474 66.3855C56.5689 66.7022 56.6999 67.0009 56.8309 67.295C56.9123 67.4759 56.9936 67.6615 57.0613 67.8424C57.2646 68.4035 57.4453 69.0234 57.6035 69.7247L57.6667 70.046C57.7751 70.6025 57.879 71.1228 58.01 71.6205C58.0688 71.8468 58.1456 72.073 58.2179 72.3038L58.2992 72.5526C58.3895 72.8558 58.4483 73.1408 58.4754 73.3761C58.4754 73.3987 58.4663 73.4214 58.4618 73.444C58.4437 73.5345 58.4166 73.6612 58.4347 73.8105C58.4708 74.1182 58.5702 74.4077 58.6606 74.6702L58.7103 74.8104C58.76 75.3851 58.8774 75.9823 58.9949 76.557C59.0491 76.8375 59.1078 77.118 59.153 77.385C59.2163 77.7379 59.2298 78.1225 59.2479 78.5297C59.266 78.9596 59.284 79.4075 59.3653 79.8283C59.3834 79.9188 59.4151 79.9912 59.4557 80.0636C59.4286 80.1314 59.4015 80.2219 59.4015 80.317C59.4015 80.4708 59.4331 80.6111 59.4693 80.7332C59.4828 80.792 59.5009 80.8509 59.5099 80.9142C59.528 81.0952 59.537 81.2626 59.5461 81.4165C59.5686 81.8101 59.5867 82.1856 59.7268 82.5702C59.6635 82.9141 59.7494 83.2354 59.8171 83.4978C59.8894 83.7783 59.9301 83.9548 59.8668 84.086L59.7177 84.3892L59.9436 84.5973C59.9436 84.629 59.9391 84.6787 59.9346 84.7149C59.9255 84.8145 59.912 84.9412 59.9346 85.0814C59.9572 85.2217 60.0069 85.3393 60.0475 85.4344C60.0701 85.4796 60.0927 85.5384 60.1017 85.5701C60.1198 85.6696 60.1243 85.7918 60.1243 85.923C60.1243 86.0723 60.1334 86.2216 60.1559 86.3664C60.2056 86.6786 60.2779 86.9682 60.3547 87.2487C60.3547 87.6831 60.3728 88.1175 60.3999 88.5338C60.427 88.9862 60.4496 89.4115 60.4451 89.8369C60.4451 90.1581 60.427 90.2667 60.418 90.321C60.3954 90.4839 60.4135 90.5518 60.4632 90.7282C60.4767 90.778 60.4993 90.8504 60.5264 90.9454C60.5264 91.2305 60.4857 91.5336 60.436 91.8594C60.3954 92.158 60.3502 92.4612 60.3367 92.7779C60.2779 93.6647 60.8291 94.3389 61.6784 94.4158C61.7191 94.4158 61.7552 94.4203 61.7959 94.4203C61.9133 94.4203 62.0308 94.4068 62.1528 94.3932C62.2838 94.3751 62.4193 94.3615 62.5368 94.3661C62.9117 94.3842 63.6481 94.3842 64.0457 94.2756C64.1902 94.2348 64.2851 94.1489 64.3438 94.09C64.3755 94.0765 64.4026 94.0719 64.4387 94.0674C64.5245 94.0493 64.6556 94.0267 64.7775 93.9317C65.026 93.7507 65.0667 93.5064 65.0938 93.3435C65.1028 93.2892 65.1118 93.2213 65.139 93.1444L65.1661 93.0494C65.2248 92.8593 65.2835 92.6648 65.3016 92.4069C65.3468 91.5562 65.3874 90.5427 65.3829 89.4477C65.3784 88.4342 65.4733 87.9501 65.5952 87.3347C65.6811 86.8913 65.7805 86.3891 65.8618 85.6108C65.8844 85.3936 65.916 85.1583 65.9521 84.905C66.2187 84.1584 66.5394 83.3983 66.8512 82.6562L66.8737 82.6019C67.2713 81.6517 67.6463 80.6835 67.9896 79.774C68.3375 78.8645 68.7938 78.0094 69.3494 77.2402L69.3991 77.1723L69.4217 77.0909C69.5075 76.7651 69.6747 76.5027 69.8644 76.1995C69.9683 76.0321 70.0723 75.8647 70.1716 75.6746C70.2439 75.5389 70.2756 75.3986 70.3027 75.2855C70.3162 75.2177 70.3343 75.1498 70.3524 75.1136C70.4066 75.005 70.4743 74.9054 70.5376 74.8014C70.7093 74.5299 70.899 74.2313 70.9668 73.8467C71.4592 73.1996 71.9471 72.4576 72.5299 71.4667C73.0584 70.6296 73.5012 69.779 73.8761 69.037L73.84 69.0505Z" fill="#024089"/>
<path id="Vector_5" d="M51.682 67.9145L51.5826 67.634L51.2844 67.6159C50.8191 67.5842 50.3312 67.5209 49.8614 67.4576C49.4954 67.4078 49.1521 67.3625 48.8539 67.3354L47.4715 67.2585L45.8361 67.1318C45.1765 67.0911 44.5305 67.0187 43.8483 66.9417C43.5547 66.9101 43.261 66.8784 42.9719 66.8467C40.0445 66.4847 36.9815 65.6205 34.0179 64.7835L33.286 64.5799C32.3554 64.3174 31.3615 64.0098 30.3314 63.6659C29.3195 63.3356 28.2894 62.9691 27.5621 62.7112L26.5908 62.227C24.0428 61.0054 21.7027 59.3358 19.8323 57.4037L18.73 56.2273C18.5222 55.9966 18.328 55.7522 18.1292 55.5124C17.9846 55.336 17.84 55.1595 17.7 54.9921C17.6322 54.9106 17.5645 54.8292 17.4922 54.7478C17.3883 54.6256 17.2844 54.5034 17.1985 54.3903L16.7242 53.7342C16.6022 53.5623 16.4802 53.3949 16.3537 53.2275C16.1504 52.956 15.9607 52.6981 15.78 52.413C14.6822 50.7887 13.6702 48.9381 12.6854 46.7662C11.3933 43.8026 10.5982 40.5086 9.95669 37.6536C9.6269 36.1966 9.25193 34.5406 9.02605 33.0067C8.36195 28.749 8.02312 24.1972 7.93728 18.2337C7.91018 16.3967 7.88307 14.4918 7.91921 12.5914L7.98698 9.29293C7.99601 9.0124 7.99601 8.71829 7.9915 8.42419L7.93728 6.73196C7.93728 6.69577 7.93728 6.66409 7.93728 6.63695C7.93728 6.5917 7.9418 6.55098 7.9418 6.50121C7.9418 6.44239 7.9418 6.39261 7.95987 6.30665C7.97343 6.16186 8.00505 6.06231 8.0186 6.01707C8.07733 5.99444 8.29418 5.95825 8.61494 5.97182C8.92666 5.98087 9.30162 6.03517 9.7037 6.13018C9.94314 6.18448 10.1916 6.24783 10.431 6.3157L11.5334 6.67314L11.8089 6.72744C12.6583 6.87675 13.4579 7.01702 14.2485 7.19801L14.4202 7.23873C15.2153 7.43329 16.0375 7.63237 16.8507 7.85861C17.2844 7.97172 17.7181 8.10746 18.1337 8.2432C18.5358 8.36989 18.9378 8.49658 19.3535 8.6097C19.5703 8.66852 19.7872 8.70472 19.995 8.74092C20.1712 8.76807 20.3474 8.79974 20.51 8.84046C21.3187 9.07122 22.1318 9.3427 22.9179 9.60513C23.3787 9.75897 23.835 9.91281 24.2823 10.0531C24.5624 10.1526 24.847 10.2341 25.1316 10.3155C25.3755 10.3879 25.6195 10.4558 25.877 10.5463C28.9445 11.5507 31.9668 13.0258 34.8853 14.4601L35.5223 14.7723C39.159 16.5505 42.3259 18.5278 44.6751 20.5005L44.91 20.6951C45.5199 21.2019 46.0981 21.6815 46.6809 22.1249C47.1282 22.4778 47.5483 22.8353 47.9504 23.1837C48.1266 23.333 48.2983 23.4823 48.4699 23.6271C48.7636 23.8669 49.0256 24.1203 49.2741 24.3646L50.3086 25.351C50.6294 25.6541 50.9275 25.9663 51.2438 26.2966C51.4877 26.55 51.7407 26.8124 52.0028 27.0704C52.2286 27.3011 52.4455 27.55 52.6623 27.7988C52.7979 27.9527 52.9334 28.1065 53.0689 28.2603L53.4529 28.6902L54.117 29.4911C54.6637 30.129 55.1922 30.7942 55.7027 31.4367L56.0958 31.9344L57.0174 33.2239C57.2388 33.5316 57.433 33.8528 57.6363 34.1967L57.8396 34.5315C58.5127 35.6718 59.1181 36.9884 59.6557 38.1467C59.9268 38.7395 60.1888 39.3005 60.4282 39.7802C60.8936 41.0063 61.1511 42.4361 61.395 43.9157C61.5983 45.1057 61.9642 46.4993 62.9581 46.73C63.1976 46.7934 63.4235 46.7165 63.6042 46.6531C63.6945 46.6215 63.812 46.5853 63.8662 46.5853C64.2276 46.6169 65.1131 46.6305 65.5784 46.1464C65.7049 46.0197 65.7455 45.8613 65.7862 45.7075C65.8043 45.6441 65.8269 45.5446 65.8495 45.5084C65.872 45.4722 65.8766 45.4677 65.9127 45.4405C66.0166 45.3545 66.1341 45.246 66.2018 45.0016C66.3103 44.6215 66.2651 44.2234 66.2063 43.6714C66.1883 43.504 66.1702 43.323 66.1521 43.1194C66.0979 42.4407 66.0392 41.8751 65.8856 41.2145C65.2667 38.5992 64.3405 36.1333 63.044 33.6718C61.8332 31.3778 60.618 29.3825 59.3259 27.5771C57.7989 25.4641 56.2991 23.6723 54.736 22.0977C52.3822 19.7178 49.9382 17.5324 47.6793 15.7723C44.3137 13.1706 40.5098 11.1616 36.8279 9.21601C36.0056 8.78164 35.1925 8.3518 34.3883 7.91743L33.7378 7.655C33.2634 7.46496 32.8116 7.28397 32.3599 7.08489L31.8042 6.84056C31.3344 6.63242 30.8555 6.42429 30.345 6.21163C30.0739 6.09851 29.7938 6.03064 29.5228 5.9673C29.3104 5.91752 29.1071 5.86775 28.9129 5.79536C28.5876 5.68224 28.2623 5.55555 27.9371 5.42434C27.1826 5.12571 26.4056 4.81803 25.5834 4.69586C21.0837 2.96292 16.2272 1.92224 12.8751 1.35213L12.5227 1.23449C12.2968 1.1621 12.0755 1.09875 11.8541 1.03993C10.5078 0.501495 9.1164 0.320508 7.60298 0.492446C6.82593 0.591988 5.68748 0.872518 4.66197 1.64171C3.56869 2.45615 2.97235 3.59637 2.70581 4.21625C2.59287 4.5194 2.58383 4.70491 2.59287 4.91757C2.59287 5.02164 2.59738 5.09856 2.57028 5.25692C2.45282 5.94467 2.41216 6.64147 2.45282 7.26135L2.48444 7.92195C2.49348 8.02149 2.49348 8.14819 2.498 8.2794L2.55673 12.7905C2.5748 14.1388 2.59287 15.5008 2.58835 16.8536C2.58835 17.0935 2.5748 17.3423 2.56576 17.5866C2.54769 17.9622 2.53414 18.3468 2.54317 18.7269C2.54769 18.8898 2.57028 19.0436 2.58835 19.202C2.60642 19.3286 2.62449 19.4599 2.62901 19.5866C2.62901 19.754 2.61997 19.9304 2.61094 20.1114C2.6019 20.2924 2.58835 20.4734 2.58835 20.6453C2.58835 21.0706 2.63353 21.4733 2.6787 21.867C2.71936 22.1973 2.7555 22.5095 2.76002 22.8217C2.76906 23.2334 2.76906 23.6497 2.76906 24.0614C2.76906 24.7899 2.76906 25.541 2.82327 26.2831C2.85941 26.7672 2.94976 27.2423 3.0356 27.7038C3.08078 27.9527 3.13047 28.206 3.16661 28.4549C3.08981 28.8305 3.14402 29.2286 3.19824 29.6494C3.24341 29.9661 3.28407 30.2919 3.27052 30.5996V30.681L3.28859 30.758C3.4693 31.3507 3.56417 32.0927 3.65904 32.8755C3.76746 33.7216 3.87589 34.5949 4.10629 35.346C4.11984 35.7215 4.20116 36.0699 4.27796 36.4138C4.32314 36.6219 4.37283 36.8301 4.40446 37.0608C4.44512 37.2961 4.48126 37.5314 4.5174 37.7712C4.57613 38.1739 4.63938 38.5856 4.73425 39.011C5.36221 41.6715 6.09859 44.522 7.21897 47.3228C7.2777 47.4676 7.3545 47.6078 7.43582 47.7526C7.5081 47.8793 7.57587 48.0015 7.62105 48.1236C7.67526 48.2594 7.71592 48.4132 7.76109 48.5716C7.81982 48.7933 7.87855 49.0195 7.98698 49.2503C8.39357 50.1281 8.89052 51.0375 9.5004 52.0149L10.0064 52.8972C10.169 53.1958 10.3452 53.5125 10.535 53.8066L11.6102 55.5803L13.0423 57.6481L14.6009 59.4851C14.7499 59.648 14.9081 59.8018 15.0707 59.9557C15.1565 60.0326 15.2379 60.114 15.3282 60.2C15.7077 60.5574 16.0691 60.9285 16.417 61.2904L16.6745 61.5574C16.7468 61.6253 16.8055 61.7067 16.8642 61.7881C16.9546 61.9103 17.0585 62.046 17.2031 62.1818C17.4244 62.3899 17.6819 62.6116 18.0117 62.8695C18.3099 63.1093 18.5855 63.3039 18.8475 63.4668C19.1502 63.7247 19.489 63.9917 19.873 64.2858L20.0176 64.3943C20.3383 64.6342 20.6726 64.8875 21.034 65.0866L22.4887 65.9463C22.7824 66.1182 23.0851 66.2992 23.3832 66.4395C23.9751 66.7381 24.5985 67.0865 25.1993 67.4259L25.4117 67.5435L25.5743 67.6159C26.5366 68.0186 27.3181 68.3037 28.041 68.5163C28.1675 68.5525 28.2849 68.5616 28.3888 68.5751C28.4701 68.5842 28.547 68.5887 28.5966 68.6068C28.6283 68.6204 28.7096 68.6702 28.7683 68.7064C28.8677 68.7697 28.9716 68.8376 29.0846 68.8828C29.2878 68.9597 29.5137 69.014 29.7306 69.0638C29.8752 69.0955 30.0197 69.1317 30.1552 69.1724C30.4489 69.2584 30.72 69.3489 30.9775 69.4303C31.8132 69.6973 32.5406 69.9235 33.3447 70.0185C33.8959 70.29 34.4922 70.385 35.075 70.4755C35.6307 70.5615 36.1547 70.6429 36.5568 70.8737L36.7104 70.9596L36.8821 70.9189C37.0537 70.8782 37.2932 70.9551 37.5462 71.0366C37.7269 71.0954 37.9166 71.1542 38.1154 71.1904C38.3097 71.2266 38.4949 71.2266 38.6756 71.2311C38.8111 71.2311 38.9467 71.2311 39.0822 71.2537C39.299 71.2854 39.5249 71.3352 39.7598 71.385C40.049 71.4483 40.3471 71.5117 40.6363 71.5479C41.1694 71.6202 41.7295 71.6745 42.3123 71.7062L43.7986 71.756L44.1375 71.7741C44.4582 71.7922 44.788 71.8103 45.1133 71.8103C45.2804 71.8103 45.4431 71.8058 45.6012 71.7922L45.7412 71.7831L45.8497 71.6972C45.9942 71.584 46.5183 71.5569 46.7442 71.5433C47.2276 71.5117 47.7697 71.48 48.1627 71.308L48.3028 71.2447L48.3796 71.109C48.4202 71.0366 48.4428 70.9551 48.4473 70.8782C48.6687 70.8465 48.881 70.7741 49.0256 70.5841L49.0934 70.4981L49.1114 70.4031C49.3599 70.3398 49.5045 70.2266 49.6671 70.0864C49.7123 70.0457 49.762 70.0004 49.8298 69.9552C49.9066 69.9054 49.9834 69.8602 50.0602 69.824C50.2454 69.7244 50.5526 69.557 50.661 69.2493C50.7062 69.2357 50.7559 69.2222 50.8011 69.2086C51.1534 69.1045 51.5194 68.9959 51.7995 68.7969L52.4319 68.3399L51.7181 68.0141C51.7181 68.0141 51.691 67.9507 51.6775 67.9191L51.682 67.9145Z" fill="#024089"/>
</g>
</g>
<defs>
<clipPath id="clip0_3956_14698">
<rect width="122" height="94" fill="white" transform="translate(0.28125 0.429688)"/>
</clipPath>
</defs>
</svg>
