<svg xmlns="http://www.w3.org/2000/svg" fill="none" viewBox="0 0 238 20">
    <path fill="#F18700" d="M0 19.9219C33.4286 17.2672 70.3493 15.594 115.98 14.6459C134.476 13.932 155.439 13.1177 176.026 13.1177H176.361C182.188 13.6531 188.035 14.5566 193.699 15.4267L194.278 15.5159C199.76 16.3525 205.972 17.3118 212.063 17.8361C212.175 17.8361 212.276 17.8361 212.398 17.8361C214.327 17.8361 216.946 18.2934 219.717 18.7842L219.88 18.8177C222.783 19.3308 226.062 19.8996 229.016 20C232.204 20.1004 234.467 19.6431 235.929 18.5723C236.721 17.9922 237.259 17.2449 237.604 16.2856C237.98 15.2036 238.091 13.8316 237.929 12.2142C237.533 10.5968 236.355 9.11325 234.711 8.22089C227.148 5.53266 218.773 4.10488 207.617 3.63639C203.039 3.44677 198.45 3.42446 193.75 3.42446H192.613C188.492 3.42446 184.218 3.42446 180.117 3.29061C173.538 3.23483 166.402 2.79981 159.499 2.36478C154.728 2.06361 150.221 1.78475 145.957 1.62859C144.84 1.69551 143.297 1.37203 141.693 1.00394L141.155 0.881236C139.734 0.557756 138.262 0.223121 136.912 0.0781128C135.339 -0.0892045 134.202 0.0334949 133.532 0.457365C133.207 0.658146 132.994 0.925854 132.852 1.29395C132.669 1.76244 132.618 2.38709 132.689 3.15675L132.801 4.33913L131.725 4.38375C115.432 5.10879 98.8444 5.73344 82.795 6.33578C63.8727 7.04967 44.3312 7.78587 25.3887 8.67822C23.7848 8.94593 22.0692 9.18018 20.3434 9.41442C16.4656 9.94984 12.4964 10.4853 8.91294 11.5338C8.65916 11.8126 8.32416 12.058 7.90796 12.27C7.45114 12.5042 6.95372 12.6604 6.51721 12.8054L6.21267 12.9058C6.00964 12.9727 5.81676 13.0285 5.63404 13.0842C5.69495 13.3185 5.69495 13.5527 5.63404 13.7981L5.54267 14.2109L5.22798 14.4451C5.06556 14.5678 4.88283 14.6682 4.70011 14.7463L6.64918 15.9175L3.48194 16.3302C3.12664 16.3748 2.67997 16.4641 2.51755 16.6202C2.46679 16.6648 2.41604 16.7429 2.31452 16.8879C2.19271 17.0776 2.04044 17.3006 1.82726 17.5349C1.63438 17.7468 1.4415 17.9364 1.26893 18.0926C1.12681 18.2265 1.01514 18.3157 0.933931 18.4161L1.11666 19.2638L0.436511 19.6877C0.294391 19.7769 0.152271 19.855 0 19.9443L0 19.9219Z"/>
</svg>
