<svg width="173" height="151" viewBox="0 0 173 151" fill="none" xmlns="http://www.w3.org/2000/svg">
<g id="icon 1" clip-path="url(#clip0_3956_14593)">
<path id="Vector" d="M66.8219 72.0555C66.8219 72.0555 30.9209 51.5914 12.1006 83.0732C-6.71973 114.558 13.5245 136.122 13.5245 136.122C47.6858 164.301 73.8752 142.782 78.0521 136.122C102.723 96.7683 66.8219 72.0526 66.8219 72.0526V72.0555Z" fill="#265AA6"/>
<path id="Vector_2" d="M116.92 67.5842C112.301 67.5842 104.651 68.2985 101.358 65.2355C95.8003 60.0666 82.3051 51.169 76.0183 46.7144C67.7909 40.9084 53.0986 29.2106 49.3208 26.9876C46.8204 25.4704 44.1277 23.5045 29.2373 14.3897C28.7264 14.0754 22.8529 9.50374 17.0742 9.36945C15.0647 9.32373 13.2504 9.96663 11.571 11.6839C8.80081 14.5183 12.1107 16.867 15.5699 20.7844C18.478 23.9874 41.6359 35.1881 46.4357 37.9339C51.313 40.5969 75.9925 55.3406 80.8899 57.7779C88.2705 61.4524 96.696 73.1759 99.1246 78.4591C99.8911 80.122 107.358 100.503 108.185 102.155C111.856 109.812 119.713 114.201 130.372 117.87C146.718 123.499 155.02 118.787 163.199 112.724C164.792 111.527 167.318 112.618 170.014 106.312C173.631 97.8516 166.147 83.8165 159.145 77.3876C148.426 67.287 130.226 67.5899 116.923 67.5899L116.92 67.5842Z" fill="#A2D3F3"/>
<g id="Group">
<path id="Vector_3" d="M108.192 60.0375C107.127 59.9118 106.065 59.7975 105.072 59.4318C105.095 59.4318 105.106 59.4518 105.109 59.4718C89.5673 46.6139 72.8569 34.9332 56.8269 22.6583C47.5057 15.7436 37.3176 9.93467 27.5859 3.61431C22.8263 0.771293 15.9711 -1.96601 11.0335 1.94279C5.97528 5.93444 5.42124 13.9092 9.57515 18.7123C12.3741 21.6982 16.1462 23.7355 19.5681 25.8727C43.969 40.7764 73.5344 49.8798 93.6207 71.501C97.9555 76.0499 97.7258 82.9702 99.5918 88.7306C101.406 94.008 103.812 99.2597 107.081 103.817C113.833 114.003 125.376 119.727 137.321 121.312C150.3 123.39 168.047 119.815 172.33 105.692C175.64 91.9736 166.117 79.1615 154.922 72.2668C144.69 66.195 133.251 64.3549 121.642 62.8634C118.38 62.5091 115.513 62.5862 115.071 63.1548C114.933 63.3348 115.438 63.6491 115.34 63.912C115.211 64.2549 115.217 64.8378 115.791 65.1521C115.949 65.235 116.569 65.315 116.919 65.4521C117.367 65.6264 117.218 65.6978 117.674 65.8121C125.707 66.9408 134.824 68.0494 142.612 70.6867C156.518 74.9755 171.77 88.6391 168.382 104.409C167.3 108.666 164.053 112.026 160.25 114.086C149.08 120.21 135.197 117.898 123.932 113.186C113.248 108.177 106.697 97.3082 103.172 86.439C102.129 82.4188 101.587 78.55 100.232 74.5212C97.6712 67.4636 86.6334 59.4661 80.447 54.8544C60.5129 40.8764 37.2832 32.9874 16.9385 19.5752C15.0639 18.2694 12.9855 17.0894 11.7999 15.0921C10.0861 12.1748 10.267 7.96599 12.8047 5.57157C18.0667 0.662715 25.4444 7.03736 30.2126 9.87467C37.7367 14.5149 45.0886 18.978 52.274 24.0269C58.6354 28.5814 64.5319 33.5446 70.79 38.1134C78.1304 43.6737 84.8105 47.6225 91.7432 53.3028C95.6991 56.243 101.705 62.5377 106.562 62.6377C106.791 62.5119 105.457 62.3205 105.66 62.1862C106.169 62.1691 107.704 62.4519 108.169 62.2834C108.212 62.1633 107.595 62.0576 107.414 61.9433C108.632 62.0891 109.217 62.0748 110.308 61.7633C111.143 61.6005 112.105 61.569 111.887 61.2347C112.978 61.1376 114.341 61.0776 115.208 60.9233C114.692 60.8233 114.548 60.6976 114.41 60.5718C112.392 60.4775 110.053 60.2461 108.187 60.0375H108.192Z" fill="#024089"/>
</g>
<g id="Group_2">
<path id="Vector_4" d="M153.864 77.962C151.861 76.319 150.219 74.1103 149.076 71.5245C148.218 69.5587 146.57 68.29 144.739 68.1843C142.313 67.41 139.766 67.3842 137.329 68.11C137.036 68.1443 134.711 69.0729 134.045 69.3672C132.966 70.013 124.466 73.3874 123.073 72.996C122.264 72.9046 115.294 77.9734 114.562 78.402C113.726 78.9478 108.76 86.9225 108.889 87.3025C110.015 90.6227 114.823 97.9003 117.157 100.106C121.506 104.638 127.184 105.144 132.314 108.255C133.115 108.735 147.715 112.127 155.415 110.515C157.809 109.455 164.417 106.306 164.951 102.698C164.5 96.9316 163.7 91.3342 159.979 87.0911C158.575 85.5681 157.43 83.728 156.609 81.6708C156.109 80.0164 155.099 78.6592 153.793 77.8848L153.864 77.9706V77.962Z" fill="#F2F2F2"/>
<g id="Group_3">
<path id="Vector_5" d="M153.613 78.0233L153.719 77.9004C153.719 77.9004 153.705 77.9004 153.699 77.9004C153.645 77.9175 153.619 77.9833 153.613 78.0233Z" fill="#024089"/>
<path id="Vector_6" d="M152.398 76.5065C152.499 76.3922 152.634 76.2522 152.846 76.1236C152.898 76.0922 152.952 76.0608 153.013 76.035C152.95 76.0293 152.889 76.0208 152.82 75.9922C152.654 76.1351 152.499 76.3093 152.398 76.5094V76.5065Z" fill="#024089"/>
<path id="Vector_7" d="M154.098 76.0178C154.276 76.092 154.468 76.1692 154.655 76.2463L154.689 76.2606C154.689 76.2606 154.729 76.2835 154.686 76.2406C154.632 76.1863 154.563 76.1263 154.468 76.0692C154.284 75.9549 153.989 75.8606 153.673 75.872C153.432 75.8777 153.202 75.9435 153.016 76.032C153.105 76.0378 153.199 76.0349 153.326 76.0578C153.67 76.1178 153.957 76.2806 154.101 76.0178H154.098Z" fill="#024089"/>
<path id="Vector_8" d="M154.518 77.2754L154.48 77.3182C154.498 77.3125 154.512 77.3011 154.518 77.2754Z" fill="#024089"/>
<path id="Vector_9" d="M166.786 102.548C166.433 95.7451 164.289 89.3705 159.299 84.6331C157.135 82.6872 157.284 78.1298 154.135 77.7212C154.126 77.7012 154.172 77.6584 154.184 77.6441C154.169 77.6441 154.152 77.6412 154.138 77.6412C154.138 77.6241 154.138 77.6041 154.138 77.5898C154.095 77.6726 153.98 77.6441 153.908 77.6784L153.716 77.9012C153.762 77.8955 153.805 77.9127 153.836 77.9384C153.655 78.1212 153.48 78.3984 153.348 78.6156L153.888 77.987C153.888 77.987 153.894 77.9927 153.897 77.9955C151.993 79.7413 153.891 80.6385 154.37 82.5472C156.957 88.5618 161.358 89.9019 162.397 97.3995C163.404 101.948 163.47 103.937 158.978 106.491C151.436 111.435 141.607 107.872 133.348 106.537C133.529 106.24 133.595 106.129 133.348 106.537C133.314 106.529 133.279 106.52 133.245 106.511C133.256 106.511 133.291 106.534 133.302 106.551L133.294 106.569C125.468 102.305 118.693 101.997 114.086 93.2135C112.771 91.4134 111.462 89.3476 110.609 87.2389C112.062 84.7016 113.672 82.1415 115.426 79.7871C115.556 79.9956 115.604 80.0699 115.426 79.7871C117.921 77.9727 120.401 75.9097 123.169 74.4782C127.851 73.9782 131.87 71.7009 136.199 70.0322C137.864 69.3493 137.646 70.0979 137.35 68.3093L137.752 69.5265C140.238 68.6864 145.807 68.8493 147.432 71.0751C148.293 72.1666 148.925 73.5124 149.846 74.5153C150.236 74.4668 151.858 76.7069 151.557 75.4582C151.856 75.5954 152.547 76.4126 152.326 75.6125C152.55 75.8411 152.697 75.944 152.817 75.9954C153.429 75.3639 154.557 75.384 155.022 75.8868C154.81 75.7068 154.623 75.4782 154.433 75.2782C151.899 73.021 151.184 69.9151 148.681 67.6892C145.348 65.3777 140.6 65.0891 136.701 66.1434C131.875 67.8578 127.271 70.6351 122.115 71.138C118.989 72.6095 116.382 74.9496 113.523 76.7926C113.15 77.0355 112.843 77.3926 112.57 77.7269C110.509 80.4728 108.62 83.2358 107.153 86.3446C106.671 87.3303 107.199 88.3533 107.618 89.2562C110.667 95.0365 114.14 101.051 119.962 104.434C123.909 106.577 128.253 107.946 132.154 109.992C137.522 111.352 142.945 112.355 148.488 112.577C151.023 112.675 153.67 112.792 156.144 112.14C160.212 110.02 166.08 107.689 166.786 102.551V102.548ZM123.387 70.9837C123.467 70.9951 123.553 71.0008 123.631 71.0323L123.378 70.9837H123.384H123.387Z" fill="#024089"/>
<path id="Vector_10" d="M154.483 77.3184C154.483 77.3184 154.469 77.3241 154.46 77.3269L154.188 77.6441C154.188 77.6441 154.199 77.6441 154.205 77.6441L154.486 77.3184H154.483Z" fill="#024089"/>
</g>
</g>
<path id="Vector_11" d="M127.661 83.1085C127.603 83.3256 127.755 83.5399 127.979 83.5628C128.203 83.5857 128.364 83.6199 128.35 83.8057C129.013 84.1085 130.698 85.0514 131.545 85.1629C131.921 85.0286 131.037 84.3343 131.459 84.0685C131.774 83.2713 131.846 82.7656 131.387 81.9827C129.205 78.8568 128.66 79.2597 127.661 83.1056V83.1085Z" fill="#024089"/>
<path id="Vector_12" d="M140.891 90.7453C141.614 90.7053 141.999 91.5225 142.55 91.8911C143.049 92.0197 143.733 92.254 143.994 92.3997C145.843 93.8912 146.135 90.3282 146.434 88.8224C146.463 88.6995 146.331 89.3653 146.336 89.3338C146.451 88.7395 146.42 88.8852 146.486 88.5566C146.11 89.2024 146.15 89.0138 145.848 88.7881C145.8 88.7738 145.831 88.5366 145.627 88.7624C145.702 88.5852 145.498 88.8881 145.622 88.6224C145.616 88.6481 145.237 88.9052 145.317 88.7795C145.223 88.8595 145.245 88.8624 145.26 88.7538C145.174 88.8424 145.145 88.8624 145.182 88.7767C144.99 89.0024 145.093 88.6681 144.898 88.8024C145.024 88.6881 144.686 88.8538 144.663 88.7824C144.766 88.6738 144.714 88.7138 144.6 88.7138C144.628 88.6367 144.68 88.5766 144.571 88.6566C144.358 88.5195 141.766 90.0053 140.891 90.7482V90.7453Z" fill="#024089"/>
<path id="Vector_13" d="M129.537 96.7885C129.787 96.4056 130.177 96.6028 130.381 96.7771C130.8 96.6199 131.053 96.8314 131.145 96.8542C131.865 97.66 133.49 94.3541 134.104 93.394C133.059 94.2169 133.791 93.0283 132.798 93.394C132.706 93.474 132.729 93.4797 132.735 93.3683C132.652 93.4626 132.626 93.4855 132.655 93.394C132.517 93.5769 132.626 93.3683 132.511 93.514C132.514 93.454 132.485 93.5369 132.511 93.434C132.422 93.3426 132.333 93.5083 132.399 93.374C132.324 93.4712 132.04 93.5398 132.175 93.3797C132.095 93.4255 132.052 93.4312 132.046 93.314C131.946 93.454 132.089 93.2426 132.014 93.314C131.437 93.6055 130.229 95.6599 129.531 96.7857L129.537 96.7885Z" fill="#024089"/>
<g id="Group_4">
<path id="Vector_14" d="M129.725 46.9327C133.448 48.4985 131.392 48.1185 132.259 46.3555C132.136 46.0927 132.529 45.8326 132.188 45.5098C132.346 45.2983 132.087 44.9354 131.88 44.6897C131.843 44.3897 131.668 44.2468 131.436 44.0211C131.447 43.5668 130.557 43.1325 130.273 42.9696C130.178 42.821 130.06 42.6439 129.9 42.7753C129.949 42.5496 129.725 42.9582 129.796 42.6953C129.205 43.0925 128.987 44.0011 128.794 44.6926C128.335 45.8869 128.272 46.3727 129.725 46.9356V46.9327Z" fill="#024089"/>
<path id="Vector_15" d="M146.336 47.6505L146.439 47.1133C146.428 47.1676 146.405 47.2876 146.336 47.6505Z" fill="#024089"/>
<path id="Vector_16" d="M146.158 47.3222C146.014 47.3079 145.911 47.2394 145.905 47.0308C145.773 47.2565 145.879 46.7908 145.632 47.0822C145.707 46.9051 145.503 47.2079 145.626 46.9422C145.581 47.0193 145.377 47.0994 145.305 47.1451C145.362 47.0193 145.259 47.1736 145.242 47.1708C145.239 47.1536 145.279 47.0708 145.265 47.0708C145.17 47.1708 145.147 47.1794 145.187 47.0936C145.038 47.2679 145.161 47.0651 145.035 47.2022C145.055 46.9593 144.843 47.1679 144.668 47.0994C144.828 46.9393 144.538 47.1336 144.639 46.9308C144.484 47.0536 144.762 46.8108 144.518 46.9479C144.685 46.805 144.312 47.0679 144.524 46.8965C143.416 47.5251 141.984 48.1423 140.898 49.068C141.9 49.0709 142.242 50.4853 143.373 50.4224C145.041 51.1453 144.355 51.6596 145.787 50.331C145.905 49.9195 146.87 46.0593 146.16 47.3251L146.158 47.3222Z" fill="#024089"/>
<path id="Vector_17" d="M152.172 57.3594L152.275 56.8223C152.264 56.8766 152.241 56.9966 152.172 57.3594Z" fill="#024089"/>
<path id="Vector_18" d="M152.225 56.7512C152.027 57.1712 151.754 57.0426 151.737 56.7398C151.645 56.9083 151.737 56.674 151.625 56.8455C151.726 56.4197 151.315 57.0083 151.459 56.6512C151.347 56.7912 151.154 56.8083 151.074 56.8798C151.134 56.6969 151.057 56.8312 150.979 56.8969C151.086 56.7398 150.951 56.9083 151.017 56.8026C150.867 56.9769 150.991 56.774 150.865 56.9112C150.885 56.6683 150.675 56.8769 150.497 56.8083C150.658 56.6483 150.368 56.8426 150.468 56.6398C150.313 56.7626 150.592 56.5197 150.348 56.6569C150.514 56.514 150.141 56.7769 150.354 56.6055C149.171 57.1741 148.091 57.8941 146.742 58.657C147.187 58.8685 147.911 59.4171 148.387 59.9228C149.306 60.1742 149.851 60.3685 150.503 60.8771C151.921 60.8143 152.245 57.1455 152.225 56.7569V56.7512Z" fill="#024089"/>
<path id="Vector_19" d="M133.917 56.0916C133.581 56.4088 133.389 56.2574 133.406 55.9459C133.24 56.1459 133.406 55.6916 133.119 55.9602C133.202 55.7888 132.981 56.0774 133.119 55.8173C133.122 55.8059 133.059 55.9031 133.056 55.9031C133.044 55.7973 132.723 56.1145 132.8 55.9631C132.714 56.0374 132.729 56.0545 132.737 55.9373C132.645 56.0431 132.625 56.0516 132.657 55.9631C132.519 56.1459 132.628 55.9373 132.513 56.0831C132.502 55.8373 132.312 56.0688 132.132 56.0402C132.246 55.8488 132.02 56.1002 132.051 55.8831C131.951 56.0231 132.094 55.8116 132.02 55.8831C132.002 55.8802 132.034 55.8088 131.939 55.9345C132.048 55.7402 131.787 56.1174 131.922 55.8831C131.078 56.8003 130.355 58.0975 129.551 59.2718C129.987 58.9032 130.165 59.4633 130.808 59.2633C130.906 59.3433 130.946 59.3718 131.046 59.289C131.064 59.3461 130.989 59.4976 131.078 59.389C131.135 59.4375 131.156 59.469 131.19 59.5918C131.348 59.5233 131.224 59.8061 131.365 59.6918C132.103 59.2118 134.104 56.4945 133.911 56.0916H133.917Z" fill="#024089"/>
</g>
<path id="Vector_20" d="M147.177 102.346C147.168 101.92 147.538 101.838 147.774 101.886C147.883 101.675 148.15 101.635 148.224 101.483C148.279 101.612 148.305 101.626 148.354 101.543C149.266 101.766 148.867 98.1773 148.887 97.043C148.77 97.4344 148.592 97.8544 148.382 97.4058C148.374 97.5573 148.354 97.3573 148.333 97.5487C148.239 97.123 148.173 97.8259 148.121 97.4516C148.115 97.4087 148.038 97.8059 147.98 97.7201C147.972 97.7716 147.977 97.8287 147.96 97.743C147.932 97.8573 147.952 97.8573 147.903 97.7544C147.84 97.9544 147.874 97.8344 147.794 97.9916C147.745 97.7916 147.653 98.1116 147.667 97.9373C147.65 98.0659 147.487 98.2745 147.512 98.063C147.469 98.1402 147.452 98.1802 147.392 98.0745C147.386 98.2002 147.383 98.1259 147.38 98.0545C147.088 98.6602 147.165 100.983 147.182 102.349L147.177 102.346Z" fill="#024089"/>
<path id="Vector_21" d="M120.058 89.2791C120.485 89.1106 120.689 89.4963 120.755 89.7592C121.189 89.8735 121.272 90.1935 121.338 90.2649C121.458 91.345 124.705 89.5735 125.762 89.142C124.43 89.2106 125.713 88.6591 124.688 88.3877C124.565 88.3991 124.582 88.4191 124.651 88.3305C124.53 88.3591 124.493 88.362 124.57 88.3048C124.352 88.3762 124.562 88.2648 124.384 88.3191C124.421 88.2705 124.349 88.3191 124.43 88.2534C124.41 88.1277 124.24 88.2105 124.372 88.1391C124.234 88.1905 124.157 88.0877 124.094 88.0619C124.148 88.0362 124.257 87.9848 124.102 88.0219C124.128 87.9505 124.042 87.9762 124.12 87.8848C123.956 87.9419 124.194 87.8505 124.094 87.8676C123.454 87.7733 121.275 88.7591 120.055 89.2791H120.058Z" fill="#024089"/>
<path id="Vector_22" d="M59.7244 149.694C61.3549 148.997 62.8046 148.288 64.1912 147.545C65.5806 146.805 66.9011 146.022 68.259 145.157C70.4522 143.754 72.6626 142.228 74.7755 140.508C76.8883 138.791 78.9007 136.868 80.6432 134.722C81.9034 133.187 83.1177 131.467 84.1598 129.65C85.2105 127.839 86.063 125.916 86.6831 124.047C87.4726 121.707 87.9635 119.252 88.2304 116.784C88.4716 114.309 88.4658 111.818 88.2563 109.36C88.0898 107.497 87.7797 105.657 87.3663 103.854C87.2573 103.406 87.1597 102.949 87.0362 102.511L86.663 101.197C86.4075 100.323 86.1779 99.4455 85.865 98.5883L85.42 97.2997C85.2679 96.8711 85.1358 96.4396 84.955 96.0225C84.6133 95.1824 84.2746 94.3424 83.9359 93.508C83.5541 92.688 83.1723 91.8708 82.7905 91.0593C82.3914 90.2536 81.9522 89.4707 81.5388 88.6792C81.3924 88.3877 81.2259 88.1049 81.0537 87.8249L80.5513 86.9791C80.2183 86.4133 79.891 85.8447 79.515 85.3047C79.1504 84.7561 78.7944 84.2046 78.4212 83.6589L77.2471 82.0645C75.6367 79.973 73.854 78.0014 71.8933 76.2499C70.0216 74.5555 67.7681 72.9669 65.6122 71.6525C65.282 71.4353 64.9318 71.2525 64.5902 71.0525C64.2457 70.8582 63.907 70.6553 63.5567 70.4696C62.8506 70.1124 62.1587 69.7267 61.4324 69.4038C59.9999 68.7123 58.5101 68.1294 56.9857 67.598C55.4585 67.0665 53.8854 66.6265 52.2605 66.2693C51.4481 66.095 50.6242 65.935 49.7803 65.8122C49.3611 65.7465 48.9334 65.695 48.4999 65.6436C48.2817 65.6236 48.0664 65.5979 47.8425 65.5807C47.6129 65.5636 47.4119 65.5464 47.1249 65.535L46.9756 65.5293L46.8722 65.5436C45.5431 65.7179 44.0245 65.8836 42.4915 66.1122C39.5893 66.6036 36.687 67.198 33.8565 68.0323C33.4488 68.1494 33.0412 68.2637 32.6335 68.3809C32.4297 68.4409 32.2259 68.4923 32.0221 68.5552L31.4192 68.7609C30.6183 69.0352 29.8174 69.3067 29.0193 69.5781C27.4491 70.2038 25.873 70.7982 24.3631 71.5554C21.323 73.0069 18.4178 74.7527 15.7653 76.8585C14.818 77.6557 13.8706 78.4415 13.0152 79.3244C12.1195 80.1587 11.3272 81.0845 10.4947 81.9502C10.0239 82.496 9.55598 83.036 9.08518 83.5789C8.84404 83.8446 8.63448 84.1361 8.41344 84.4218C8.19814 84.7104 7.97996 84.9961 7.76466 85.2876C7.65844 85.4304 7.55223 85.5704 7.44601 85.7133C7.34554 85.859 7.24793 86.0019 7.15033 86.1476C6.95225 86.4333 6.75417 86.7191 6.55609 87.0048C6.14558 87.5648 5.79536 88.1649 5.43078 88.7792C5.27576 89.0506 5.11787 89.3278 4.98582 89.6164C4.85377 89.905 4.72459 90.1936 4.58392 90.4736C4.08442 91.4251 3.65956 92.408 3.20886 93.3795C3.00791 93.8738 2.80696 94.3681 2.60314 94.8624C2.39645 95.3539 2.24143 95.8625 2.06057 96.3625C1.98881 96.5739 1.91991 96.7854 1.85388 96.9939L1.68738 97.634C1.57543 98.0597 1.46634 98.4883 1.35151 98.9283C1.01851 100.291 0.696991 101.674 0.484559 103.091C0.246291 104.503 0.0970145 105.943 0.0309884 107.4C-0.0292963 108.863 -0.0206842 110.323 0.231938 111.883L0.341024 112.478C0.378343 112.672 0.427145 112.823 0.467335 112.998C0.553456 113.335 0.642448 113.675 0.728569 114.012C0.906552 114.686 1.08454 115.355 1.25965 116.021C1.42902 116.729 1.69312 117.421 1.92278 118.121C2.15818 118.821 2.39645 119.524 2.63184 120.23L2.72084 120.492L2.82705 120.752L3.03948 121.27L3.46148 122.304L3.88347 123.338C4.02701 123.681 4.15332 124.03 4.32556 124.361C4.64995 125.033 4.97147 125.698 5.29299 126.361C5.45374 126.693 5.60876 127.027 5.77526 127.353C5.95612 127.673 6.13697 127.99 6.31495 128.307C6.67092 128.941 7.02402 129.573 7.37424 130.196C7.74744 130.804 8.14359 131.39 8.51678 131.982C9.26029 133.222 10.1961 134.299 11.0344 135.362C11.2382 135.633 11.4793 135.87 11.7033 136.113C11.93 136.356 12.154 136.593 12.375 136.83C12.5961 137.065 12.8142 137.296 13.0267 137.525C13.1329 137.639 13.2391 137.751 13.3453 137.862C13.4573 137.968 13.5692 138.071 13.6783 138.173C14.2467 138.702 14.7749 139.193 15.283 139.668C15.5299 139.911 15.8026 140.116 16.0639 140.328C16.3251 140.536 16.5835 140.745 16.8389 140.948C17.0944 141.154 17.3499 141.356 17.6054 141.559C17.8552 141.771 18.1394 141.939 18.4064 142.131C18.9518 142.502 19.5087 142.882 20.0943 143.282C20.8436 143.722 21.6158 144.177 22.388 144.631C23.1832 145.042 23.987 145.44 24.765 145.825C27.9428 147.288 31.2326 148.197 34.5282 148.897C36.1186 149.225 37.818 149.546 39.4371 149.723C39.8419 149.768 40.2409 149.811 40.6313 149.854C41.0217 149.88 41.4035 149.903 41.7739 149.928C42.5116 149.98 43.2063 149.98 43.8235 149.966C45.9708 150.04 48.3133 150.16 50.7104 150.023C52.7285 149.903 54.4624 149.397 54.6059 148.765C54.6317 148.574 54.2959 148.351 54.2959 148.085C54.3016 147.734 54.181 147.18 53.8136 146.963C53.7102 146.903 53.3543 146.925 53.1304 146.84C52.8462 146.734 52.9208 146.642 52.6452 146.6C52.1658 146.52 51.5314 146.625 50.4577 146.637C50.0357 146.637 49.6453 146.631 49.252 146.631C48.8616 146.622 48.4683 146.62 48.0463 146.631C46.2694 146.66 44.5211 146.602 42.7786 146.491C41.9088 146.414 41.0361 146.36 40.1663 146.242C39.7328 146.185 39.2907 146.154 38.8572 146.082C38.4209 146.017 37.9817 145.951 37.5424 145.882C31.3159 144.905 25.2673 142.354 20.1489 138.562C19.7498 138.242 19.3451 137.919 18.9374 137.591C18.5298 137.262 18.1107 136.939 17.7346 136.559C16.9653 135.825 16.1557 135.108 15.4524 134.276C15.0907 133.873 14.7261 133.467 14.3615 133.065C14.0285 132.633 13.6955 132.205 13.3654 131.776C13.1989 131.562 13.0353 131.347 12.8716 131.133C12.708 130.919 12.5386 130.71 12.398 130.479C12.1023 130.03 11.8095 129.582 11.5167 129.139C11.2813 128.767 11.02 128.413 10.7961 128.03C10.5779 127.644 10.3569 127.259 10.1387 126.873C9.91769 126.487 9.69377 126.104 9.47273 125.718L9.30623 125.43L9.15982 125.13L8.86414 124.527L8.2699 123.324L7.97135 122.721L7.82207 122.421L7.69289 122.11C7.35128 121.278 7.00679 120.447 6.66518 119.615C6.48433 119.204 6.34366 118.775 6.203 118.347L5.77813 117.067C5.63747 116.638 5.49968 116.212 5.35901 115.786C5.21548 115.361 5.12935 114.918 5.01453 114.486C4.79635 113.615 4.58679 112.749 4.38584 111.883C4.32556 111.652 4.30546 111.48 4.27963 111.3L4.23944 111.029L4.21647 110.735C4.20212 110.538 4.18202 110.346 4.17628 110.146L4.16767 109.538C4.13609 109.295 4.13035 109.046 4.11887 108.806C4.11313 108.563 4.0959 108.326 4.10164 108.086C4.11887 107.603 4.116 107.135 4.1648 106.657C4.20499 106.18 4.24231 105.703 4.31408 105.212C4.34565 104.966 4.37723 104.717 4.40881 104.463C4.449 104.209 4.48919 103.951 4.52938 103.689C4.6155 103.049 4.66717 102.369 4.79635 101.7C4.86238 101.311 4.98295 100.926 5.07768 100.534C5.17816 100.146 5.27863 99.7541 5.40207 99.3684C5.5169 98.9826 5.62886 98.594 5.72646 98.2054C5.84416 97.8226 5.9475 97.4397 6.03363 97.0568C6.10826 96.8625 6.17716 96.6625 6.25467 96.4682C6.33792 96.2739 6.4183 96.0796 6.50155 95.8853C6.66805 95.4967 6.82307 95.1024 7.00105 94.7138C7.37424 93.9481 7.71299 93.1594 8.13498 92.408C8.91294 90.8707 9.85453 89.4164 10.8047 87.9877C12.7798 85.179 15.0763 82.676 17.416 80.6187C17.6858 80.4273 17.9614 80.2187 18.2399 79.9958C18.5154 79.7701 18.8312 79.5701 19.1298 79.3444C19.7441 78.9072 20.3498 78.3957 21.0244 77.9757C21.3574 77.7586 21.6904 77.5385 22.0206 77.3214C22.1871 77.2128 22.3536 77.1071 22.5172 77.0014C22.6837 76.8985 22.8588 76.8099 23.0282 76.7156C23.7114 76.3499 24.3832 76.0127 25.0233 75.7413C25.4109 75.5699 25.3764 75.4584 25.7238 75.2927C26.3151 75.027 26.9094 74.7527 27.5007 74.4727C28.1093 74.2241 28.7237 73.9726 29.338 73.7212C29.6451 73.5926 29.9523 73.464 30.2624 73.3326C30.5781 73.2183 30.8939 73.1069 31.2126 72.9926C31.847 72.7611 32.4814 72.5297 33.1187 72.2983C33.7646 72.0897 34.422 71.8982 35.0736 71.6982C35.7282 71.5011 36.3798 71.2839 37.0516 71.1382C38.3893 70.821 39.7213 70.461 41.0849 70.2581C41.5212 70.1838 41.9691 70.121 42.414 70.0553C42.8619 69.9953 43.3011 69.9124 43.7374 69.8638C44.1594 69.8067 44.5498 69.6981 44.9747 69.6467C45.4656 69.5867 46.0081 69.5695 46.5163 69.5124C46.7517 69.4867 46.9842 69.4552 47.211 69.4209L46.967 69.4295C47.0961 69.4295 47.3114 69.4352 47.4923 69.4409C47.6846 69.4495 47.877 69.4581 48.0664 69.4667C48.4511 69.4924 48.8329 69.5267 49.2118 69.5895C50.7993 69.8467 52.3581 70.3096 53.8911 70.7496C54.3935 70.8953 54.9044 71.0182 55.4154 71.161C55.6709 71.2296 55.9293 71.2925 56.1819 71.3696C56.4345 71.4496 56.6872 71.5296 56.9398 71.6182C57.1034 71.7325 57.2986 71.8239 57.511 71.9211C57.7235 72.0211 57.956 72.1125 58.1971 72.2068C58.4383 72.304 58.6966 72.3954 58.9464 72.5097C59.1962 72.6268 59.443 72.7554 59.6784 72.8983C59.9052 72.9754 60.1406 73.0583 60.3789 73.1583C60.6143 73.264 60.8583 73.3783 61.1052 73.5012C61.352 73.624 61.6047 73.7498 61.8573 73.8841C62.1042 74.0269 62.3568 74.1726 62.6065 74.3212C62.8592 74.4698 63.1089 74.6155 63.3615 74.7641C63.6055 74.9184 63.8496 75.0727 64.0907 75.2241C64.5758 75.5184 65.0438 75.8013 65.4801 76.0642C65.7815 76.3242 66.1117 76.5528 66.4475 76.7785C66.7719 77.0185 67.1078 77.2585 67.4322 77.5214L67.9547 77.95C68.1212 78.1043 68.2877 78.2557 68.4542 78.41C68.7872 78.7186 69.123 79.0272 69.4761 79.3272C72.387 81.9931 74.9333 85.1104 77.0462 88.562C77.25 88.8992 77.5256 89.2335 77.7352 89.5878C78.0193 90.0421 78.1945 90.5564 78.4442 91.045C78.605 91.3593 78.7772 91.6708 78.9495 91.9822L79.2136 92.448L79.4604 92.928C79.7877 93.568 80.1236 94.2138 80.4451 94.8738C80.8269 95.7453 81.18 96.6396 81.5331 97.5254C81.8546 98.4283 82.1388 99.3398 82.4345 100.231C82.9512 102.04 83.4392 103.811 83.7981 105.432C84.1942 107.157 84.5416 108.975 84.6191 110.658C84.6449 111.015 84.5732 111.34 84.5789 111.758C84.5933 112.209 84.6105 112.675 84.6248 113.135C84.6363 113.366 84.6449 113.598 84.6564 113.823C84.6564 114.049 84.6564 114.272 84.6593 114.489C84.4842 116.795 84.1799 119.395 83.5225 121.624C82.9254 123.727 81.8402 125.893 80.824 127.756C80.6948 127.99 80.6231 128.264 80.4795 128.501C80.3532 128.696 80.1035 128.936 79.9772 129.121C79.7188 129.499 79.4547 129.979 79.1619 130.402C78.0653 131.939 77.1409 132.902 76.2654 134.07C75.6453 134.582 75.0855 135.213 74.5142 135.828C73.9372 136.436 73.3458 137.022 72.6827 137.402C72.3411 137.919 71.6607 138.291 71.1067 138.733C70.7622 139.011 70.4579 139.354 70.0876 139.642C69.5307 140.082 68.8216 140.525 68.2245 140.948C66.8954 141.879 65.6265 142.788 64.4955 143.517C63.7634 143.985 62.9912 144.411 62.3223 144.845C62.13 145.148 61.5817 145.505 60.9932 145.854C60.4018 146.202 59.7703 146.545 59.4115 146.851C59.3598 147.054 60.0947 146.68 60.0602 146.868C59.776 147.145 58.8718 147.477 58.7455 147.728C58.7742 147.851 59.1474 147.728 59.2938 147.763C58.0594 148.303 58.2086 148.431 57.778 148.845C57.3675 149.237 56.8192 149.514 57.0632 149.76C56.7618 149.951 56.4116 150.14 56.0814 150.326C55.9149 150.417 55.7542 150.511 55.6049 150.6C55.5303 150.648 55.4585 150.691 55.3896 150.737C55.3552 150.76 55.3207 150.783 55.2891 150.806L55.2375 150.84L55.226 150.848L55.2202 150.854L55.1944 150.863L55.0882 150.9C55.1312 150.891 55.1772 150.883 55.2174 150.871C55.2403 150.868 55.2432 150.871 55.2547 150.868C55.2748 150.868 55.2949 150.868 55.315 150.866C55.3523 150.866 55.3867 150.866 55.4183 150.866C55.4815 150.868 55.5331 150.88 55.5762 150.891C55.6652 150.917 55.7283 150.96 55.7915 151C57.1723 150.568 58.6622 150.137 59.7043 149.694H59.7244Z" fill="#024089"/>
<path id="Vector_23" d="M66.8219 67.2957C66.8219 67.2957 30.9209 46.8317 12.1006 78.3135C-6.71973 109.798 13.5245 131.362 13.5245 131.362C47.6858 159.541 73.8752 138.023 78.0521 131.362C102.723 92.0085 66.8219 67.2928 66.8219 67.2928V67.2957ZM24.5939 80.0479C37.535 65.5556 57.6472 74.2247 57.6472 74.2247L17.0038 116.881C17.0038 116.881 9.41075 97.046 24.5939 80.045V80.0479ZM72.5145 120.662C60.337 140.34 36.4556 136.088 23.4858 125.856L66.3454 81.3079C66.3454 81.3079 84.692 100.986 72.5145 120.662Z" fill="#F18700"/>
</g>
<defs>
<clipPath id="clip0_3956_14593">
<rect width="173" height="151" fill="white"/>
</clipPath>
</defs>
</svg>
