<svg width="178" height="178" viewBox="0 0 178 178" fill="none" xmlns="http://www.w3.org/2000/svg">
<g id="icon 2" clip-path="url(#clip0_3956_14627)">
<path id="Vector" d="M124.001 2.10659C103.368 -2.82258 90.6367 14.6551 90.6367 14.6551C97.2315 22.9681 123.776 18.9244 134.12 9.17606L133.826 11.3107C130.53 26.916 154.858 44.7603 154.773 32.8096C154.727 26.3746 147.919 17.2297 142.441 12.7376C136.963 8.24549 134.538 4.62757 123.998 2.10941L124.001 2.10659Z" fill="#2581C4"/>
<path id="Vector_2" d="M73.0086 87.324V82.9277C73.0086 82.9277 107.47 87.9923 113.181 99.6102C118.893 111.231 114.848 112.212 114.848 112.212L110.048 114.234L109.86 125.858L76.3729 125.435L77.3215 137.487L81.4151 143.775L101.023 146.767L100.294 151.392L90.816 162.736L83.9163 160.616L73.0114 153.904L63.1776 145.425L63.0238 140.087L70.6384 132.177L67.3681 128.142L53.7227 133.985C53.7227 133.985 68.0632 117.102 73.0114 87.3268L73.0086 87.324Z" fill="#A2D3F3"/>
<path id="Vector_3" d="M68.3281 128.83C68.3281 128.83 76.655 109.92 76.655 101.48C76.655 101.48 97.7299 95.7472 105.128 110.397C105.128 110.397 107.829 115.842 97.0661 125.221L77.5295 124.369L75.0369 129.625C75.0369 129.625 72.2366 131.692 68.3281 128.827V128.83Z" fill="#F18700"/>
<path id="Vector_4" d="M97.8868 55.9447C98.0691 56.2718 98.2742 56.489 98.485 56.7315C98.6503 56.9289 98.7614 57.1432 98.8497 57.3744C98.9465 57.6 99.0348 57.8369 99.163 58.0484C99.3567 58.3473 99.4992 58.7195 99.7413 58.9874L99.955 59.244L100.177 59.4978C100.325 59.667 100.448 59.8559 100.587 60.0336C100.795 60.3071 101.029 60.5609 101.314 60.7611C101.59 60.9669 101.866 61.1615 102.154 61.3335C102.362 61.4604 102.536 61.6353 102.727 61.7847C102.921 61.9314 103.114 62.0808 103.328 62.1964C103.53 62.3149 103.789 62.3543 103.997 62.4474C104.16 62.5151 104.322 62.5827 104.487 62.6504C104.653 62.7153 104.823 62.7576 104.992 62.8112C105.336 62.9099 105.67 63.017 106.077 63.0762C106.359 63.1298 106.649 63.1129 106.926 63.1467C107.561 63.2031 108.182 63.3075 108.795 63.237C109.017 63.2116 109.228 63.0819 109.438 63.0678C109.564 63.0593 109.698 63.0903 109.823 63.0678C109.945 63.048 110.077 63.0988 110.202 63.0847C110.259 63.079 110.299 63.0057 110.353 62.9888C110.529 62.9268 110.729 62.9493 110.908 62.9127C110.985 62.8986 111.042 62.8253 111.116 62.8027C111.572 62.6532 112.108 62.6645 112.541 62.4587C112.996 62.2444 113.452 61.9934 113.919 61.8919C114.162 61.8383 114.33 61.6606 114.489 61.5422C114.697 61.3899 114.842 61.2715 115.005 61.0967C115.105 60.9867 115.21 60.8767 115.298 60.7555C115.478 60.5101 115.572 60.1633 115.731 59.9264C115.888 59.698 116.113 59.5119 116.13 59.2102C116.224 59.0551 116.432 59.0184 116.58 58.8943C116.706 58.79 116.654 58.4995 116.273 58.0455C116.15 57.9017 115.951 57.71 115.777 57.5098C115.546 57.2475 115.167 56.8189 114.973 56.6243C114.919 56.5736 114.888 56.5595 114.805 56.489C114.703 56.3959 114.652 56.3282 114.592 56.2803C114.486 56.1985 114.484 56.2577 114.395 56.2521C114.324 56.2521 114.258 56.2408 114.219 56.2775C114.05 56.4382 113.905 56.6271 113.774 56.8668C113.543 57.2926 113.156 57.5295 112.831 57.8594C112.62 58.0737 112.313 58.1781 112.028 58.2627C111.564 58.4008 111.207 58.8661 110.655 58.6941C110.552 58.8182 110.41 58.759 110.276 58.7928C110.236 58.8041 110.219 58.9028 110.176 58.9169C110.077 58.9479 109.945 58.8577 109.888 59.0466C109.418 58.9423 109.008 59.0466 108.649 59.2637C108.487 59.0917 108.276 59.4442 108.119 59.1566C108.097 59.1425 108.091 59.2581 108.068 59.2581C107.783 59.134 107.453 59.3793 107.137 59.3399C107.088 59.3314 107.051 59.2637 107 59.2694C106.974 59.2694 106.937 59.3258 106.914 59.3201C106.886 59.3145 106.869 59.2637 106.843 59.2525C106.789 59.2271 106.687 59.3173 106.63 59.2891C106.536 59.2412 106.467 59.1227 106.367 59.1002C106.302 59.0833 106.194 59.1791 106.117 59.1848C106.14 58.9987 105.991 59.165 105.977 59.0212C105.778 59.1735 105.721 58.8915 105.521 58.9987C105.51 58.9084 105.425 58.9648 105.379 58.931C105.333 58.8915 105.316 58.8097 105.262 58.7872C105.034 58.6828 104.838 58.5221 104.621 58.3952C104.598 58.3839 104.539 58.4206 104.516 58.4037C104.487 58.3839 104.507 58.305 104.482 58.2824C104.416 58.2232 104.265 58.2655 104.174 58.2288C103.932 58.1358 103.824 57.8876 103.661 57.7494C103.57 57.6818 103.413 57.6592 103.371 57.5521C103.362 57.5295 103.41 57.4618 103.402 57.4336C103.382 57.3744 103.294 57.3659 103.231 57.3434C103.214 57.1657 103.012 57.1037 102.926 56.974C102.844 56.8555 102.866 56.6525 102.758 56.5566C102.744 56.5454 102.673 56.5679 102.664 56.5482C102.658 56.5341 102.721 56.472 102.721 56.4551C102.721 56.4213 102.656 56.4156 102.638 56.3874C102.57 56.2831 102.593 56.1759 102.416 56.159C102.57 55.9701 102.106 56.0603 102.305 55.8573C102.126 55.8968 102.231 55.7924 102.197 55.7586C102.174 55.736 102.074 55.7473 102.043 55.7276C101.995 55.6966 102 55.6345 101.958 55.6007C101.864 55.5246 101.684 55.4794 101.55 55.4287C101.462 55.3977 101.416 55.3497 101.302 55.3272C100.924 55.4033 100.904 55.2595 100.602 55.2792C100.434 55.3159 100.513 55.3582 100.354 55.3977C100.209 55.4089 100.22 55.3272 100.032 55.361C99.9094 55.392 99.8952 55.4287 99.8125 55.4625C99.7385 55.3666 99.559 55.423 99.314 55.4343C99.0804 55.4456 98.9864 55.4033 98.6788 55.4907C98.5904 55.4738 98.5135 55.4512 98.4281 55.4287C98.3455 55.4118 98.2486 55.3554 98.1318 55.3384C98.0805 55.4033 97.9694 55.4428 97.8555 55.4823C97.9067 55.6712 97.8327 55.846 97.8925 55.9504L97.8868 55.9447Z" fill="#024089"/>
<path id="Vector_5" d="M107.119 33.5769C106.822 34.6682 106.364 35.7821 106.287 36.8818C106.27 37.1413 106.19 37.3894 106.07 37.6207C105.657 38.4187 105.107 39.3972 105.646 40.2291C105.734 40.3644 105.785 40.5195 105.825 40.6746C105.885 40.9143 106.047 41.1201 106.272 41.2922C107.386 42.1438 109.027 41.5572 109.437 40.2234C109.694 39.3831 110.058 38.5851 110.178 37.9196C110.192 37.8462 110.198 37.7729 110.201 37.6968C110.281 36.1825 110.685 34.7754 110.993 33.4388C111.101 33.0891 110.742 32.7028 110.204 32.3587C109.036 31.6115 107.48 32.2488 107.121 33.5769H107.119Z" fill="#024089"/>
<path id="Vector_6" d="M115.064 37.366C114.768 38.4573 114.309 39.5711 114.232 40.6709C114.215 40.9303 114.135 41.1785 114.015 41.4097C113.602 42.2077 113.053 43.1863 113.591 44.0181C113.679 44.1535 113.731 44.3086 113.771 44.4637C113.83 44.7033 113.993 44.9092 114.218 45.0812C115.332 45.9328 116.972 45.3463 117.383 44.0125C117.639 43.1722 118.004 42.3741 118.123 41.7086C118.138 41.6353 118.143 41.562 118.146 41.4859C118.226 39.9716 118.63 38.5644 118.938 37.2278C119.046 36.8782 118.687 36.4918 118.149 36.1478C116.981 35.4005 115.426 36.0378 115.067 37.366H115.064Z" fill="#024089"/>
<path id="Vector_7" d="M177.938 130.93C177.916 130.603 177.833 130.276 177.81 129.937C177.793 129.658 177.85 129.244 177.839 128.97C177.804 128.415 177.699 127.755 177.619 127.137C177.349 124.867 177.144 123.265 176.651 121.59C176.491 119.67 175.537 117.696 175.312 115.917C174.947 115.288 174.828 114.388 174.56 113.596C174.392 113.103 174.144 112.626 173.947 112.113C173.66 111.332 173.363 110.398 173.05 109.603C172.352 107.838 171.54 106.214 170.842 104.826C170.392 103.927 169.959 103.007 169.492 102.221C168.859 101.733 167.931 99.6827 167.204 98.9128C166.988 98.8621 167.455 99.6629 167.256 99.6291C166.945 99.3161 166.498 98.3376 166.216 98.2163C166.093 98.253 166.27 98.6506 166.25 98.8142C165.538 97.5057 165.413 97.6862 164.923 97.2632C164.455 96.8656 164.071 96.3298 163.868 96.6231C163.376 96.0563 162.814 95.2949 162.376 94.9876C162.47 95.2724 162.424 95.4303 162.367 95.5628C163.096 96.8149 163.755 98.3207 164.313 99.3612C166.065 102.649 167.421 105.427 168.763 108.557C170.919 113.624 172.486 119.256 173.412 124.833C174.098 128.846 174.289 133.318 173.919 137.204C173.702 139.641 173.224 142.063 172.437 144.375C172.039 145.528 171.571 146.659 171.022 147.748C170.463 148.831 169.831 149.871 169.13 150.867C168.848 151.233 168.583 151.608 168.293 151.969L167.851 152.502L167.632 152.77L167.392 153.035L166.911 153.568L166.723 153.777C166.666 153.827 166.623 153.875 166.555 153.935C166.415 154.05 166.284 154.171 166.116 154.287C165.959 154.405 165.806 154.524 165.626 154.631C165.45 154.738 165.29 154.859 165.102 154.955L164.546 155.254C164.367 155.361 164.156 155.432 163.965 155.522C163.769 155.607 163.578 155.703 163.376 155.779C162.96 155.914 162.558 156.078 162.134 156.199L160.846 156.529C159.097 156.901 157.262 156.986 155.431 156.974C154.969 156.941 154.508 156.91 154.049 156.876C153.587 156.839 153.129 156.828 152.667 156.743C152.209 156.675 151.747 156.608 151.289 156.54L150.602 156.439L149.918 156.286C149.255 156.137 148.588 155.985 147.921 155.835C147.26 155.66 146.602 155.443 145.944 155.246C144.654 154.871 143.241 154.363 141.871 153.92C139.116 153.012 136.353 152.167 133.592 151.397C130.943 150.655 128.04 149.936 125.365 149.273C121.249 148.247 117.107 147.285 112.831 146.442C110.694 146.022 108.523 145.627 106.304 145.283C105.752 145.19 105.188 145.122 104.626 145.041C104.065 144.959 103.501 144.883 102.928 144.815C101.789 144.68 100.638 144.564 99.4758 144.471C96.1599 144.206 92.824 144.144 89.5224 144.186C89.0295 144.192 88.6165 144.2 88.1778 144.189C87.7448 144.181 87.3146 144.161 86.8901 144.127C86.0384 144.062 85.2094 143.944 84.4203 143.76C82.8449 143.397 81.4519 142.728 80.6457 141.775C80.2469 141.296 79.9592 140.752 79.8053 140.114L79.7768 139.996L79.7626 139.937L79.7455 139.855L79.6771 139.525L79.5404 138.865L79.2755 137.545C78.9308 135.786 78.6203 134.023 78.3525 132.261C78.1588 130.981 77.9622 129.681 77.8397 128.46L77.8312 128.353V128.341C77.8312 128.341 77.8312 128.333 77.8312 128.347C77.8312 128.367 77.8312 128.389 77.8312 128.372V128.33L77.834 128.268C77.8397 128.186 77.8483 128.087 77.871 127.997C77.8995 127.808 77.9708 127.636 78.042 127.47C78.193 127.143 78.418 126.889 78.7285 126.689C79.0989 126.449 79.5945 126.28 80.1757 126.204C80.3124 126.173 80.4776 126.184 80.6286 126.167C80.7853 126.161 80.9277 126.136 81.093 126.145L81.583 126.161C81.751 126.167 81.8963 126.164 82.1071 126.181C83.6625 126.288 85.1268 126.449 86.6736 126.545C87.3573 126.587 88.0553 126.568 88.7361 126.599C91.0721 126.709 93.3995 126.889 95.7098 127.022C96.6812 127.078 97.6213 127.069 98.6098 127.117C102.27 127.289 106.034 127.532 109.768 127.749L111.953 127.876L111.777 125.654C111.734 125.107 111.7 124.486 111.683 123.9C111.663 123.305 111.657 122.713 111.663 122.126C111.671 120.95 111.734 119.794 111.859 118.686C111.945 117.956 112.064 117.239 112.238 116.568C112.409 115.9 112.64 115.277 112.916 114.814C112.982 114.687 113.059 114.611 113.124 114.504C113.158 114.456 113.195 114.428 113.229 114.388C113.264 114.355 113.295 114.298 113.329 114.281C113.398 114.239 113.455 114.16 113.514 114.143C113.543 114.129 113.568 114.104 113.597 114.09C113.628 114.084 113.657 114.075 113.685 114.061C113.7 114.056 113.714 114.047 113.725 114.039H113.776C113.811 114.033 113.842 114.025 113.876 114.013C113.956 114.013 114.041 114.013 114.133 114.011C114.241 114.036 114.346 114.042 114.454 114.064C114.566 114.104 114.679 114.129 114.791 114.166C115.226 114.332 115.637 114.628 116.021 115.054C116.406 115.477 116.742 116.024 117.03 116.622C117.317 117.22 117.554 117.868 117.756 118.534C117.95 119.205 118.107 119.89 118.232 120.578C118.474 121.926 118.648 123.285 118.765 124.602C118.824 125.259 118.867 125.908 118.898 126.539C118.913 126.855 118.924 127.165 118.933 127.47C118.938 127.769 118.941 128.085 118.941 128.338L118.924 130.05L120.565 130.31C120.724 130.335 120.873 130.357 121.018 130.38C124.345 130.91 126.795 131.296 129.849 131.745C131.723 132.018 133.712 132.306 135.598 132.58C137.489 132.845 139.364 133.073 141.227 133.301C142.158 133.417 143.087 133.533 144.016 133.648L144.711 133.739L145.058 133.784L145.238 133.806L145.5 133.829C146.198 133.882 146.924 133.73 147.54 133.4C148.132 133.081 148.631 132.596 148.972 132.016C149.314 131.435 149.494 130.747 149.465 130.067C149.448 129.898 149.434 129.729 149.405 129.565C149.368 129.41 149.323 129.227 149.283 129.094C149.212 128.874 149.138 128.657 149.066 128.44C148.921 128.006 148.776 127.571 148.636 127.146C148.064 125.442 147.508 123.844 146.995 122.575C146.229 120.319 145.56 117.809 144.779 115.274C144.121 113.142 143.304 111.354 142.651 111.261C142.446 111.233 142.287 111.659 142.016 111.684C141.66 111.715 141.116 111.915 140.976 112.383C140.939 112.51 141.036 112.933 141.005 113.204C140.965 113.551 140.856 113.48 140.879 113.81C140.919 114.386 141.184 115.102 141.503 116.334C141.751 117.301 141.953 118.128 142.255 119.084C142.885 121.088 143.511 123.051 144.15 125.011C144.471 125.989 144.793 126.968 145.118 127.955C145.283 128.446 145.449 128.939 145.614 129.433C145.696 129.675 145.776 129.918 145.859 130.16C145.862 130.171 145.87 130.171 145.896 130.169H145.902C145.913 130.174 145.899 130.169 145.91 130.177C145.91 130.18 145.907 130.183 145.91 130.191C145.904 130.214 145.893 130.236 145.887 130.25C145.884 130.262 145.882 130.259 145.876 130.273C145.87 130.273 145.867 130.273 145.859 130.281C145.853 130.281 145.85 130.279 145.845 130.281H145.836C145.836 130.281 145.842 130.29 145.802 130.281L144.4 130.07C142.532 129.777 140.651 129.483 138.771 129.19C135.008 128.592 131.228 127.977 127.445 127.397C125.989 127.174 124.488 126.931 122.958 126.675C122.952 126.469 122.952 126.266 122.944 126.06C122.918 125.27 122.872 124.478 122.804 123.686C122.67 122.101 122.454 120.513 122.103 118.948C121.855 117.846 121.525 116.729 121.052 115.612C120.574 114.501 119.955 113.37 119.015 112.33C118.562 111.867 118.069 111.416 117.474 111.05C117.485 110.9 117.5 110.731 117.525 110.531C117.551 110.314 117.588 110.113 117.602 109.913C117.614 109.71 117.619 109.507 117.608 109.29C117.511 107.454 117.141 105.675 116.423 103.975C115.181 100.966 113.329 98.2276 111.042 96.0591C109.572 94.6717 107.911 93.2364 106.253 92.0436C104.883 91.0482 103.387 90.2107 101.889 89.4352C100.869 88.9079 99.8461 88.4003 98.8462 87.8814C98.9858 87.4782 99.0912 87.0693 99.1596 86.6802C99.4815 86.3841 99.3505 85.7496 99.7721 85.4732C99.8063 85.4197 99.698 85.3745 99.7208 85.321C100.12 84.6527 100.142 83.7926 100.422 83.0425C100.467 82.9212 100.567 82.8169 100.598 82.6928C100.615 82.6336 100.578 82.5547 100.598 82.4983C100.624 82.4306 100.695 82.3742 100.726 82.3093C100.795 82.1683 100.735 81.9822 100.798 81.8497C100.897 81.6297 101.071 81.4408 101.151 81.218C101.202 81.0714 101.142 80.8796 101.174 80.7217C101.39 80.6851 101.256 80.4482 101.433 80.341C101.325 79.997 101.692 79.7122 101.635 79.3682C101.752 79.2864 101.712 79.1454 101.772 79.0354C101.835 78.917 101.937 78.8155 101.983 78.6829C102.065 78.4376 102.165 78.1979 102.265 77.9582C104.658 78.7647 107.122 79.3541 109.6 79.7714C112.759 80.2959 115.936 80.53 119.092 80.4228C122.246 80.31 125.379 79.8758 128.433 79.0918C130.664 78.5109 132.8 77.6678 134.857 76.8021C135.47 76.5342 136.093 76.2917 136.692 75.9956C137.296 75.708 137.905 75.4316 138.489 75.0932C139.07 74.7718 139.649 74.4785 140.201 74.1457C140.762 73.8215 141.326 73.5028 141.871 73.1165C142.355 72.7837 142.819 72.4087 143.272 72.0393C144.873 70.8352 146.406 69.5352 147.802 68.1168C148.092 67.8151 148.374 67.5162 148.639 67.2003C148.898 66.8789 149.158 66.5574 149.434 66.2331C151.12 64.2197 152.664 61.9977 153.929 59.6177C155.2 57.2405 156.185 54.7082 156.818 52.1619C157.493 49.4689 157.866 46.6321 157.935 43.8347C157.983 41.9567 157.898 40.0984 157.712 38.3021C157.718 38.3021 157.724 38.3021 157.727 38.3021C158.108 38.3077 158.379 38.3923 158.675 38.2429C158.994 38.4685 159.356 38.0145 159.658 38.2795C159.775 38.0991 159.929 38.2344 160.068 38.2119C160.157 38.2006 160.245 38.1019 160.336 38.0793C160.476 38.0427 160.641 38.0709 160.786 38.037C161.105 37.9665 161.401 37.8002 161.655 37.6789C161.82 37.6 161.988 37.5605 162.134 37.4477C162.225 37.0585 162.601 37.0614 162.74 36.7483C162.749 36.5763 162.601 36.6553 162.607 36.4917C162.663 36.3451 162.843 36.362 162.86 36.1674C162.852 36.0434 162.777 36.0265 162.749 35.939C162.985 35.8714 162.951 35.6881 163.02 35.4399C163.085 35.2059 163.179 35.1128 163.116 34.7998C163.205 34.625 163.347 34.4924 163.359 34.2697C163.33 34.2104 163.285 34.0976 163.265 33.9849C163.065 34.0215 162.797 33.9313 162.621 33.9764C162.057 34.1174 161.575 34.2697 161.04 34.4022C160.171 34.6193 159.231 34.4896 158.313 34.4981C157.935 34.5009 157.536 34.4699 157.14 34.4417C156.69 32.2647 156.006 30.2457 155.328 28.503C155.083 27.829 154.81 27.2171 154.55 26.6306C154.419 26.3373 154.302 26.0469 154.166 25.7677C154.029 25.4913 153.892 25.2178 153.758 24.9443C153.622 24.6736 153.488 24.4029 153.354 24.1322C153.206 23.8671 153.06 23.6048 152.912 23.3369C152.613 22.804 152.314 22.2569 151.955 21.7099C151.741 21.3687 151.525 21.0246 151.306 20.675C151.078 20.3338 150.838 19.9954 150.602 19.6542C150.14 18.9661 149.622 18.3147 149.129 17.6774C147.121 15.1339 144.771 12.9936 142.335 11.0056C142.039 10.7687 141.751 10.5149 141.438 10.2837C141.127 10.0496 140.814 9.81557 140.5 9.58152L140.03 9.22903L139.546 8.8991C139.224 8.68197 138.902 8.46484 138.586 8.25335C137.948 7.836 137.301 7.47506 136.703 7.12539C136.091 6.8011 135.504 6.52193 134.977 6.28224C133.176 5.3827 131.222 4.376 129.097 3.63154C127.305 3.00835 125.624 2.88145 125.271 3.38621C125.157 3.54977 125.379 3.89379 125.271 4.13912C125.129 4.46059 125.02 5.02457 125.263 5.3686C125.328 5.46165 125.647 5.58009 125.809 5.73236C126.015 5.92976 125.915 5.98897 126.137 6.12433C126.234 6.18355 126.342 6.2343 126.462 6.28506C126.581 6.34146 126.718 6.39504 126.869 6.45144C127.174 6.56423 127.544 6.68831 128 6.86878C128.356 7.00977 128.675 7.17615 129.003 7.31432C129.328 7.46378 129.658 7.58785 130.011 7.74013C130.419 7.92342 130.826 8.09543 131.231 8.27591C130.373 8.98652 129.382 9.58434 128.433 10.2498C127.727 10.749 126.866 11.1691 126.06 11.5554C124.721 12.1984 123.505 13.1825 122.046 13.5547C121.693 13.8339 121.314 13.9185 120.907 14.1215C120.821 14.1638 120.753 14.2484 120.682 14.3133C120.403 14.3951 120.092 14.4233 119.876 14.6601C119.534 14.7222 119.198 14.8152 118.853 14.8942C118.511 14.9731 118.169 15.069 117.836 15.1734C117.172 15.399 116.52 15.602 115.93 15.8558C115.79 15.8445 115.645 15.8671 115.497 15.9065C115.349 15.9432 115.198 15.9883 115.044 16.0362C114.736 16.1265 114.423 16.2083 114.124 16.1208C114.039 16.1265 114.056 16.2393 113.982 16.2562C113.463 16.2957 112.945 16.4 112.42 16.5466C111.896 16.6905 111.364 16.8004 110.825 16.8709C110.651 16.8935 110.469 16.8568 110.298 16.8766C110.216 16.8879 110.141 16.9527 110.059 16.9584C109.962 16.964 109.854 16.9245 109.754 16.9245C109.543 16.9245 109.347 17.057 109.147 17.0599C108.82 17.0627 108.495 16.964 108.176 16.9753C107.968 16.9809 107.754 17.1078 107.541 17.1388C107.39 16.9499 107.156 17.1473 106.939 17.0147C106.549 17.2206 106.022 16.9725 105.606 17.105C105.455 17.0147 105.287 17.0852 105.119 17.057C104.94 17.0232 104.766 16.9555 104.584 16.9386C104.19 16.8991 103.797 16.8371 103.404 16.7751C103.011 16.7017 102.621 16.62 102.219 16.5664C102.142 16.5551 102.043 16.6059 101.963 16.5861C101.86 16.5607 101.772 16.4621 101.666 16.4367C101.396 16.3634 101.088 16.4113 100.795 16.3831C100.419 16.3295 100.051 16.2167 99.6952 16.0983C99.3448 15.9742 99.0115 15.8332 98.6867 15.7486C98.342 15.6612 97.966 15.6104 97.6612 15.4553C97.5985 15.4215 97.5672 15.3228 97.4903 15.2833C97.3279 15.1987 97.1256 15.179 96.949 15.1452C96.5502 14.8857 96.0288 14.7617 95.5958 14.5671C95.1942 14.3782 94.821 14.0369 94.4222 13.8734C94.3709 13.8537 94.2883 13.8903 94.2399 13.8593C94.2 13.8339 94.1829 13.7268 94.1458 13.6986C94.0974 13.6563 94.0233 13.6422 93.9521 13.6196C94.5589 13.0895 95.1628 12.5791 95.7354 12.094C95.9263 11.9305 96.0773 11.7105 96.2824 11.547C96.459 11.4201 96.7638 11.2988 96.9376 11.1804C97.2965 10.9463 97.664 10.5741 98.0657 10.3147C98.4332 10.0694 98.7722 9.84095 99.0941 9.62663C99.4188 9.41796 99.7379 9.24031 100.034 9.05702C100.336 8.87936 100.612 8.68761 100.9 8.51842C101.185 8.3464 101.464 8.16875 101.743 7.97418C101.92 7.90932 102.091 7.836 102.262 7.75141C102.436 7.67809 102.609 7.59631 102.783 7.50889C103.128 7.33688 103.467 7.14231 103.806 6.95056C104.151 6.7729 104.498 6.60371 104.843 6.45708C105.188 6.30762 105.532 6.18637 105.885 6.13843C106.338 5.79158 107.039 5.65341 107.66 5.46447C108.048 5.33758 108.412 5.12045 108.822 4.98227C109.136 4.88922 109.481 4.80462 109.825 4.7172C110.173 4.63261 110.52 4.53955 110.851 4.47187C111.577 4.3055 112.281 4.10247 112.965 3.96993C113.306 3.89379 113.64 3.81766 113.964 3.74434C114.292 3.68794 114.608 3.63718 114.913 3.58361C115.702 3.43133 116.511 3.40595 117.24 3.2847C117.523 3.07321 118.121 3.01963 118.753 2.96041C119.388 2.88991 120.055 2.89555 120.482 2.78558C120.613 2.62766 119.847 2.62202 119.955 2.46693C120.311 2.35695 121.203 2.47257 121.422 2.30056C121.454 2.1793 121.092 2.1229 120.987 2.02139C121.619 2.04677 121.915 2.05805 122.126 1.99883C122.337 1.94807 122.457 1.85783 122.733 1.77888C123.254 1.62378 123.838 1.63788 123.756 1.30795C124.428 1.28258 125.254 1.33615 125.784 1.22618C125.505 1.1021 125.442 0.972387 125.382 0.839852C125.052 0.772175 124.716 0.696038 124.379 0.617081C124.043 0.535304 123.707 0.453527 123.371 0.397129C122.704 0.275874 122.072 0.146159 121.531 0.101041C119.83 -0.0286742 118.272 -0.0709726 116.759 0.0249037C116.38 0.0474629 116.007 0.070022 115.631 0.0925811C115.258 0.134879 114.887 0.177178 114.514 0.219476C114.141 0.267414 113.768 0.295613 113.395 0.360471C113.022 0.425328 112.645 0.487366 112.267 0.552223C109.817 0.994946 107.335 1.6266 104.917 2.49795C102.498 3.36929 100.142 4.48033 97.9603 5.82542C97.1655 6.29352 96.3935 6.83494 95.5987 7.3679C95.2084 7.64425 94.8267 7.9347 94.4393 8.21669C94.2484 8.3605 94.0518 8.5015 93.861 8.64813L93.3026 9.10213C92.203 9.97066 91.1689 10.9097 90.2117 11.8628C90.0494 11.8092 89.9041 11.7359 89.7303 11.7162C89.3942 11.9305 89.1064 11.6598 88.776 11.7613C88.6421 11.8713 88.8102 11.9333 88.6877 12.0405C88.5367 12.0969 88.4113 11.9418 88.2518 12.0574C88.1635 12.1476 88.2091 12.2181 88.1692 12.3027C87.9299 12.1533 87.8188 12.2999 87.5681 12.3958C87.3317 12.4888 87.175 12.455 86.9813 12.706C86.7505 12.7116 86.5483 12.6806 86.2634 12.6975C86.2976 12.8244 86.2235 12.9118 86.158 13.0133C86.4172 13.2587 86.5853 13.5688 86.7933 13.7155C87.175 13.9805 87.5282 14.192 87.8786 14.3894C86.836 15.6104 85.8532 16.8879 84.9359 18.216C83.6426 20.0856 82.4717 22.0454 81.4291 24.0673C79.8737 27.1494 78.6915 30.4177 77.9223 33.7536L77.6602 35.0085L77.5321 35.6373L77.4295 36.269C77.3611 36.6891 77.2956 37.1121 77.2272 37.5323C77.1788 37.9553 77.1304 38.3782 77.082 38.8012C76.9709 39.6444 76.9452 40.4932 76.8854 41.3363C76.8626 41.7593 76.8654 42.1823 76.8569 42.6024C76.8512 43.0254 76.8341 43.4456 76.8569 43.8657C76.8968 46.3219 77.1332 48.7977 77.6261 51.2313C78.116 53.6649 78.8624 56.0533 79.8794 58.3036C80.8508 60.4693 82.204 62.6801 83.6141 64.5891C87.3659 69.6988 92.5164 73.7876 98.6297 76.5201C98.5101 76.7654 98.3961 77.0136 98.3021 77.2674C98.1853 77.5888 98.1027 77.9554 97.9859 78.2741C97.6241 79.261 97.251 80.2508 96.8892 81.3308C96.761 81.7172 96.6613 82.1148 96.5245 82.4983C96.2112 83.3781 95.7896 84.193 95.4847 85.0587C95.3736 85.3746 95.3566 85.727 95.2227 86.0231C95.1999 86.0711 95.1742 86.119 95.1486 86.1641C95.046 86.1218 94.9406 86.0767 94.8324 86.0344C94.5447 85.9244 94.2114 85.8962 93.9094 85.7834C93.2086 85.5296 92.5078 85.1574 91.7558 85.0785C88.8472 83.8687 85.5 82.9946 82.6313 82.5349C81.4747 82.0725 79.7484 82.0696 78.5405 81.548C78.3496 81.5 78.3183 81.61 78.1445 81.579C77.3725 81.3929 76.572 81.2603 75.7601 81.1532C74.9397 81.0488 74.1364 80.9727 73.2561 80.905L71.0569 80.7387L70.9971 82.769C70.9743 83.5614 70.9458 84.3566 70.886 85.149C70.8518 85.5268 70.7464 85.9103 70.7179 86.2854C70.7036 86.4658 70.7464 86.6435 70.7236 86.8268C70.7008 87.0355 70.6267 87.2611 70.5954 87.4754C70.5327 87.9294 70.5726 88.3834 70.5014 88.812C70.376 89.5142 70.1909 90.1994 70.0598 90.8903C69.9801 91.3414 70.0171 91.8208 69.9601 92.2833C69.718 92.5794 69.812 93.1123 69.5869 93.5607C69.6069 93.9893 69.4958 94.4828 69.3761 94.9791C69.2451 95.4726 69.1027 95.9717 69.0827 96.4257C68.9203 96.7444 68.9232 97.1081 68.8149 97.4606C68.6924 97.8385 68.5272 98.2022 68.4218 98.597C68.3079 99.0172 68.1996 99.4373 68.0686 99.8547C67.9347 100.272 67.8036 100.689 67.6697 101.107C67.4134 101.947 67.1086 102.776 66.8436 103.625C66.7895 103.791 66.7952 103.989 66.7354 104.161C66.6528 104.381 66.5018 104.575 66.4163 104.801C66.1913 105.379 66.0916 106.013 65.8921 106.622C65.3822 108.207 64.6045 109.741 64.0405 111.095C63.7442 111.817 63.5049 112.601 63.1431 113.255C63.0662 113.393 62.9323 113.489 62.844 113.652C62.656 114.008 62.5306 114.422 62.3911 114.786C62.1204 115.229 61.884 115.725 61.6532 116.224C61.4168 116.72 61.1917 117.225 60.9553 117.688C60.5052 118.553 59.8756 119.442 59.4512 120.29C59.397 120.398 59.4056 120.539 59.3401 120.646C59.2888 120.733 59.1407 120.823 59.0837 120.908C58.9697 121.077 58.8957 121.317 58.7846 121.514C58.3715 122.245 58.0126 122.721 57.8131 123.347C57.2662 123.841 57.2434 124.749 56.6651 125.174C56.685 125.493 56.3859 125.699 56.2378 125.973C56.1438 126.142 56.121 126.359 56.0298 126.542C55.8931 126.821 55.6652 127.109 55.5171 127.391C55.1866 128.017 54.9359 128.66 54.7023 129.201C54.5485 129.551 54.3576 129.881 54.2465 130.219C54.4118 130.654 53.899 131.333 53.9189 131.815C54.0272 131.959 54.1782 131.632 54.2893 131.765C54.2978 131.832 54.275 131.911 54.2437 131.993C54.2351 131.993 54.2266 131.993 54.2181 131.993C53.842 131.982 53.4062 131.844 52.9675 131.604C52.7481 131.494 52.5316 131.336 52.3265 131.187C52.2268 131.108 52.1299 131.026 52.0416 130.95L51.8337 130.755L51.6741 130.611L51.5744 130.527C51.036 130.075 50.5176 129.636 50.0162 129.213C47.4438 127.033 45.5465 125.431 43.1678 123.463C41.7036 122.256 40.1539 120.979 38.6811 119.766C37.1997 118.559 35.7156 117.389 34.2371 116.227L34.0291 116.066C33.9864 116.032 33.9465 115.996 33.9095 115.956C33.8325 115.88 33.7727 115.79 33.7271 115.702C33.6331 115.525 33.5989 115.336 33.6246 115.155C33.6502 114.998 33.693 114.888 33.8724 114.735C34.0519 114.589 34.3425 114.453 34.7128 114.355C34.9492 114.284 35.1914 114.211 35.4307 114.14C35.6671 114.067 35.8808 113.988 36.1115 113.912C36.5673 113.76 37.0089 113.596 37.4533 113.435C38.3421 113.111 39.2223 112.778 40.0741 112.446C41.7776 111.783 43.3615 111.123 44.615 110.531C46.8512 109.617 49.3439 108.768 51.8508 107.798C53.9617 106.981 55.7051 106.027 55.7478 105.373C55.7592 105.167 55.3177 105.046 55.2692 104.781C55.2094 104.431 54.9644 103.913 54.4801 103.811C54.3491 103.783 53.9303 103.915 53.654 103.907C53.3008 103.896 53.3634 103.783 53.033 103.831C52.4575 103.915 51.7539 104.234 50.5346 104.643C49.5775 104.962 48.757 105.227 47.817 105.593C43.8686 107.124 40.057 108.647 36.1543 110.125L35.5104 110.364L34.8809 110.584C34.6701 110.658 34.4536 110.737 34.2826 110.782L34.0092 110.866L33.8724 110.909L33.6217 110.976C32.9551 111.168 32.1917 111.464 31.4482 112.101C31.0835 112.417 30.736 112.829 30.4881 113.297C30.2346 113.762 30.0836 114.27 30.0209 114.747C29.9583 115.212 29.9754 115.708 30.0608 116.171C30.1491 116.633 30.3087 117.073 30.5223 117.473C30.736 117.871 31.0009 118.235 31.3086 118.551C31.3855 118.63 31.4624 118.708 31.5479 118.782L31.6647 118.886L31.733 118.943L32.0065 119.171C32.7329 119.786 33.4594 120.4 34.1886 121.015C37.0972 123.48 40.0143 125.967 42.9513 128.426C44.8372 130.005 46.7943 131.691 48.757 133.403L48.9422 133.564L49.0334 133.643L49.0533 133.665L49.0618 133.674C49.0618 133.674 49.0619 133.674 49.0903 133.699L49.2157 133.823L49.4578 134.049C49.7797 134.331 50.1102 134.593 50.472 134.83C51.1842 135.304 52.0046 135.701 52.9418 135.915C53.8734 136.135 54.9188 136.13 55.876 135.884C56.1096 135.817 56.3461 135.743 56.5768 135.664C56.7962 135.574 57.0041 135.467 57.2149 135.366C57.3203 135.312 57.4257 135.261 57.5254 135.208L57.8018 135.024L58.3487 134.649C58.6193 134.427 58.8729 134.195 59.1293 133.961L59.6221 133.504L60.1149 133.101L60.6448 132.726C61.3769 132.247 62.1973 131.841 63.069 131.505C63.9379 131.167 64.8638 130.907 65.801 130.716C66.0346 130.67 66.271 130.625 66.5075 130.586L66.8607 130.532L66.9775 130.515H67.0117C67.0544 130.51 67.1 130.515 67.137 130.527C67.157 130.532 67.1741 130.538 67.1912 130.546L67.2168 130.56C67.2168 130.56 67.2681 130.6 67.2937 130.62C67.3507 130.662 67.4105 130.704 67.4732 130.744C67.5302 130.786 67.5586 130.831 67.6042 130.868L67.6726 130.924C67.6897 130.944 67.6982 130.967 67.7125 130.983C67.7353 131.023 67.7837 131.054 67.7979 131.093C67.8948 131.234 67.9261 131.387 67.9404 131.612C67.9689 132.058 67.7296 132.808 67.3194 133.465C67.2966 133.507 67.2681 133.544 67.2424 133.586L67.2054 133.645L67.1997 133.654C67.1997 133.654 67.1798 133.674 67.1627 133.691L66.6499 134.167C66.2596 134.528 65.8694 134.886 65.4791 135.244C64.6985 135.958 63.9151 136.666 63.1289 137.359C62.9067 137.585 62.6873 137.805 62.4708 138.025L62.3084 138.185L62.2258 138.264L62.0834 138.417C61.8925 138.623 61.7045 138.865 61.545 139.136C61.2174 139.672 61.0094 140.343 60.9752 140.969C60.9382 141.6 61.0465 142.167 61.2003 142.644C61.5193 143.597 61.9837 144.271 62.4623 144.883C62.9523 145.489 63.4707 146.008 64.0832 146.521L64.2228 146.634C64.2228 146.634 64.2285 146.64 64.2313 146.64C64.237 146.642 64.2313 146.634 64.2427 146.645L64.2997 146.696L64.4108 146.795C64.5618 146.924 64.7156 147.057 64.8694 147.189C65.1771 147.454 65.4905 147.72 65.7867 148.004C67.1684 149.321 68.5301 150.788 70.0086 151.969C71.4244 153.396 72.8858 154.845 74.37 156.298C75.1135 157.02 75.8598 157.747 76.6091 158.472L77.6517 159.473C77.6346 159.532 77.6061 159.597 77.5748 159.662C77.7372 159.744 77.8511 159.944 77.9907 159.995C78.099 160.031 78.2044 160.065 78.3098 160.099L78.3525 160.138L78.5006 160.271L78.6003 160.361C78.6687 160.423 78.7371 160.494 78.8054 160.564C79.3638 161.139 79.8509 161.811 80.1899 162.487C80.5346 163.167 80.7369 163.861 80.7967 164.543C80.8537 165.228 80.7654 165.911 80.5546 166.593C80.3409 167.273 79.9934 167.947 79.5575 168.584C79.1245 169.08 78.6573 169.641 78.0762 170.191C77.9394 170.335 77.7913 170.473 77.6375 170.609C77.4865 170.747 77.3326 170.888 77.1788 171.029C77.0164 171.164 76.8569 171.299 76.6945 171.435L76.4495 171.641L76.1988 171.83C74.8713 172.856 73.3786 173.617 72.0995 173.727C71.9087 173.773 71.8175 173.798 71.7263 173.846C71.6352 173.882 71.5497 173.945 71.3788 173.953C70.2165 174.057 69.0856 173.849 68.0088 173.333C67.4703 173.079 66.949 172.74 66.4619 172.346C66.2197 172.148 65.989 171.934 65.7782 171.717C65.6785 171.612 65.5674 171.488 65.5133 171.421L65.1657 170.975C64.6586 170.327 64.1516 169.675 63.6445 169.024C63.1089 168.398 62.5705 167.769 62.0321 167.143C61.5051 166.506 60.9297 165.916 60.3742 165.31C59.8158 164.707 59.266 164.095 58.6877 163.517C57.947 162.766 57.2406 161.926 56.4714 161.224C56.1011 160.877 55.7193 160.592 55.3547 160.243C54.9388 159.834 54.4944 159.368 54.0528 158.96C53.5856 158.525 53.107 158.125 52.6342 157.73C52.1527 157.347 51.677 156.972 51.2297 156.577C50.5005 155.92 49.7626 155.28 49.0277 154.637C48.2984 153.988 47.5463 153.373 46.7914 152.77C46.2986 152.372 45.7716 152.017 45.2474 151.653C44.7232 151.29 44.1934 150.931 43.6692 150.562C43.0396 149.851 41.7976 149.2 40.7834 148.329C40.2849 148.041 39.7465 147.703 39.191 147.333C38.9118 147.15 38.6241 146.961 38.3335 146.769C38.0572 146.58 37.7752 146.389 37.4932 146.2C36.3565 145.421 35.2142 144.615 34.1772 144.009C33.4508 143.405 32.619 142.937 31.8185 142.353C30.9553 141.727 30.1207 141.062 29.2262 140.427C25.406 137.729 21.6571 134.864 17.8911 131.959C17.5236 131.674 17.0849 131.418 16.7088 131.113C16.2189 130.721 15.7801 130.27 15.2816 129.864C14.0054 128.807 12.6295 127.834 11.3219 126.742L10.6809 126.212L10.3619 125.944L10.0656 125.679L9.47591 125.146C9.28505 124.963 9.10273 124.774 8.91756 124.588C8.72954 124.402 8.54722 124.216 8.37915 124.016L7.86353 123.432C7.54447 123.026 7.21117 122.631 6.92915 122.211C5.74123 120.561 4.93219 118.779 4.42511 117.084C3.88101 115.285 3.63602 113.286 3.87531 111.484C3.8981 111.292 3.94368 111.115 3.99496 110.928C4.04053 110.742 4.09751 110.551 4.14309 110.328C4.33111 109.38 4.559 108.354 4.86667 107.485C4.92934 107.35 4.99486 107.212 5.05753 107.074L5.10596 106.975C5.12305 106.944 5.14014 106.904 5.14869 106.899C5.16863 106.871 5.18857 106.842 5.20567 106.811C5.40223 106.543 5.59879 106.27 5.7982 105.996C6.00046 105.714 6.20272 105.43 6.40783 105.142C6.60439 104.849 6.84084 104.586 7.05734 104.304C7.91481 103.179 8.85489 102.108 9.78357 101.141C11.5298 99.3133 13.7746 97.6157 15.7431 96.1212C15.991 95.9322 16.1961 95.6784 16.4667 95.4951C16.6889 95.3457 17.0621 95.1962 17.2843 95.0552C17.7344 94.7732 18.2244 94.3559 18.7343 94.0485C19.2015 93.7581 19.6316 93.4902 20.039 93.2364C20.4549 92.9967 20.848 92.7711 21.2269 92.554C21.9761 92.1056 22.6826 91.7137 23.3891 91.2484C23.6056 91.1638 23.8193 91.0651 24.0329 90.9664C24.2494 90.8677 24.4659 90.7634 24.6796 90.6534C25.1097 90.4334 25.5313 90.1881 25.9558 89.9512C26.819 89.5057 27.6593 89.0376 28.5197 88.8289C29.078 88.3918 29.9383 88.1691 30.6961 87.8532C31.169 87.6558 31.6105 87.3654 32.1091 87.1624C32.864 86.8465 33.7756 86.5335 34.5647 86.2403C36.3081 85.5635 37.9689 84.8923 39.416 84.365C40.3533 84.0182 41.3219 83.7334 42.1736 83.4034C42.7548 82.8592 44.9568 82.3516 45.8912 81.861C45.9938 81.6636 45.0936 81.9286 45.1733 81.7425C45.5551 81.5113 46.6319 81.3167 46.8284 81.0855C46.8228 80.9586 46.384 81.0263 46.2274 80.9671C47.7144 80.6146 47.5748 80.4623 48.1417 80.1098C48.6773 79.7799 49.341 79.5797 49.1188 79.3005C49.492 79.1567 49.9136 79.0129 50.3124 78.8747C50.717 78.7337 51.0788 78.5984 51.3921 78.4489C50.9847 78.4376 50.8822 78.3361 50.754 78.2374C49.1616 78.4771 47.4324 78.6858 46.1932 78.9678C42.3218 79.8645 39.191 80.8261 35.7839 82.0161C30.2916 83.9561 24.503 86.1895 19.1986 89.2914C15.3813 91.4881 11.3618 94.3334 8.22247 97.3958C6.2426 99.2964 4.43081 101.423 2.80419 103.698L2.19456 104.553L2.11764 104.66L2.08061 104.713L2.06067 104.742L2.02933 104.789C1.94957 104.919 1.87265 105.055 1.79859 105.187C1.71312 105.342 1.69033 105.404 1.63906 105.506L1.51941 105.779C1.21175 106.496 0.969605 107.203 0.764497 107.925C0.35428 109.363 0.114986 110.844 0.0437682 112.338C-0.0644835 114.606 0.260272 116.909 1.00094 119.058C1.37128 120.133 1.83847 121.165 2.37688 122.149C2.91814 123.133 3.55055 124.052 4.21716 124.932C4.5704 125.352 4.90085 125.798 5.27688 126.192L5.82669 126.799L6.40213 127.374C6.78101 127.766 7.18553 128.116 7.58435 128.479C7.78661 128.666 7.98033 128.829 8.17119 128.99L8.74948 129.478C9.51864 130.129 10.2849 130.778 11.0655 131.404C11.8375 132.035 12.6095 132.667 13.3872 133.276C17.9138 136.88 22.5088 140.47 27.1808 143.791C29.4227 145.387 31.9068 147.054 34.1915 148.605L35.5133 149.499L36.8294 150.376C37.6812 150.954 38.5386 151.549 39.3847 152.161C41.0854 153.376 42.7662 154.651 44.4355 155.968C47.7685 158.607 51.0645 161.435 54.2636 164.563C56.5312 166.802 58.7162 169.134 60.6818 171.596C61.2402 172.337 61.7985 173.079 62.354 173.818C62.5591 174.08 62.7357 174.277 62.9323 174.486C63.1232 174.692 63.3226 174.884 63.5248 175.07C63.9322 175.442 64.3652 175.786 64.821 176.099C65.2768 176.412 65.7583 176.7 66.2682 176.942C66.7724 177.19 67.3051 177.396 67.8492 177.557C68.9431 177.878 70.1026 178.022 71.2335 177.963C72.3673 177.904 73.4641 177.661 74.4868 177.303C75.5066 176.936 76.4467 176.454 77.327 175.916C79.0761 174.81 80.5802 173.553 81.9476 171.99C82.9389 170.857 83.7822 169.503 84.3149 167.98C84.802 166.539 84.9558 164.941 84.7052 163.435C85.0527 163.629 85.4059 163.804 85.7592 163.973L85.8959 164.072C86.0469 164.176 86.195 164.278 86.3432 164.377C87.0383 164.831 87.7191 165.386 88.6421 165.694C89.0837 165.837 89.6192 165.913 90.1491 165.956C90.9524 166.029 91.9381 165.894 92.7756 165.431C92.9893 165.324 93.1744 165.189 93.3681 165.053C93.5391 164.912 93.7271 164.766 93.8695 164.608L94.0917 164.368C94.1601 164.286 94.2228 164.205 94.2854 164.123C94.4307 163.937 94.4877 163.835 94.5703 163.703C94.6814 163.522 94.7925 163.336 94.8951 163.153C94.9919 162.975 95.0859 162.797 95.1913 162.628C95.6699 161.844 96.2055 161.148 96.6413 160.381C96.8009 160.102 96.8692 159.772 97.043 159.512C97.1456 159.357 97.2823 159.222 97.3792 159.064C97.476 158.906 97.6298 158.796 97.7295 158.641C97.7751 158.573 97.7637 158.472 97.8008 158.398C97.9261 158.15 98.1198 157.942 98.2737 157.713C98.3392 157.617 98.3477 157.493 98.4047 157.389C98.7551 156.754 99.302 156.19 99.6439 155.55C100.009 154.874 100.379 154.155 100.852 153.593C101.097 153.303 101.205 152.953 101.342 152.671C101.513 152.31 101.638 152.042 101.76 151.69C101.837 151.476 101.923 151.25 101.988 151.027C102.119 150.582 102.134 150.08 102.268 149.646C102.367 149.316 102.527 148.983 102.572 148.661C102.758 148.692 102.943 148.721 103.125 148.746C104.339 148.932 105.527 148.974 106.669 149.183C108.546 149.505 110.401 149.953 112.25 150.314C113.457 150.559 114.705 150.686 115.933 150.931C116.779 151.309 118.149 151.397 119.388 151.82C120.502 151.958 121.818 152.291 123.152 152.62C124.482 152.967 125.829 153.317 127.006 153.54C127.892 153.853 128.829 154.008 129.781 154.287C130.803 154.578 131.809 154.919 132.863 155.212C135.108 155.832 137.35 156.503 139.592 157.208C140.15 157.386 140.711 157.564 141.272 157.741C141.831 157.925 142.389 158.108 142.95 158.291C143.497 158.477 144.107 158.649 144.694 158.824C145.286 158.996 145.876 159.171 146.471 159.346C146.588 159.38 146.705 159.411 146.827 159.439C146.953 159.459 147.078 159.481 147.203 159.501C147.457 159.541 147.71 159.583 147.955 159.639C148.594 159.786 149.215 160.006 149.873 160.158C150.736 160.299 151.61 160.409 152.491 160.511C153.377 160.584 154.28 160.595 155.18 160.652C157.536 160.68 159.951 160.55 162.273 160.017C162.852 159.873 163.43 159.752 163.985 159.546C164.264 159.453 164.544 159.36 164.82 159.267C165.093 159.16 165.361 159.039 165.629 158.926C166.17 158.714 166.674 158.418 167.176 158.153C167.666 157.851 168.144 157.547 168.592 157.192C168.711 157.104 168.831 157 168.948 156.898C169.067 156.791 169.181 156.704 169.304 156.577L169.483 156.396C169.535 156.346 169.629 156.241 169.663 156.202L169.928 155.892L170.46 155.271C170.637 155.065 170.805 154.837 170.976 154.62C171.144 154.4 171.321 154.188 171.483 153.966C171.643 153.743 171.805 153.52 171.962 153.3C172.289 152.866 172.571 152.409 172.873 151.983C173.127 151.619 173.392 151.309 173.674 150.867C173.964 150.382 174.229 149.86 174.48 149.338C174.711 148.808 174.95 148.286 175.135 147.779C175.756 146.473 176.272 145.018 176.654 143.535C177.041 142.052 177.309 140.546 177.511 139.13C177.89 136.468 178.138 133.496 177.961 130.899L177.938 130.93ZM134.908 10.1963C135.056 10.2837 135.202 10.3739 135.35 10.4641C135.689 10.6728 136.036 10.8758 136.375 11.0902C136.709 11.3129 137.042 11.5385 137.378 11.7613C137.546 11.8741 137.717 11.9812 137.882 12.0997L138.375 12.4606C140.711 14.1582 142.873 16.1688 144.768 18.4303C146.662 20.6919 148.317 23.1706 149.725 25.7818C150.611 27.4681 151.402 29.3123 152.032 31.2242C152.337 32.1322 152.593 33.0571 152.813 33.9849C151.935 33.8439 151.058 33.7311 150.217 33.5421C149.363 33.3504 148.571 32.9528 147.767 32.6708C147.383 32.5326 146.944 32.4226 146.568 32.2619C145.406 31.7769 144.292 31.1875 143.158 30.4628C142.754 30.2034 142.338 29.9552 141.965 29.6563C141.099 28.9711 140.412 28.142 139.717 27.3271C139.472 27.0225 139.133 26.7829 138.936 26.4501C138.817 26.2527 138.717 26.0469 138.603 25.8466C138.486 25.6521 138.435 25.4321 138.33 25.2347C138.284 25.1445 138.184 25.0853 138.13 25.0007C138.039 24.854 137.965 24.699 137.897 24.541C137.834 24.3803 137.777 24.2196 137.711 24.0617C137.657 23.9291 137.538 23.8304 137.481 23.6951C137.088 22.8745 136.951 21.9129 136.672 21.0528C136.378 20.1364 136.136 19.1297 136.116 18.2047C136.122 17.7225 135.974 17.2826 135.914 16.8879C135.843 16.3775 135.766 16.0052 135.686 15.5343C135.632 15.2439 135.575 14.9393 135.512 14.6432C135.398 14.0539 135.145 13.473 135.068 12.878C134.977 12.3083 134.999 11.6654 134.8 11.2114C134.76 10.8871 134.851 10.5487 134.905 10.1963H134.908ZM120.895 14.24C120.861 14.2654 120.824 14.2851 120.784 14.2992C120.753 14.3105 120.724 14.3189 120.693 14.3274L120.895 14.2372V14.24ZM97.3706 71.6417C96.7296 71.2497 96.0801 70.8662 95.479 70.4263C95.1742 70.2092 94.8637 70.0061 94.5646 69.7862C94.2683 69.5606 93.9721 69.3407 93.673 69.1263C93.2798 68.8472 92.8839 68.568 92.485 68.2888C92.2856 68.1478 92.0777 68.0153 91.8839 67.8658C91.6902 67.7164 91.4994 67.5641 91.3114 67.4062C90.8983 66.8084 89.9952 66.2218 89.3856 65.4013C89.0523 65.1164 88.6991 64.7865 88.3572 64.4143C88.0268 64.0308 87.6849 63.6247 87.3545 63.2046C87.0383 62.7759 86.7164 62.3417 86.4087 61.9243C86.1153 61.4957 85.819 61.0896 85.5227 60.7259C85.3661 60.3931 85.1809 60.0801 84.9786 59.7671C84.8789 59.6092 84.7792 59.4541 84.6767 59.2934C84.5855 59.1298 84.4943 58.9606 84.406 58.7914C84.2237 58.4192 84.0329 58.0526 83.8733 57.6691C83.7138 57.2856 83.5486 56.9021 83.3691 56.5158C81.9134 53.2052 81.0616 49.6014 80.7882 45.9102C80.7597 45.5492 80.6543 45.1629 80.6543 44.785C80.6457 44.2944 80.6998 43.8065 80.7055 43.3018C80.734 42.0074 80.6799 40.6877 80.8052 39.3483C80.9306 37.6084 81.3038 35.8629 81.7225 34.1935C81.9533 33.3617 82.1726 32.5411 82.4461 31.76C82.6883 30.9676 82.976 30.2175 83.2324 29.4899C83.3605 29.1008 83.5229 28.7173 83.6711 28.3282C83.8249 27.9418 83.9616 27.547 84.1297 27.1664C84.4687 26.4078 84.7878 25.6493 85.1894 24.9697C85.3547 24.6792 85.5683 24.4508 85.7592 24.1096C85.9757 23.7486 86.1922 23.368 86.3944 22.9816C86.4942 22.7899 86.5967 22.5981 86.6936 22.4092C86.799 22.2259 86.9044 22.0426 87.0069 21.8678C88.2433 20.0828 89.6392 18.0553 91.0949 16.4198C91.2173 16.4959 91.3427 16.5692 91.468 16.6397C92.1802 17.0401 92.9494 17.5139 93.6872 17.8325C94.6159 18.2217 95.556 18.6164 96.4989 19.0112C97.9233 19.626 99.4559 19.9503 100.929 20.2181C101.464 20.3281 102.003 20.4381 102.538 20.5706C103.077 20.6862 103.618 20.7821 104.159 20.8498C104.68 20.8921 105.253 20.8836 105.774 20.9231C107.381 20.9908 108.999 20.9795 110.72 20.799C111.332 20.7257 111.942 20.6017 112.549 20.5255C113.244 20.4071 113.936 20.3225 114.62 20.2181C115.298 20.0884 115.984 19.9841 116.648 19.8008C117.132 19.6654 117.591 19.4314 118.067 19.3242C118.354 19.265 118.639 19.2114 118.921 19.1297C119.198 19.0451 119.48 19.0366 119.759 18.9577C119.881 18.9238 119.987 18.8279 120.106 18.7856C120.517 18.639 120.938 18.5347 121.348 18.405C121.522 18.3486 121.665 18.2386 121.838 18.1709C122.006 18.106 122.177 18.0468 122.354 17.9876L122.397 17.9735L122.531 17.9087C123.382 17.4998 124.291 17.1586 125.097 16.7017C126.111 16.1265 127.165 15.5005 128.188 15.0747C128.718 14.8547 129.154 14.5163 129.553 14.2597C130.065 13.9298 130.441 13.6816 130.889 13.3404C131.085 13.1938 131.288 13.0387 131.484 12.8808C131.59 13.9975 131.621 15.1282 131.789 16.2562C131.863 16.6792 131.9 17.1219 131.934 17.5731C131.983 18.0243 132 18.4811 132.045 18.9238C132.179 20.4071 132.806 21.8227 132.943 23.3257C133.173 23.7233 133.202 24.1152 133.367 24.5551C133.421 24.6877 133.561 24.7892 133.618 24.9274C133.686 25.0853 133.726 25.2601 133.789 25.4237C133.857 25.5872 133.943 25.7395 134.094 25.8579C134.515 27.2622 135.421 28.6524 136.412 29.6056C136.509 29.8932 136.771 30.1272 137.011 30.3754C137.256 30.6207 137.509 30.8604 137.603 31.1847C137.657 31.2608 137.743 31.1847 137.803 31.2439C138.498 32.1435 139.594 32.7074 140.526 33.3729C140.674 33.4857 140.802 33.6352 140.962 33.7282C141.039 33.7734 141.144 33.7705 141.218 33.8185C141.304 33.8749 141.369 33.9792 141.458 34.0413C141.64 34.171 141.891 34.1851 142.061 34.3035C142.346 34.4981 142.6 34.7406 142.896 34.907C143.096 35.0085 143.352 35.0028 143.563 35.0818C143.617 35.3271 143.933 35.2453 144.084 35.4568C144.537 35.4343 144.956 35.8742 145.414 35.8798C145.537 36.0124 145.725 35.9954 145.882 36.0744C146.05 36.1618 146.201 36.2802 146.386 36.3423C147.164 36.6074 147.933 36.9147 148.745 37.1065C148.824 37.1262 148.927 37.0839 149.007 37.1065C149.112 37.1347 149.198 37.239 149.306 37.27C149.585 37.349 149.898 37.3123 150.195 37.3433C150.967 37.4251 151.713 37.7071 152.388 37.7889C152.747 37.8255 153.132 37.7889 153.462 37.8791C153.482 37.8848 153.499 37.896 153.516 37.9073C153.696 39.2327 153.795 40.5693 153.861 41.9116C153.867 42.7265 153.904 43.5443 153.852 44.3592C153.832 44.7653 153.835 45.177 153.795 45.5831L153.681 46.8013C153.653 47.2073 153.579 47.6106 153.519 48.011C153.451 48.4114 153.408 48.8175 153.32 49.2151C153.14 50.0075 152.995 50.8055 152.75 51.5753C152.334 53.1347 151.713 54.618 151.029 56.0308C150.847 56.4707 150.659 56.8908 150.471 57.2997C150.283 57.7086 150.052 58.0865 149.839 58.4784C149.73 58.673 149.619 58.8648 149.508 59.0593C149.386 59.2483 149.263 59.4372 149.141 59.6318C148.887 60.0125 148.659 60.4242 148.366 60.8218C148.195 61.0671 148.041 61.3293 147.884 61.5972C147.805 61.7298 147.73 61.8679 147.642 61.9977C147.554 62.1245 147.463 62.2543 147.366 62.3755C147.144 62.6631 146.913 62.9508 146.679 63.2384C146.437 63.5204 146.181 63.7911 145.936 64.0703C145.457 64.6399 144.93 65.1644 144.497 65.7481C143.355 66.7858 142.161 67.8235 140.859 68.7485L140.381 69.1066C140.218 69.2222 140.05 69.3294 139.885 69.4422L138.891 70.1161L137.865 70.745C137.694 70.8493 137.526 70.9593 137.353 71.058L136.828 71.3484C135.447 72.1521 134.005 72.8204 132.589 73.4492C131.869 73.734 131.168 74.0499 130.453 74.2896C130.097 74.4193 129.746 74.5462 129.399 74.6731C129.046 74.7859 128.695 74.8958 128.351 75.0058C127.143 75.2596 125.727 75.6064 124.28 75.8997C123.915 75.9674 123.55 76.021 123.186 76.0802C122.821 76.1338 122.462 76.1986 122.103 76.2212C121.385 76.2748 120.693 76.3396 120.044 76.2889C119.651 76.3001 119.639 76.4158 119.283 76.4355C116.884 76.4863 114.415 76.4355 111.93 76.1676C109.449 75.9053 106.951 75.4232 104.552 74.6646C104.205 74.5659 103.863 74.4334 103.521 74.298C103.561 74.1063 103.592 73.9117 103.689 73.7538C103.718 73.7087 103.812 73.6946 103.846 73.641C103.914 73.5254 103.908 73.3675 103.923 73.2321C104.139 72.9473 104.182 72.544 104.307 72.2198C104.424 71.9152 104.689 71.6332 104.763 71.3202C104.772 71.2807 104.717 71.2159 104.737 71.1792C104.752 71.1482 104.851 71.1341 104.871 71.1059C104.914 71.0495 104.894 70.9536 104.92 70.8831C105.017 70.6209 105.162 70.4658 105.099 70.2092C105.393 70.071 105.068 69.6593 105.401 69.555C105.264 69.4083 105.435 69.3548 105.455 69.2532C105.47 69.1884 105.404 69.0925 105.41 69.022C105.418 68.9148 105.492 68.8133 105.507 68.7034C105.538 68.4637 105.478 68.1986 105.45 67.9786C105.43 67.8376 105.45 67.7079 105.398 67.5669C105.074 67.3442 105.205 67.0932 104.974 66.8676C104.82 66.7887 104.84 66.9212 104.692 66.8479C104.578 66.7463 104.66 66.6336 104.492 66.5349C104.376 66.4869 104.336 66.5292 104.245 66.5123C104.273 66.3205 104.094 66.2641 103.897 66.1062C103.712 65.9568 103.663 65.8468 103.361 65.7509C103.245 65.6015 103.179 65.452 103.003 65.3054C102.928 65.3223 102.815 65.2913 102.701 65.2603C102.638 65.4407 102.453 65.593 102.421 65.7453C102.325 66.2247 102.29 66.6364 102.231 67.0819C102.134 67.8038 101.723 68.4467 101.476 69.1433C101.299 69.6452 101.023 70.1641 100.866 70.6632C100.672 71.2892 100.447 71.9152 100.154 72.513C100.094 72.6315 100.04 72.7527 99.9886 72.874C99.9658 72.8627 99.943 72.8514 99.9231 72.8401C99.4844 72.6286 99.0343 72.4566 98.6098 72.2536C98.1825 72.0562 97.7495 71.8757 97.3564 71.6445L97.3706 71.6417ZM94.6444 98.7775C94.7896 97.83 95.1543 96.9446 95.3964 96.014C95.5503 95.4162 95.8522 94.8099 96.1343 94.2403C96.5502 93.4 96.7011 92.4271 97.2282 91.6375C97.5016 91.7672 97.7751 91.8941 98.0458 92.0182C100.197 93.0193 102.404 94.2065 104.119 95.5713C105.005 96.2734 105.905 96.8684 106.623 97.4578C107.541 98.2192 108.182 98.8142 108.954 99.5699C109.421 100.041 109.899 100.557 110.324 101.064C111.184 102.074 112.036 103.095 112.631 104.276C113.215 105.41 113.58 106.797 113.936 107.739C113.993 107.948 114.021 108.168 114.041 108.391C114.061 108.613 114.084 108.842 114.09 109.073C114.087 109.389 114.087 109.71 114.081 110.035C113.577 110.035 113.044 110.097 112.523 110.249C112.301 110.325 112.079 110.41 111.862 110.497C111.66 110.604 111.458 110.72 111.264 110.841C111.062 110.957 110.911 111.106 110.737 111.241C110.654 111.312 110.566 111.382 110.492 111.456L110.281 111.678C109.985 111.98 109.78 112.288 109.56 112.601C109.381 112.908 109.184 113.224 109.056 113.528C108.754 114.146 108.569 114.741 108.387 115.336C108.062 116.515 107.882 117.654 107.754 118.776C107.58 120.395 107.521 121.968 107.521 123.531C106.205 123.454 104.9 123.356 103.441 123.282C103.148 123.268 102.849 123.265 102.547 123.265C102.598 123.192 102.652 123.122 102.703 123.045C103.014 122.597 103.339 122.166 103.661 121.726C103.971 121.269 104.282 120.809 104.592 120.35C104.897 119.884 105.173 119.382 105.461 118.9C105.609 118.663 105.723 118.39 105.851 118.133L106.216 117.349C106.771 115.965 107.39 114.377 107.535 112.64C107.583 111.913 107.555 111.165 107.341 110.333L107.25 110.015L107.184 109.831L107.15 109.741C107.136 109.707 107.133 109.693 107.105 109.626L107.031 109.468L106.999 109.417L106.939 109.313L106.82 109.107L106.338 108.283C106.187 108.004 105.997 107.748 105.823 107.482C105.646 107.217 105.475 106.952 105.307 106.684C105.122 106.428 104.937 106.171 104.76 105.909C104.578 105.65 104.421 105.373 104.227 105.122C103.934 104.871 103.695 104.615 103.461 104.35C103.225 104.085 102.966 103.836 102.675 103.568C102.493 103.413 102.259 103.301 102.057 103.157C101.826 102.982 101.61 102.782 101.379 102.596C101.262 102.503 101.145 102.415 101.02 102.339C100.892 102.269 100.755 102.209 100.612 102.167C100.373 101.981 100.128 101.795 99.8775 101.611C99.6211 101.437 99.3533 101.279 99.0855 101.118C98.5557 100.78 97.9774 100.531 97.4133 100.269C96.4448 99.8744 95.462 99.5642 94.5276 99.3725C94.5703 99.1807 94.6102 98.9862 94.6415 98.786L94.6444 98.7775ZM67.063 126.545C66.8807 126.545 66.6983 126.551 66.5189 126.57L66.3195 126.596L66.1485 126.618C65.9235 126.649 65.6984 126.686 65.4762 126.725C65.0318 126.804 64.5903 126.892 64.1516 126.999C62.3996 127.416 60.6847 128.037 59.0837 128.939C58.9213 129.032 58.7589 129.131 58.5994 129.232C59.5537 127.633 60.6391 126.04 61.5792 124.379C62.3854 122.952 63.3169 121.399 64.0319 119.955C64.9179 118.142 65.8238 116.295 66.724 114.45C68.1028 111.656 69.1625 108.718 70.1396 105.861C70.8489 103.772 71.6808 101.688 72.2477 99.5586C72.5382 98.5434 72.7547 97.4099 73.0083 96.3806C73.7489 93.2082 74.3386 89.9681 74.6748 86.4433C74.7033 86.1613 74.7346 85.8793 74.7545 85.5945L74.783 85.0559C76.9595 85.4027 79.1131 85.8737 81.2553 86.3277C82.2382 86.5335 83.2381 86.6632 84.181 86.9198C84.7479 87.0721 85.2948 87.2667 85.8617 87.4218C86.4201 87.5741 86.9243 87.7968 87.477 87.966C87.7191 88.0422 87.984 88.0591 88.229 88.1268C89.0694 88.3636 89.8784 88.6823 90.6875 88.9727C91.0293 89.094 91.3769 89.1532 91.7244 89.2745C92.3113 89.4747 92.8981 89.7003 93.4792 89.94C93.3738 90.1543 93.277 90.3686 93.1972 90.5885C92.9294 91.3499 92.656 92.1564 92.26 92.8191C92.0549 93.1603 91.9922 93.541 91.8953 93.854C91.77 94.2572 91.6845 94.5561 91.6048 94.9368C91.5564 95.1709 91.5022 95.419 91.4652 95.6615C91.394 96.1437 91.4424 96.6626 91.3683 97.1363C91.2971 97.5903 91.1233 98.0697 91.2117 98.4729C91.2031 98.5181 91.186 98.5632 91.1718 98.6083C91.0977 98.5801 91.0236 98.5519 90.9524 98.5152C90.81 98.4814 90.7872 98.5914 90.6561 98.5773C88.9013 98.2135 87.0183 98.4137 85.2151 98.4645C84.9245 98.4729 84.6197 98.4222 84.332 98.456C84.1924 98.4701 84.0642 98.5378 83.9246 98.5463C83.7622 98.5547 83.5828 98.5153 83.4147 98.5237C83.0614 98.5406 82.731 98.6816 82.4034 98.7014C81.8621 98.7352 81.3123 98.7014 80.7824 98.7775C80.4349 98.8254 80.1016 99.0031 79.7569 99.0792C79.4749 98.9354 79.1273 99.2005 78.7428 99.1441C78.1588 99.4712 77.2301 99.4176 76.5948 99.7588C76.4581 99.7532 76.347 99.7814 76.1932 99.8321L74.8998 100.249L74.9255 101.479C74.9255 101.6 74.9426 101.727 74.9255 101.854C74.8941 102.111 74.8229 102.362 74.8172 102.624C74.7574 103.76 74.5096 104.939 74.2959 106.143C74.276 106.261 74.3158 106.4 74.293 106.524C74.2646 106.682 74.1563 106.823 74.1107 106.986C73.9996 107.404 74.011 107.855 73.9427 108.3C73.8629 108.876 73.6863 109.442 73.5154 109.992C73.3416 110.542 73.1792 111.072 73.0368 111.569C72.8943 112.099 72.8203 112.677 72.6237 113.165C72.581 113.269 72.4756 113.339 72.4214 113.461C72.3132 113.723 72.279 114.03 72.2277 114.301C71.9087 114.964 71.7548 115.779 71.5127 116.472C71.2876 117.124 70.9059 117.798 70.715 118.443C70.6923 118.525 70.7321 118.63 70.6979 118.711C70.6695 118.779 70.5527 118.849 70.5185 118.912C70.4501 119.041 70.4444 119.222 70.3903 119.374C70.1937 119.935 69.9687 120.299 69.9516 120.775C69.5642 121.162 69.7978 121.85 69.3704 122.188C69.473 122.425 69.2565 122.594 69.1938 122.806C69.1539 122.938 69.1938 123.102 69.1596 123.243C69.1084 123.457 68.9887 123.688 68.926 123.906C68.795 124.391 68.758 124.89 68.7038 125.31C68.6668 125.581 68.5899 125.84 68.5927 126.102C68.7779 126.308 68.7352 126.607 68.7295 126.892C68.1968 126.669 67.627 126.551 67.0573 126.542L67.063 126.545ZM98.1597 150.088C97.9346 150.627 97.5643 151.151 97.2168 151.639C96.6413 152.451 96.3707 153.478 95.5731 154.14C95.4933 154.437 95.2768 154.597 95.1173 154.857C95.0688 154.936 95.0973 155.063 95.0489 155.147C94.9378 155.342 94.7127 155.483 94.7412 155.756C94.0661 156.456 93.5647 157.358 93.2713 158.198C92.9152 158.413 92.9522 159.033 92.5021 159.202C92.4622 159.244 92.5591 159.309 92.5306 159.354C92.0463 159.887 91.8896 160.685 91.5079 161.266C91.4481 161.357 91.337 161.419 91.2886 161.517C91.2658 161.565 91.2857 161.644 91.2572 161.684C91.2373 161.709 91.1775 161.706 91.1575 161.726C91.1347 161.751 91.1347 161.791 91.1347 161.827C91.1347 161.864 91.1347 161.909 91.1148 161.923C91.0407 161.963 90.9439 161.932 90.9097 161.952C90.8983 161.963 90.9011 161.999 90.8954 162.036C90.8954 162.073 90.8897 162.124 90.8727 162.138C90.8328 162.05 90.8214 162.064 90.8043 162.081C90.7872 162.095 90.7673 162.124 90.7388 162.067C90.7103 162.18 90.6448 162.183 90.5764 162.174C90.5052 162.163 90.4282 162.14 90.3342 162.214C90.2887 162.126 90.2061 162.197 90.1377 162.166C90.0665 162.129 90.0066 162.053 89.924 162.028C89.5622 161.929 89.2004 161.678 88.7988 161.458C88.7589 161.435 88.682 161.464 88.6421 161.435C88.5908 161.402 88.588 161.303 88.5395 161.266C88.417 161.165 88.2119 161.153 88.0667 161.08C88.0239 161.06 87.9698 161.024 87.9584 161.021L87.6764 160.812C87.2491 160.615 86.893 160.291 86.5198 160.11C86.2947 160.003 86.0184 159.958 85.8361 159.8C85.7962 159.766 85.7991 159.673 85.7535 159.634C85.6538 159.552 85.5028 159.538 85.3774 159.507C85.141 159.261 84.765 159.165 84.4772 159.008C84.2066 158.855 83.9816 158.562 83.6967 158.449C83.6597 158.435 83.5885 158.48 83.5571 158.455C83.5315 158.435 83.5315 158.339 83.5087 158.314C83.4631 158.266 83.3662 158.272 83.3036 158.238C83.07 158.108 82.9446 157.95 82.6911 157.978C82.6085 157.677 82.1612 157.939 82.1157 157.603C81.9504 157.716 81.9305 157.544 81.8365 157.51C81.7767 157.49 81.6741 157.538 81.6086 157.524C81.563 157.516 81.5231 157.493 81.4804 157.468C81.3949 157.383 81.3095 157.302 81.2183 157.217C81.1756 157.177 81.1044 157.115 81.1129 157.121L81.0616 157.067L80.8622 156.867L80.4634 156.467C79.9335 155.934 79.4008 155.398 78.8453 154.862C78.3553 154.389 77.8112 153.951 77.3127 153.486C75.6092 151.887 73.9654 150.238 72.3046 148.63C71.6067 147.954 70.8888 147.347 70.1709 146.668C69.6183 146.14 69.0628 145.61 68.5044 145.074C68.2253 144.807 67.9489 144.539 67.6697 144.268L67.251 143.862L67.1456 143.76L67.0943 143.71L67.0003 143.625L66.8066 143.456L66.7154 143.38C66.234 142.974 65.7639 142.483 65.4506 142.029C65.2968 141.806 65.1771 141.583 65.1258 141.426C65.066 141.262 65.0831 141.189 65.086 141.211C65.0916 141.234 65.0603 141.27 65.1287 141.197L65.9263 140.447C66.4904 139.917 67.0516 139.387 67.6128 138.859C68.1711 138.329 68.7266 137.799 69.2821 137.275L69.6952 136.88L69.9003 136.682C70.0143 136.578 70.1396 136.451 70.2507 136.322C70.3646 136.192 70.4729 136.051 70.5698 135.907L70.6809 135.732L70.7777 135.577C70.9002 135.371 71.0142 135.163 71.1224 134.951C71.3475 134.5 71.544 134.018 71.6979 133.499C71.8431 132.974 71.9514 132.41 71.9656 131.801C71.9713 131.652 71.9571 131.491 71.9514 131.333C71.9428 131.178 71.9343 131.02 71.9001 130.859C71.8716 130.699 71.8403 130.538 71.8061 130.38C71.7605 130.222 71.7036 130.061 71.6494 129.903C71.5526 129.582 71.3702 129.297 71.2136 129.004C71.1936 128.976 71.1708 128.948 71.1509 128.916C71.2079 128.809 71.2591 128.705 71.2905 128.606C71.6152 127.611 71.8289 126.773 72.0824 125.854C72.4926 124.371 73.2077 122.916 73.7461 121.41C74.125 120.324 74.6292 119.162 74.9568 118.077C75.3813 116.726 75.8143 115.344 76.2986 113.982C77.0392 111.915 77.4865 109.741 77.9366 107.623C78.0762 106.837 78.2642 106.058 78.4323 105.263C78.5006 104.857 78.569 104.451 78.6374 104.045L78.7285 103.436C78.7399 103.334 78.7456 103.233 78.7513 103.129C80.64 102.737 82.6085 102.474 84.7023 102.339C85.1154 102.316 85.5313 102.291 85.9472 102.269C86.3603 102.26 86.779 102.235 87.1892 102.252C89.0893 102.3 90.9182 102.598 92.6844 103.016C93.0063 103.098 93.3368 103.14 93.6587 103.21C93.9778 103.284 94.2968 103.36 94.6016 103.464C94.9577 103.608 95.2939 103.788 95.6528 103.927C95.9975 104.082 96.2852 104.302 96.6214 104.462C96.7695 104.536 96.9376 104.57 97.0886 104.64C97.3364 104.77 97.59 104.899 97.8179 105.063C98.0429 105.227 98.268 105.39 98.4959 105.545C98.6953 105.666 98.8918 105.771 99.0855 105.906C100.276 106.766 101.216 107.979 102.082 109.126C102.302 109.439 102.527 109.758 102.752 110.08C102.946 110.418 103.142 110.759 103.333 111.098L103.376 111.174C103.376 111.174 103.396 111.256 103.41 111.303C103.427 111.349 103.43 111.422 103.441 111.487C103.45 111.552 103.464 111.611 103.461 111.687C103.478 111.966 103.455 112.271 103.404 112.567C103.367 112.722 103.344 112.877 103.327 113.029C103.299 113.184 103.265 113.342 103.242 113.497C103.211 113.805 103.114 114.109 103.048 114.391C102.829 115.113 102.621 115.652 102.327 116.328C102.174 116.751 101.92 117.18 101.723 117.606C101.535 118.037 101.308 118.458 101.1 118.889C100.991 119.103 100.883 119.32 100.778 119.535C100.655 119.741 100.524 119.944 100.387 120.144C100.12 120.524 99.8376 120.928 99.547 121.3C99.2536 121.669 98.9887 122.03 98.8206 122.369C98.6354 122.617 98.4018 122.837 98.1512 123.054C97.1683 122.995 96.1884 122.955 95.2369 122.989C91.2344 122.67 87.024 122.405 82.9162 122.143L82.1356 122.095L81.2041 122.075C80.8993 122.059 80.5688 122.098 80.244 122.123L79.7598 122.168C79.5974 122.185 79.4236 122.228 79.2584 122.259C78.9222 122.332 78.5918 122.383 78.2471 122.515C77.9052 122.634 77.5662 122.741 77.2301 122.93L76.7287 123.195C76.5663 123.305 76.4068 123.418 76.2501 123.533C75.9282 123.748 75.6519 124.047 75.3727 124.323C74.8485 124.921 74.444 125.603 74.1876 126.311C74.0623 126.666 73.9654 127.022 73.9056 127.385C73.8771 127.569 73.8486 127.749 73.8373 127.946C73.8287 128.037 73.823 128.144 73.823 128.257V128.344V128.494L73.8316 128.629C73.8771 129.17 73.937 129.652 73.9996 130.14C74.0623 130.628 74.1335 131.102 74.2076 131.573C74.3244 133.18 74.6605 135.05 75.0423 136.919C75.2303 137.853 75.4211 138.792 75.6063 139.7C75.649 139.928 75.6918 140.154 75.7345 140.377C75.7544 140.489 75.7744 140.599 75.7943 140.709C75.8143 140.825 75.8542 140.986 75.8826 141.121C76.008 141.685 76.1846 142.238 76.4068 142.759C76.5521 143.072 76.6774 143.213 76.7857 143.346C76.8939 143.481 77.0136 143.597 77.1931 143.851C77.797 144.699 78.5747 145.421 79.4065 145.966C80.2412 146.521 81.1243 146.91 82.0046 147.212C83.7736 147.796 85.5427 148.013 87.2747 148.075C87.7077 148.089 88.1407 148.095 88.5709 148.086L89.7987 148.055C90.5849 148.035 91.374 148.021 92.1631 148.021C93.7413 148.016 95.3195 148.058 96.8863 148.151C97.5729 148.193 98.2708 148.267 98.9602 148.337C98.7124 148.924 98.4075 149.482 98.1597 150.077V150.088Z" fill="#024089"/>
</g>
<defs>
<clipPath id="clip0_3956_14627">
<rect width="178" height="178" fill="white"/>
</clipPath>
</defs>
</svg>
