<svg width="147" height="190" viewBox="0 0 147 190" fill="none" xmlns="http://www.w3.org/2000/svg">
<g id="icon 3" clip-path="url(#clip0_3956_14640)">
<path id="Vector" d="M138.528 145.446C133.667 128.045 131.882 109.936 133.102 91.914C136.392 43.2776 127.557 19.7266 127.557 19.7266L82.0102 31.5576L81.2722 32.3639V44.8942C81.3794 44.8325 81.4948 44.7873 81.6062 44.7215C81.8659 44.5734 82.1628 44.3718 82.4844 44.269C82.6287 44.2237 82.8018 44.2402 82.9461 44.1867C83.041 44.1538 83.1193 44.0386 83.21 44.0139C83.3543 43.9769 83.5233 44.1168 83.6264 43.9028C83.9686 44.1702 84.2861 43.6231 84.6407 43.837C84.921 43.6355 85.2096 43.6889 85.6013 43.6437C85.7085 43.6313 85.8157 43.5573 85.9147 43.5696C85.9641 43.5737 86.0425 43.6642 86.0919 43.6601C86.1497 43.6601 86.1991 43.5696 86.2527 43.5573C86.6939 43.4586 87.2134 43.5655 87.671 43.512C88.1575 43.4544 88.6894 43.2776 89.1842 43.331C89.3615 43.2693 89.5552 43.1788 89.7449 43.1829C89.8315 43.1829 89.9098 43.2693 89.984 43.2734C90.3386 43.2858 90.7097 43.1336 91.0725 43.076C91.7569 42.9649 92.5774 43.0307 93.3442 42.8374C93.6411 42.7633 93.9214 42.6029 94.2142 42.5823C94.3296 42.5741 94.4451 42.6482 94.5564 42.6358C94.643 42.6276 94.7213 42.5412 94.8038 42.5289C95.6366 42.3931 96.4694 42.3725 97.2858 42.2491C97.4754 42.2203 97.6692 42.2656 97.8589 42.2615C98.0362 42.2615 98.1887 42.1422 98.366 42.2121C98.7659 41.9653 99.3514 42.1669 99.7183 41.8748C99.9616 41.99 100.176 41.7267 100.357 41.92C100.576 41.8624 100.778 41.6979 100.996 41.6691C101.326 41.6238 101.677 41.6897 102.015 41.6691C102.221 41.6568 102.419 41.4963 102.637 41.4881C102.74 41.484 102.856 41.521 102.959 41.5087C103.046 41.4963 103.12 41.4182 103.206 41.4017C103.384 41.3647 103.577 41.4058 103.755 41.3853C104.872 41.2454 105.973 40.797 107.061 40.8217C107.14 40.8134 107.131 40.6818 107.222 40.6859C107.832 40.9492 108.55 40.472 109.127 40.6242C110.409 40.2704 111.943 40.0648 113.374 40.1594C113.683 39.9372 114.046 40.0318 114.38 39.9948C114.524 39.9784 114.656 39.8632 114.792 39.8508C115.245 39.8097 115.629 39.8837 116.058 39.7439C117.542 39.9784 119.026 39.4971 120.506 39.4354C121.397 39.3983 122.353 39.3613 123.203 39.1844C124.526 38.9088 125.866 38.7813 127.152 38.4028C127.878 38.1889 128.583 38.0408 129.321 37.938C129.498 37.9133 129.651 37.9544 129.832 37.9873C130.063 38.0285 130.191 37.9668 130.307 38.1025C130.373 38.1807 130.364 38.2753 130.438 38.4234C130.496 38.5386 130.575 38.5674 130.603 38.6455C130.706 38.9417 130.781 39.5876 130.81 39.9784C130.83 40.2746 130.929 40.579 130.933 40.7929C130.954 41.4634 130.641 41.7843 130.245 41.8254C129.779 41.8789 129.309 41.8172 128.897 41.9365C128.443 42.245 127.734 42.3396 127.115 42.5165C126.472 42.7016 125.85 43.0348 125.198 43.2323C124.872 43.331 124.526 43.4133 124.2 43.4956C123.669 43.6313 123.24 43.7095 122.654 43.8082C122.201 43.8864 121.681 44.0345 121.125 44.0221C120.045 43.9975 118.861 44.1744 117.736 44.3307C116.672 44.4747 115.53 44.3965 114.466 44.5364C114.293 44.5569 114.136 44.6392 113.967 44.6515C113.563 44.6803 113.147 44.6557 112.743 44.7256C112.623 44.7462 112.512 44.8243 112.392 44.8367C112.12 44.8572 111.856 44.8037 111.584 44.8325C111.308 44.8613 111.032 44.8408 110.76 44.8613C110.302 44.8942 109.848 45.0711 109.383 45.137C108.104 45.3138 106.814 45.3509 105.511 45.5236C104.946 45.6018 104.381 45.7211 103.817 45.8075C102.229 46.0461 100.749 46.2271 99.2813 46.4122C98.803 46.4739 98.2918 46.5932 97.8176 46.6549C96.824 46.7824 95.7974 46.7413 94.8038 46.8853C93.4391 47.0827 92.0455 47.3872 90.6272 47.4448C89.6913 47.4859 88.7636 47.6093 87.8525 47.7656C87.1268 47.889 86.3022 47.9014 85.5601 48.0042C84.5294 48.1441 83.4656 48.0947 82.4926 48.3991C82.0844 48.5267 81.701 48.6542 81.2928 48.7776V63.0645H68.9734V36.2184L68.6848 36.3213L2.89062 47.3008C2.89062 47.3008 7.55369 78.458 24.1404 106.904C24.1404 106.904 39.3788 140.295 40.5497 151.077C42.0587 164.978 43.5183 176.578 47.8721 187.262C49.3646 190.919 138.54 170.91 144.642 164.472C144.642 164.472 140.342 151.954 138.524 145.446H138.528ZM28.0448 59.7242C26.911 59.9545 25.7236 60.0204 24.5856 60.2672C23.0272 60.6045 21.4398 61.0529 19.8071 61.2627C18.731 61.3985 17.6673 61.6206 16.6283 61.8674C15.7996 62.0649 14.8472 62.1677 14.002 62.3446C12.8228 62.5914 11.5942 62.6531 10.4934 63.0563C9.81307 63.3031 9.20288 63.554 8.44837 63.7926C8.20924 63.8667 7.84642 63.8009 7.54545 63.8667C7.50009 63.7392 7.45886 63.6157 7.3764 63.5582C7.44237 63.2949 7.60729 63.1344 7.72686 62.9246C7.62791 62.5791 7.74747 62.4639 7.81756 62.1883C7.89177 61.9003 7.83405 61.6988 8.12678 61.5918C8.08143 61.4972 7.9866 61.489 7.96599 61.3491C7.97423 61.127 8.201 61.127 8.2546 60.9542C8.24635 60.7691 8.07318 60.876 8.06494 60.6786C8.20924 60.3083 8.66689 60.259 8.72874 59.8106C8.88953 59.6666 9.08743 59.5967 9.27297 59.4815C9.56157 59.3087 9.89141 59.0742 10.2584 58.9385C10.4233 58.8768 10.6253 58.8768 10.782 58.8109C10.885 58.7698 10.9716 58.6423 11.0747 58.6135C11.2355 58.56 11.4458 58.6834 11.5488 58.4572C11.957 58.6916 12.291 58.1116 12.7115 58.2885C13.0249 58.054 13.3588 58.0828 13.8082 57.9923C13.9319 57.9676 14.0515 57.8854 14.1628 57.8854C14.2164 57.8854 14.3153 57.9676 14.3731 57.9594C14.439 57.9512 14.4926 57.8566 14.5545 57.8401C15.0534 57.6961 15.6636 57.7496 16.183 57.6468C16.7396 57.5398 17.3416 57.3053 17.9147 57.3094C18.1167 57.2313 18.3311 57.1202 18.5537 57.1037C18.6568 57.0955 18.7475 57.1737 18.8341 57.1696C19.2423 57.1449 19.6587 56.9557 20.0751 56.8569C20.8544 56.6718 21.8026 56.6595 22.6767 56.3838C23.0148 56.2769 23.3281 56.0877 23.6662 56.0383C23.7982 56.0177 23.9383 56.0794 24.0661 56.0547C24.1651 56.0383 24.2517 55.9437 24.3424 55.9231C25.2907 55.7051 26.2513 55.594 27.1831 55.3883C27.4016 55.339 27.6284 55.3636 27.8428 55.3431C28.0448 55.3225 28.218 55.1909 28.42 55.2402C28.8653 54.9523 29.5538 55.0921 29.9579 54.763C30.2465 54.8535 30.4773 54.5656 30.6959 54.7425C30.9432 54.6643 31.17 54.4792 31.4174 54.4257C31.7967 54.3476 32.2007 54.3764 32.5883 54.3188C32.8274 54.2859 33.0418 54.1049 33.2933 54.0719C33.4129 54.0555 33.549 54.0843 33.6644 54.0596C33.7633 54.039 33.8458 53.9526 33.9406 53.928C34.1427 53.8745 34.3653 53.8951 34.5714 53.8539C35.8496 53.5989 37.0906 53.0353 38.3481 52.9448C38.4388 52.9283 38.4223 52.7967 38.5254 52.7926C39.2469 52.9941 40.0426 52.4388 40.7147 52.5334C42.1701 52.048 43.9264 51.6819 45.5797 51.6284C45.922 51.3733 46.3466 51.435 46.73 51.361C46.895 51.3322 47.0393 51.2006 47.1959 51.1759C47.7154 51.0854 48.1607 51.1224 48.6472 50.9373C50.3706 51.0196 52.0528 50.3819 53.7556 50.168C54.7822 50.0405 55.8748 49.9006 56.8437 49.6374C58.3527 49.226 59.8864 48.9586 61.3459 48.4444C62.1705 48.1564 62.9745 47.9343 63.8197 47.7574C64.0217 47.7163 67.3036 47.0457 67.5139 47.0581C67.7819 47.0786 67.9262 47.0005 68.0664 47.1239C68.1447 47.1938 68.1447 47.2925 68.2354 47.4324C68.3096 47.5435 68.4003 47.5599 68.4374 47.6381C68.5735 47.9261 68.6972 48.5596 68.7549 48.9504C68.7961 49.2466 68.9281 49.5386 68.9487 49.7484C69.0105 50.4148 68.6683 50.7686 68.2189 50.855C67.6829 50.9537 64.0424 51.6366 63.5723 51.7971C63.0693 52.1508 62.2571 52.3195 61.5562 52.5622C60.8306 52.8131 60.1297 53.2122 59.3875 53.4755C59.0165 53.6071 58.6248 53.7264 58.2537 53.8416C57.6518 54.0308 57.1611 54.1542 56.4932 54.3146C55.9737 54.4381 55.3841 54.6437 54.741 54.6849C53.4958 54.7713 52.1435 55.0716 50.853 55.3431C49.6367 55.5981 48.3174 55.6393 47.097 55.8861C46.8991 55.9272 46.7218 56.0218 46.528 56.0506C46.0621 56.1206 45.5839 56.1411 45.1221 56.2481C44.986 56.281 44.8582 56.3715 44.7222 56.3921C44.4129 56.4414 44.1037 56.4126 43.7945 56.4702C43.4812 56.5278 43.1596 56.536 42.8462 56.5813C42.3226 56.6636 41.8072 56.8857 41.2754 56.9968C39.8117 57.3053 38.3275 57.4781 36.8391 57.7866C36.1918 57.9224 35.5486 58.1034 34.9013 58.2474C33.0872 58.6505 31.3968 58.9837 29.7146 59.321C29.1704 59.4321 28.5849 59.6049 28.0407 59.716L28.0448 59.7242ZM103.8 148.683C92.6846 156.252 82.0102 157.166 82.0102 157.166C71.3359 159.251 51.7518 157.166 51.7518 157.166C51.7518 157.166 48.6514 151.378 45.7364 134.071C42.9039 117.238 41.8773 115.469 40.3766 111.236C38.8758 107.003 34.8188 99.2323 34.8188 99.2323C34.8188 99.2323 80.6744 58.3502 121.652 84.2707C121.652 84.2707 121.455 103.716 123.153 113.453C124.852 123.191 127.73 134.853 127.73 134.853C125.116 133.808 114.916 141.114 103.8 148.683Z" fill="#A2D3F3"/>
<path id="Vector_2" d="M59.6714 34.8013C53.1241 35.9984 47.723 37.0392 41.7571 38.1622C32.1094 39.9805 21.8473 41.5354 11.7585 43.255C8.76107 43.7569 5.63587 44.2752 2.47356 44.8058L0.00390625 45.2172L0.387341 47.669C0.572875 48.8578 0.7749 49.9603 0.989294 51.0916C1.20781 52.2105 1.42633 53.3295 1.66958 54.4319C1.90047 55.5385 2.15197 56.6287 2.40759 57.7023C2.5354 58.2412 2.66322 58.776 2.7869 59.3067C2.92296 59.8332 3.05902 60.3598 3.19508 60.8781C4.34538 65.3086 5.62762 69.7473 7.08303 74.1531C7.77568 76.3662 8.57966 78.5506 9.34241 80.7473C9.72584 81.8457 10.1629 82.9276 10.5669 84.0178C10.9916 85.1038 11.3668 86.2021 11.8244 87.2758C14.6981 94.483 18.0996 101.501 22.004 108.145L21.8927 107.927C24.4737 113.558 26.9598 119.211 29.2893 124.805C31.1735 129.347 32.9587 133.954 34.5749 138.582L35.1769 140.318L35.7376 142.054L36.2983 143.79L36.7972 145.522C37.16 146.682 37.4033 147.813 37.6836 148.953C37.762 149.241 37.8073 149.512 37.8485 149.784L37.9846 150.598C38.03 150.874 38.0794 151.133 38.1207 151.421L38.2237 152.338C38.7515 157.036 39.4112 162.158 40.1657 166.893C40.7511 170.533 41.4396 174.182 42.3714 177.823C42.6147 178.732 42.8415 179.645 43.1177 180.55L43.5176 181.912L43.9547 183.269C44.235 184.178 44.5813 185.071 44.8947 185.972L45.4183 187.313L45.6822 187.984L45.7152 188.066L45.7316 188.107L45.7399 188.128L45.8059 188.272C45.9131 188.494 46.0821 188.741 46.2223 188.893C46.346 189.024 46.4779 189.148 46.6222 189.255C46.7047 189.316 46.7376 189.337 46.7912 189.37L46.9438 189.46C47.0427 189.518 47.1664 189.58 47.2283 189.6C47.3726 189.658 47.5581 189.732 47.6571 189.757C48.1559 189.896 48.4775 189.929 48.795 189.958C49.1125 189.987 49.3887 189.995 49.6691 189.999C50.2174 190.008 50.7287 189.987 51.2317 189.962C52.2377 189.905 53.2066 189.814 54.1713 189.707C56.1009 189.489 58.0057 189.214 59.9146 188.913C63.7325 188.309 67.5668 187.597 71.4589 186.832C77.0084 185.738 82.5456 184.512 88.0456 183.282C94.3784 181.867 100.629 180.418 106.838 178.901C113.043 177.378 119.207 175.786 125.35 174.009C129.836 172.701 134.252 171.237 138.585 169.665C139.801 169.221 141.009 168.764 142.234 168.234C142.844 167.966 143.458 167.682 144.089 167.345C144.402 167.176 144.724 166.991 145.058 166.769C145.392 166.547 145.738 166.304 146.146 165.885L147.004 165.004L146.596 163.811C146.538 163.647 146.484 163.482 146.427 163.314C145.569 160.792 144.843 158.373 144.019 155.843C143.656 154.728 143.223 153.614 142.856 152.503C142.234 150.598 141.64 148.681 141.087 146.777C140.535 144.88 140.053 142.963 139.57 141.054C139.376 140.248 139.17 139.462 138.96 138.673C138.758 137.883 138.572 137.081 138.383 136.262C136.107 126.093 135.097 115.154 134.948 104.759C134.94 103.381 134.911 101.995 134.94 100.604C134.948 99.909 134.961 99.2097 134.969 98.5145C134.994 97.8151 135.014 97.1158 135.039 96.4165C135.072 95.0178 135.179 93.6191 135.249 92.2205C135.324 90.793 135.402 89.3697 135.476 87.9505C135.554 86.5312 135.633 85.1161 135.711 83.7092C135.781 82.3023 135.802 80.9037 135.855 79.5173C135.901 78.131 135.95 76.757 135.996 75.3954C136.037 74.0379 136.029 72.6927 136.053 71.3681C136.062 69.9982 136.074 68.6407 136.082 67.3037C136.053 65.9668 136.008 64.6545 135.967 63.3669C135.917 62.0834 135.888 60.8246 135.822 59.607C135.744 58.3893 135.674 57.2046 135.6 56.0651C135.455 53.1361 135.175 50.598 134.965 48.1215C134.854 46.8833 134.684 45.6656 134.54 44.4192C134.392 43.1727 134.243 41.9057 134.029 40.5728C133.777 38.9397 133.547 37.2531 133.229 35.5747C133.077 34.7355 132.928 33.8922 132.776 33.0571C132.602 32.2261 132.429 31.3993 132.256 30.5847C132.062 29.6139 131.827 28.6554 131.592 27.6969C131.473 27.2197 131.357 26.7425 131.238 26.2653L130.846 24.842C130.595 23.8958 130.302 22.9538 130.013 22.02C129.708 21.0738 129.411 20.1729 129.028 19.1815L128.504 17.8281L127.164 18.2189C124.624 18.9594 122.097 19.6916 119.557 20.3992C113.563 22.0735 106.751 23.8671 102.208 25.3151C98.2046 26.434 93.793 27.4666 89.3113 28.6348C85.5429 29.618 82.3229 30.7493 82.0261 31.5186C81.9354 31.7613 82.6239 31.9052 82.6115 32.2138C82.5909 32.6251 82.8094 33.2381 83.5763 33.3533C83.7866 33.3862 84.5246 33.2299 84.9822 33.234C85.5636 33.2422 85.4193 33.378 85.9841 33.3204C86.9695 33.2175 88.2476 32.8349 90.408 32.3413C92.1067 31.9546 93.558 31.6337 95.2443 31.1895C102.336 29.3218 109.143 27.4789 116.214 25.5002C120.18 24.3895 124.179 23.2994 128.207 22.2133L125.16 20.6337C125.231 20.8188 125.321 21.0821 125.404 21.3248C125.49 21.5634 125.569 21.8225 125.647 22.0776C125.808 22.5836 125.969 23.0978 126.109 23.6202C126.414 24.6569 126.678 25.7182 126.95 26.7754C127.218 27.8368 127.44 28.9146 127.692 29.9841C127.919 31.0619 128.125 32.148 128.343 33.2299C128.562 34.3118 128.723 35.4101 128.916 36.5044C129.007 37.0515 129.11 37.5945 129.193 38.1457L129.428 39.7953C129.58 40.8978 129.758 41.9962 129.894 43.0987L130.285 46.4184C131.246 54.7487 131.563 64.0292 131.427 72.7133C131.436 74.5151 131.37 76.3251 131.316 78.1393C131.258 79.9534 131.234 81.7717 131.159 83.594C130.974 87.2552 130.784 90.9288 130.595 94.59C130.421 98.3129 130.364 102.032 130.397 105.726C130.434 109.42 130.586 113.085 130.788 116.705C131.267 121.078 131.596 124.785 132.326 129.273C132.565 130.626 132.899 132.033 133.18 133.44C133.802 136.723 134.474 140.174 135.472 143.325C135.703 144.238 135.93 145.156 136.165 146.081C136.412 147.011 136.672 147.932 136.936 148.854C137.467 150.693 138.032 152.527 138.61 154.362C139.768 158.032 140.98 161.693 142.225 165.309L142.968 162.89L142.836 162.771C142.836 162.771 142.778 162.717 142.786 162.725V162.73C142.786 162.73 142.774 162.742 142.757 162.754L142.716 162.791L142.65 162.841C142.563 162.906 142.444 162.989 142.312 163.067C142.052 163.231 141.739 163.4 141.421 163.565C140.77 163.894 140.065 164.215 139.343 164.515C137.9 165.12 136.408 165.675 134.924 166.201C131.951 167.255 128.991 168.205 126.146 169.093C120.889 170.426 113.756 172.738 108.149 173.808C107.304 174.005 107.296 174.141 106.533 174.334C96.209 176.757 85.3574 179.567 74.5223 181.764C72.7783 182.117 70.9559 182.41 69.2325 182.755C68.3956 182.924 67.6204 183.138 66.7794 183.294C65.8105 183.471 64.7344 183.611 63.7284 183.783C61.6092 184.137 59.593 184.606 57.6017 184.886C55.969 185.116 54.3363 185.301 52.7366 185.429C51.9367 185.491 51.1451 185.54 50.3947 185.552C50.0237 185.556 49.6608 185.552 49.3516 185.532C49.1991 185.524 49.063 185.507 48.9847 185.491L48.9352 185.482H48.9393C48.9104 185.589 48.8692 185.733 48.828 185.857C48.7744 185.997 48.7579 186.087 48.7208 186.19C48.6878 186.293 48.6466 186.392 48.5971 186.49C48.5394 186.597 48.5229 186.663 48.4858 186.737C48.4487 186.807 48.4074 186.877 48.3539 186.943C48.3167 187.009 48.2796 187.058 48.2219 187.107C48.1724 187.148 48.1724 187.157 48.1312 187.173H48.123C47.7354 187.329 51.4749 185.812 49.8917 186.453L49.8876 186.441L49.8793 186.416L49.8629 186.371L49.8257 186.281L49.6773 185.919L49.3763 185.194C49.1661 184.713 48.9682 184.228 48.7785 183.738C48.3786 182.767 48.0199 181.772 47.6818 180.764C47.4427 179.225 46.5727 177.086 46.2305 174.881C45.1008 171.237 44.4659 165.79 43.7361 161.742C43.6083 160.13 43.3073 158.525 43.1259 156.822C42.928 154.996 42.7879 153.161 42.5735 151.277L42.5322 150.903L42.4663 150.499L42.3302 149.685L42.1941 148.87C42.1488 148.599 42.1034 148.327 42.0334 148.076L41.6582 146.538C41.5304 146.024 41.4108 145.505 41.2582 145.012C40.9614 144.016 40.681 143.008 40.3677 142.021C40.0461 141.038 39.7245 140.055 39.3988 139.067C38.0506 135.155 36.5828 131.288 35.0326 127.434C34.7275 126.681 34.3275 125.899 34.0142 125.118C33.6101 124.098 33.2638 123.061 32.8392 122.02C31.7424 119.338 30.4726 116.693 29.2481 113.97C28.0854 111.374 26.9103 108.753 25.7559 106.178L25.7353 106.129L25.6776 106.022C25.0962 104.965 24.519 103.916 23.9501 102.875C23.3893 101.83 22.7956 100.818 22.2967 99.7733C21.7814 98.7407 21.2701 97.7205 20.7754 96.7209C20.528 96.2231 20.2724 95.7336 20.0374 95.24C19.8065 94.7463 19.5797 94.2568 19.3571 93.7714C17.811 90.5462 16.2607 87.1483 15.0445 83.9519C14.7971 83.2732 14.6487 82.6232 14.3518 81.8251C13.6963 80.1056 12.9912 78.2627 12.3563 76.6048C10.9091 72.1003 9.19398 67.024 7.98596 62.4208C6.83565 58.1014 5.85851 53.239 5.03804 48.9895C4.93084 48.4547 4.75768 47.9282 4.66697 47.3728C4.65048 47.27 4.63811 47.1589 4.62987 47.0396L3.19508 49.0142C3.61974 48.973 4.1145 48.9484 4.47319 48.899C5.40498 48.7632 6.51406 48.5164 7.55717 48.3395C11.3915 47.6896 14.1127 47.3234 17.0152 46.6611C20.2683 46.3691 23.8057 45.2584 26.8691 45.0527C28.0235 44.6536 29.5738 44.5549 30.9879 44.2957C31.8703 44.1353 32.7484 43.8803 33.6761 43.6993C35.082 43.4278 36.7477 43.1809 38.199 42.9094C41.4108 42.3047 44.4535 41.6218 47.0757 41.0583C48.7744 40.6962 50.4978 40.3713 52.0315 40.001C53.1612 39.3757 57.0203 38.7628 58.6984 38.1416C58.9086 37.9113 57.3337 38.2486 57.5027 38.0347C58.1912 37.7549 60.0548 37.4834 60.4218 37.2037C60.4341 37.0597 59.6796 37.1585 59.4281 37.0968C61.9926 36.6154 61.7823 36.4386 62.7801 35.9984C63.7242 35.5788 64.8539 35.2949 64.5117 34.9905C65.7816 34.5915 67.3648 34.1925 68.276 33.7934C67.674 33.8222 67.4803 33.7194 67.2906 33.6207C64.689 34.0691 61.7865 34.4187 59.7002 34.8013H59.6714Z" fill="#024089"/>
<path id="Vector_3" d="M60.0809 51.6557C47.2338 55.284 29.7401 62.0429 23.6381 66.1442C17.5361 70.2456 20.6737 74.3963 20.6737 74.3963C27.1261 79.7894 34.7989 100.494 34.7989 100.494C34.7989 100.494 80.6545 59.6117 121.633 85.5322C121.633 85.5322 123.377 71.7306 121.633 58.2788C121.633 58.2788 124.247 46.8962 112.216 47.3405C112.216 47.3405 99.1295 47.0648 84.9135 48.0439C84.1466 48.0974 83.3756 48.155 82.6047 48.2126C80.7782 48.3565 80.5143 59.8256 79.4959 61.5286C76.6387 66.3047 74.9112 64.8361 70.6275 65.8357C69.9637 65.992 69.2092 56.7033 69.2545 51.2485C69.271 49.1875 60.3283 51.594 60.0768 51.664L60.0809 51.6557Z" fill="#2581C4"/>
<path id="Vector_4" d="M50.9222 115.298C52.7693 115.529 55.8368 116.031 56.1996 116.845C56.1996 116.845 58.8136 93.3599 77.775 93.0967C77.775 93.0967 97.3921 88.5304 103.535 107.581C103.535 107.581 112.903 99.9007 114.651 100.143C115.636 100.283 124.719 110.975 117.661 128.458C117.661 128.458 113.216 141.244 96.3449 136.155C96.3449 136.155 94.1226 137.722 89.8058 138.635C89.8058 138.635 79.082 153.642 61.8192 144.637C61.8192 144.637 49.2524 139.248 49.4957 116.545C49.5039 115.788 50.1677 115.204 50.9181 115.298H50.9222Z" fill="#F18700"/>
<path id="Vector_5" d="M51.7502 157.163C51.7502 157.163 71.3343 159.249 82.0086 157.163C82.0086 157.163 92.683 156.25 103.798 148.68C114.914 141.111 125.114 133.805 127.728 134.85C127.728 134.85 133.088 144.373 127.728 148.944C122.368 153.514 120.538 152.338 104.318 161.729C104.318 161.729 94.0188 167.266 79.4895 162.642C79.4895 162.642 68.0936 159.771 59.2004 159.512C59.2004 159.512 53.7086 160.166 51.7461 157.163H51.7502Z" fill="#F18700"/>
<path id="Vector_6" d="M71.2766 64.306C71.2395 63.0883 71.1529 62.0763 71.0828 60.9656C70.9715 59.1638 71.223 57.2798 71.2848 55.4121C71.3261 54.0669 71.4704 52.5942 71.491 51.2696C71.5157 49.6159 71.5693 47.9293 71.7095 46.2509C71.9239 43.7086 71.8909 41.154 71.961 38.6776C72.0105 36.8675 72.2496 35.0493 72.3156 33.2516C72.3444 32.3877 72.3238 31.4498 72.3568 30.5818C72.4558 27.9202 72.563 25.2463 72.633 22.3626C72.6578 21.3341 72.6454 20.3016 72.6784 19.2732C72.7567 16.9119 72.967 14.6082 73.0412 12.284C73.066 11.4366 72.9835 10.585 73.0371 9.76227C73.0536 9.51545 73.0824 9.26863 73.1072 9.02592V8.98067C73.1072 8.98067 73.1237 8.88194 73.1072 9.09174C73.0742 9.37559 72.9588 9.68411 72.7773 9.93916C72.4063 10.4493 71.8332 10.7331 71.1983 10.7125C70.8808 10.7043 70.5468 10.6015 70.2788 10.4328C70.1469 10.3505 70.0191 10.2436 69.9407 10.1613L69.9779 10.1983L70.1304 10.3546C70.5386 10.7537 70.8849 11.1609 71.3261 11.5188C71.524 11.671 71.759 11.778 71.9692 11.9096C72.6701 12.3868 73.3834 12.8681 74.1544 13.2672C74.4843 13.4235 74.8388 13.4975 75.1852 13.6374C76.2777 14.0241 77.4651 14.3285 78.702 14.4355C79.3246 14.456 79.9513 14.4848 80.5656 14.3902C81.1923 14.3449 81.7778 14.1681 82.3632 14.0035C82.6766 13.9254 82.9528 13.7731 83.2497 13.6538C83.5341 13.5222 83.8475 13.4153 84.1114 13.2548L84.9236 12.7859L85.307 12.5637C85.307 12.5637 85.3647 12.5308 85.4472 12.4897C85.6121 12.4074 85.8842 12.2922 86.2182 12.1153C86.548 11.9343 86.9727 11.6998 87.4221 11.2144C87.6447 10.9635 87.8633 10.6632 88.0158 10.3053C88.0983 10.1284 88.1519 9.94739 88.1972 9.76639L88.2302 9.63064L88.2426 9.56893L88.2632 9.45786C88.3168 9.15756 88.3704 8.86137 88.424 8.5693C88.6054 7.32284 88.3745 5.99 87.9416 4.89987C87.3809 3.49298 86.6016 2.57562 85.5626 1.79813C84.9112 1.33739 84.1938 0.938363 83.5053 0.703881C82.12 0.189667 80.7676 0.160871 79.4978 0.0703698C78.2733 -0.0160182 76.9127 -0.061269 76.0097 0.189667C75.2223 0.259601 74.3688 0.173213 73.4906 0.239032C72.7567 0.29251 72.1342 0.658631 72.1424 1.33739C72.1465 1.55131 72.2991 1.84338 72.3197 2.14368C72.3486 2.53448 72.4475 3.17622 72.5959 3.46418C72.6372 3.54234 72.7609 3.56291 72.8474 3.67398C72.9546 3.81796 72.9381 3.91669 73.0371 3.99074C73.2103 4.12238 73.4246 4.05244 73.7916 4.08947C74.0843 4.12238 74.3276 4.16351 74.6162 4.14294C75.8242 4.0689 76.9828 4.02365 78.1537 4.01542C79.1844 4.01542 80.2069 4.15529 81.0851 4.43913C81.5263 4.57488 81.9221 4.75177 82.2808 4.94512C82.6106 5.1508 82.9363 5.34826 83.1631 5.58686C83.4764 5.88716 83.6826 6.26562 83.7856 6.73458C83.8021 6.85799 83.8392 6.96906 83.8475 7.1007C83.8475 7.23234 83.8557 7.36809 83.864 7.49562C83.864 7.63137 83.8434 7.77947 83.8351 7.91933L83.8228 8.12913L83.7815 8.35127L83.7197 8.72151L83.7114 8.76676V8.79144L83.7073 8.80378L84.9772 9.03826C84.9896 9.03826 85.006 9.04237 85.0225 9.04649C85.0184 9.04649 85.0514 9.05883 85.0225 9.04649H85.0184L84.9772 9.02181C84.8906 8.96833 84.6968 8.82435 84.3835 8.43766L84.132 8.10034C84.099 8.05097 84.1196 8.08388 84.1155 8.07565C84.1155 8.07565 84.1155 8.07565 84.1114 8.07977C84.099 8.08799 84.0784 8.10445 84.0413 8.12502C83.8928 8.21552 83.6001 8.33893 83.1095 8.61455L82.2725 9.11642C81.3655 9.63475 80.3801 9.9186 79.4565 9.77462C78.9041 9.87746 78.4299 9.75405 77.861 9.61418C77.6878 9.56893 77.4775 9.64709 77.292 9.57716C76.855 9.44963 76.4592 9.15344 75.9603 9.10819C75.1151 8.55284 74.241 7.87408 73.4618 7.15418L73.3216 7.02254L73.2515 6.95672L73.235 6.94027L73.1072 6.82097C73.0536 6.77161 72.9959 6.72636 72.9423 6.68522C72.7031 6.50421 72.4228 6.35612 72.1218 6.25739C70.8849 5.8707 69.6274 6.36435 68.9636 7.39278C68.7987 7.64783 68.6791 7.93579 68.6132 8.21963C68.576 8.36773 68.5596 8.49936 68.5472 8.63923L68.5389 8.75442V8.87371C68.5307 9.1987 68.5307 9.51545 68.5266 9.83221C68.5266 10.4657 68.5389 11.0828 68.5637 11.6751C68.3039 12.6624 68.6379 14.0529 68.2586 15.0813C68.238 15.2417 68.3658 15.2541 68.3617 15.3981C68.1308 17.3315 68.3617 19.3966 68.2833 21.4246C68.2709 21.7496 68.1926 22.087 68.1967 22.4078C68.1967 22.5641 68.2586 22.7164 68.2545 22.8727C68.2462 23.0537 68.1844 23.2511 68.172 23.4363C68.139 23.8312 68.2586 24.2179 68.2338 24.5881C68.1885 25.1969 68.0566 25.7975 68.0401 26.4022C68.0277 26.7972 68.1514 27.2003 68.1638 27.5993C67.937 27.8791 68.1555 28.3192 67.9947 28.7265C68.2132 29.4505 67.8999 30.4501 68.0689 31.2153C67.9659 31.5074 68.0524 31.8118 68.0194 32.1285C67.9865 32.4659 67.904 32.7991 67.8958 33.1487C67.8587 34.6297 67.7185 36.1229 67.6937 37.6327C67.6937 37.7808 67.7597 37.9453 67.7515 38.0975C67.7432 38.295 67.6443 38.4924 67.6319 38.694C67.5948 39.2206 67.702 39.7595 67.7185 40.3066C67.7597 41.7217 67.5371 43.1656 67.5164 44.408C67.5082 45.0703 67.5824 45.7655 67.5041 46.3908C67.4876 46.5224 67.3886 46.6417 67.368 46.798C67.3268 47.1353 67.3804 47.5056 67.4051 47.8347C67.2567 48.7027 67.3268 49.6941 67.2938 50.5703C67.2608 51.393 67.0547 52.298 67.067 53.1043C67.067 53.2072 67.1454 53.3141 67.1371 53.417C67.1289 53.5034 67.0258 53.6268 67.0134 53.7091C66.9846 53.8818 67.0341 54.0916 67.0299 54.2809C67.0011 54.9925 66.8898 55.4862 67.0382 56.0374C66.7619 56.6175 67.2361 57.3127 66.9062 57.8557C67.1 58.086 66.9269 58.3575 66.9351 58.6208C66.9392 58.7854 67.0382 58.9582 67.0547 59.1309C67.0794 59.3942 67.0299 59.6986 67.0464 59.9701C67.0835 60.5707 67.2278 61.1466 67.3227 61.6403C67.3845 61.9612 67.401 62.282 67.5041 62.5741C67.9246 62.8168 67.8545 63.5285 68.1761 63.8658C68.3658 63.9193 68.3081 63.6231 68.4895 63.6684C68.642 63.8082 68.5884 64.1497 68.7987 64.236C68.9389 64.2484 68.9719 64.1126 69.0749 64.0715C69.1038 64.5487 69.3141 64.5281 69.5738 64.7338C69.8212 64.9271 69.9036 65.1452 70.2623 65.1123C70.4355 65.3632 70.5509 65.6635 70.7901 65.8527C70.8684 65.7458 71.0003 65.7211 71.1323 65.6964C71.1447 65.2151 71.3013 64.6886 71.289 64.3019L71.2766 64.306Z" fill="#024089"/>
<path id="Vector_7" d="M82.1891 65.7581C82.1685 65.0012 82.0943 64.3677 82.0448 63.6725C81.9624 62.5494 82.2427 61.3976 82.3293 60.2417C82.3912 59.4107 82.5602 58.5057 82.5973 57.687C82.6468 56.6627 82.7292 55.622 82.8983 54.5894C83.1539 53.0262 83.1622 51.4424 83.2735 49.9121C83.3518 48.7932 83.6239 47.6825 83.7188 46.5759C83.7641 46.0452 83.76 45.457 83.8095 44.9222C83.9538 43.2808 84.1104 41.6312 84.2383 39.8459C84.2836 39.2082 84.2918 38.5665 84.3454 37.933C84.4691 36.4726 84.7248 35.0616 84.8484 33.63C84.8938 33.1076 84.8237 32.5728 84.8979 32.0668C84.9392 31.7624 85.0257 31.4704 85.0628 31.1618C85.0958 30.8615 85.2113 30.5859 85.2566 30.2856C85.2772 30.154 85.2236 30.01 85.2319 29.8783C85.2607 29.4217 85.3762 28.9774 85.4463 28.529C85.4751 28.3398 85.4339 28.1506 85.4504 27.9572C85.5617 26.7684 85.908 25.5466 86.0194 24.3577C86.1348 23.0989 86.242 21.7702 86.5306 20.6101C86.679 20.0095 86.6584 19.4131 86.6955 18.903C86.7409 18.2489 86.7739 17.7635 86.7739 17.1587C86.7739 16.7885 86.7821 16.3936 86.7739 16.0192C86.7491 15.2664 86.5842 14.5136 86.576 13.7773C86.5677 13.0697 86.6708 12.2881 86.5018 11.7245C86.5018 11.2556 86.7038 10.7784 86.8027 10.2971C86.844 10.0955 86.8192 9.90216 86.7079 9.74584C86.6007 9.57306 86.3781 9.49079 86.1183 9.26042C85.9575 9.11644 85.6442 9.04239 85.3844 8.89019C85.0587 8.67627 84.5021 8.31015 84.0692 8.51172C84.0445 8.51584 83.9991 8.57343 83.9826 8.57754C83.9579 8.594 83.9373 8.61457 83.9084 8.63513C83.8589 8.67627 83.7971 8.72564 83.727 8.75443C83.5415 8.81614 83.4508 8.78323 83.3477 8.84493C83.257 8.90253 83.2075 8.98891 83.1622 9.09998C83.1168 9.21517 83.0921 9.31801 83.022 9.4661C82.9189 9.68825 82.8282 9.85691 82.7911 10.0749C82.6468 10.9676 82.5891 11.7862 82.5973 12.6501C82.6138 14.1681 82.3953 15.6614 82.3334 17.1752C82.2922 18.146 82.0984 19.195 81.917 20.1782C81.616 21.8114 81.7356 23.5432 81.1543 25.1064C81.1914 25.6083 81.0265 26.0073 80.9605 26.5092C80.9399 26.6614 81.0223 26.8342 81.0058 26.9946C80.9646 27.3649 80.7873 27.7392 80.9316 28.13C80.507 29.6685 80.3544 31.3922 80.4039 32.869C80.1235 33.4614 80.4286 34.3541 80.0287 34.9588C80.004 35.0575 80.1318 35.074 80.1235 35.1645C79.8514 36.3492 80.0411 37.6491 79.9256 38.8997C79.905 39.1013 79.8226 39.3029 79.8184 39.5044C79.8184 39.6032 79.8762 39.7019 79.8679 39.7965C79.8555 39.9076 79.7937 40.0269 79.7731 40.1421C79.736 40.3848 79.8473 40.6357 79.8102 40.862C79.7566 41.2363 79.6123 41.5983 79.5834 41.9727C79.5628 42.2154 79.6783 42.4745 79.6824 42.7255C79.4515 42.8818 79.6618 43.1739 79.4968 43.4125C79.703 43.8773 79.3732 44.4738 79.5257 44.9633C79.4185 45.1361 79.4968 45.3336 79.4597 45.5269C79.4185 45.7326 79.3319 45.9342 79.3196 46.1481C79.2577 47.0654 79.0928 47.9787 79.0392 48.9166C79.0351 49.0071 79.0969 49.1141 79.0887 49.2087C79.0763 49.3321 78.9774 49.4432 78.9609 49.5707C78.9155 49.8957 79.0103 50.2371 79.0186 50.5785C79.0392 51.4589 78.7877 52.3392 78.7465 53.1126C78.7259 53.524 78.7918 53.96 78.7011 54.3426C78.6805 54.4249 78.5815 54.4907 78.5609 54.5853C78.5156 54.791 78.5609 55.0255 78.5816 55.2311C78.4166 55.7577 78.4744 56.3789 78.4249 56.9219C78.3754 57.432 78.1569 57.9791 78.1569 58.481C78.1569 58.5427 78.2311 58.6167 78.2228 58.6826C78.2146 58.736 78.1074 58.8019 78.095 58.8553C78.0621 58.9582 78.1115 59.0939 78.0992 59.2132C78.0621 59.6534 77.9425 59.9537 78.0785 60.3034C77.7941 60.6448 78.2558 61.1096 77.9219 61.4223C78.1115 61.5786 77.9342 61.7349 77.9425 61.8995C77.9425 62.0023 78.0414 62.1134 78.0538 62.2245C78.0744 62.389 78.0208 62.5741 78.0332 62.7428C78.0621 63.1171 78.1981 63.4874 78.2847 63.8C78.3424 64.0016 78.3548 64.2032 78.4496 64.3924C78.866 64.5734 78.7877 65.0094 79.101 65.2439C79.2907 65.2933 79.233 65.1041 79.4185 65.1452C79.5711 65.2439 79.5092 65.4496 79.7195 65.5196C79.8597 65.5401 79.8926 65.4537 79.9998 65.4373C80.0205 65.7376 80.2307 65.7376 80.4905 65.8857C80.7337 66.0255 80.8162 66.1654 81.1749 66.1695C81.3439 66.3382 81.4553 66.5315 81.6903 66.6673C81.7686 66.6097 81.9005 66.6015 82.0325 66.5973C82.0531 66.3012 82.218 65.9844 82.2098 65.7417L82.1891 65.7581Z" fill="#024089"/>
<path id="Vector_8" d="M72.2059 25.8991C72.3255 25.6852 72.3873 25.4671 72.478 25.2491C72.6182 24.8912 72.9893 24.8131 73.2408 24.5827C73.4222 24.414 73.6778 24.3112 73.8428 24.1261C74.0489 23.8998 74.2715 23.69 74.5478 23.5502C74.9683 23.3362 75.2363 22.929 75.562 22.6122C75.797 22.3778 76.1516 22.2914 76.3907 22.0733C76.5062 21.9664 76.601 21.8101 76.7165 21.7031C77.0752 21.3781 77.4421 21.0572 77.8049 20.6706C77.9327 20.5348 78.0399 20.3661 78.176 20.2386C78.4852 19.9383 78.8728 19.7491 79.1779 19.4529C79.2892 19.3418 79.3263 19.1485 79.45 19.0621C79.5242 19.0127 79.6273 18.9963 79.6974 18.9387C79.7674 18.8811 79.8829 18.8934 79.9571 18.8441C79.9901 18.8235 79.9777 18.7453 80.0024 18.7124C80.089 18.6096 80.2333 18.5726 80.3488 18.4985C80.3941 18.4656 80.3983 18.3833 80.4395 18.3463C80.691 18.1036 81.1033 18.0131 81.3507 17.7622C81.6145 17.4948 81.8784 17.1945 82.2371 17.0711C82.4226 17.0052 82.4927 16.8201 82.5875 16.6967C82.7112 16.5404 82.7978 16.4211 82.8803 16.2442C82.9298 16.1373 82.9875 16.0262 83.0287 15.9069C83.1112 15.6642 83.0947 15.3186 83.1771 15.0883C83.2555 14.8661 83.4204 14.6933 83.3585 14.393C83.408 14.2449 83.5935 14.2203 83.709 14.1174C83.8038 14.0269 83.6925 13.739 83.2472 13.2412C83.0988 13.089 82.8844 12.8627 82.6783 12.6488C82.4144 12.3567 81.9691 11.8878 81.7465 11.678C81.6846 11.6204 81.6434 11.6122 81.5527 11.534C81.4331 11.4312 81.3713 11.3571 81.3012 11.3078C81.1775 11.2214 81.1816 11.2831 81.0868 11.2831C81.0126 11.2831 80.9384 11.2707 80.9054 11.3119C80.7528 11.4846 80.6415 11.6903 80.5591 11.9454C80.4147 12.402 80.0932 12.6735 79.8623 13.052C79.7138 13.2988 79.45 13.4469 79.1944 13.5909C78.7779 13.8253 78.6213 14.3889 78.0152 14.3848C77.9698 14.5452 77.8049 14.537 77.6895 14.6234C77.6565 14.6522 77.6853 14.7592 77.6482 14.788C77.5699 14.8579 77.3967 14.8291 77.438 15.0389C76.9391 15.1376 76.5845 15.4873 76.399 15.9192C76.1269 15.8657 76.1928 16.3347 75.8424 16.1948C75.8135 16.2031 75.8919 16.3059 75.8754 16.3224C75.5208 16.4334 75.4466 16.923 75.1786 17.1657C75.1374 17.2027 75.0508 17.1945 75.0178 17.2438C75.0013 17.2685 75.026 17.3385 75.0054 17.359C74.9807 17.3796 74.923 17.359 74.8941 17.3796C74.8323 17.4125 74.8652 17.5647 74.8075 17.5976C74.7127 17.6552 74.5643 17.6429 74.4901 17.7169C74.4406 17.7663 74.4736 17.9226 74.4365 17.9925C74.2633 17.8568 74.354 18.0954 74.2097 18.0296C74.2674 18.3093 73.9623 18.2147 73.9829 18.4574C73.8881 18.4204 73.9046 18.5314 73.851 18.5561C73.7933 18.5808 73.7067 18.5643 73.6613 18.6096C73.4758 18.7988 73.2243 18.914 73.0429 19.1156C73.0264 19.1361 73.047 19.2102 73.0264 19.2266C72.9975 19.2472 72.9192 19.202 72.8862 19.2225C72.8079 19.2719 72.812 19.4364 72.7625 19.5269C72.6306 19.7697 72.3337 19.8067 72.1812 19.9753C72.1029 20.0658 72.0699 20.2304 71.9503 20.2592C71.9256 20.2633 71.8514 20.2057 71.8225 20.2139C71.7607 20.2345 71.7524 20.3291 71.7318 20.3991C71.5421 20.4073 71.4762 20.613 71.3566 20.7158C71.2412 20.8104 71.0144 20.7816 70.9319 20.9092C70.9237 20.9256 70.9567 21.0038 70.9402 21.012C70.9278 21.0202 70.8495 20.9544 70.833 20.9585C70.7959 20.9585 70.8041 21.0326 70.7794 21.0531C70.6846 21.1354 70.5609 21.119 70.5856 21.3164C70.3506 21.1807 70.565 21.662 70.3011 21.481C70.3918 21.6661 70.2558 21.5715 70.2352 21.6167C70.2187 21.6455 70.2599 21.7484 70.2517 21.7854C70.2352 21.843 70.1733 21.8471 70.1527 21.9006C70.1073 22.0199 70.1321 22.2173 70.1321 22.3654C70.1321 22.4641 70.1074 22.5217 70.1321 22.6451C70.3589 23.0154 70.2352 23.0647 70.3918 23.3692C70.499 23.5296 70.499 23.4391 70.6062 23.5913C70.6846 23.7353 70.6104 23.7394 70.7299 23.9204C70.8124 24.0356 70.8495 24.0397 70.9154 24.1179C70.8783 24.2125 71.0062 24.377 71.1422 24.6115C71.27 24.8378 71.2948 24.9365 71.5174 25.2162C71.5916 25.389 71.6287 25.5289 71.7483 25.7428C71.806 25.788 71.8885 25.8909 71.9751 25.9937C72.0369 25.932 72.1936 25.9772 72.2307 25.9114L72.2059 25.8991Z" fill="#024089"/>
<path id="Vector_9" d="M71.571 39.1093C71.6163 38.9201 71.6081 38.7267 71.641 38.521C71.7111 38.1878 72.0245 38.1014 72.2348 37.8793C72.3873 37.7189 72.6182 37.616 72.7501 37.4391C72.9233 37.2211 73.1336 37.0195 73.3892 36.8879C73.7767 36.6904 74.0365 36.2996 74.3416 35.9993C74.5725 35.7813 74.9188 35.7155 75.1538 35.5098C75.2651 35.4111 75.3641 35.263 75.4795 35.1643C75.8382 34.8681 76.2093 34.576 76.5886 34.2263C76.7247 34.1029 76.836 33.9466 76.9762 33.8273C77.3019 33.5599 77.6977 33.4077 78.0151 33.1403C78.1306 33.0416 78.1883 32.8524 78.3161 32.7824C78.3945 32.7413 78.4934 32.7331 78.5676 32.6837C78.6418 32.6343 78.7531 32.659 78.8315 32.6138C78.8645 32.5932 78.8603 32.515 78.8892 32.4903C78.9882 32.3957 79.1325 32.3793 79.2479 32.3176C79.2974 32.2929 79.3056 32.2106 79.351 32.1736C79.6231 31.9597 80.0354 31.9226 80.3075 31.7005C80.592 31.466 80.8888 31.2069 81.2558 31.1287C81.4454 31.0876 81.5361 30.9148 81.6475 30.8078C81.7876 30.668 81.8866 30.561 81.9938 30.3965C82.0598 30.2977 82.1299 30.1949 82.1835 30.0797C82.2948 29.8535 82.3236 29.5079 82.435 29.2899C82.5422 29.0801 82.7277 28.932 82.7112 28.6235C82.7813 28.4795 82.9709 28.4836 83.0946 28.3931C83.2018 28.3149 83.1276 28.0187 82.7524 27.4634C82.6246 27.2906 82.4432 27.0438 82.2659 26.8011C82.0391 26.4802 81.664 25.9537 81.4661 25.7151C81.4125 25.6492 81.3754 25.6369 81.2929 25.5464C81.1898 25.4312 81.1362 25.3489 81.0744 25.2913C80.9631 25.1885 80.9589 25.2543 80.8641 25.2379C80.7899 25.2255 80.7198 25.2091 80.6786 25.242C80.5095 25.3942 80.3694 25.5793 80.2498 25.822C80.0478 26.254 79.6849 26.4843 79.4005 26.8381C79.2232 27.0644 78.9304 27.1837 78.6583 27.2947C78.2089 27.4798 77.978 28.027 77.3678 27.9611C77.3019 28.1175 77.137 28.0887 77.0091 28.1668C76.972 28.1915 76.9885 28.3026 76.9473 28.3273C76.8566 28.389 76.6875 28.3437 76.704 28.5576C76.1845 28.607 75.7887 28.932 75.5537 29.3516C75.2857 29.2775 75.3022 29.7506 74.96 29.5902C74.927 29.5943 75.0013 29.7054 74.9806 29.7218C74.6096 29.8082 74.4859 30.2936 74.1932 30.524C74.1478 30.561 74.0612 30.5446 74.02 30.5939C73.9994 30.6186 74.02 30.6885 73.9953 30.7091C73.9705 30.7297 73.9087 30.7091 73.8798 30.7214C73.8138 30.7544 73.8345 30.9066 73.7726 30.9395C73.6737 30.993 73.5211 30.9724 73.4387 31.0464C73.3851 31.0958 73.4057 31.2521 73.3644 31.322C73.1995 31.1781 73.2737 31.4208 73.1294 31.3508C73.1707 31.6347 72.8656 31.5277 72.8697 31.7746C72.7749 31.7375 72.7872 31.8486 72.7295 31.8692C72.6677 31.8897 72.5811 31.8774 72.5316 31.9226C72.3296 32.116 72.0698 32.2271 71.8719 32.4286C71.8513 32.4492 71.8719 32.5274 71.8513 32.5438C71.8225 32.5644 71.74 32.5191 71.707 32.5397C71.6246 32.5932 71.6204 32.7577 71.5668 32.8523C71.4267 33.1033 71.1174 33.1444 70.9566 33.3172C70.8701 33.4077 70.8412 33.5805 70.7175 33.6175C70.6928 33.6257 70.6144 33.5681 70.5856 33.5764C70.5196 33.5969 70.5114 33.6957 70.4907 33.7697C70.297 33.7903 70.2269 34.0001 70.1032 34.1111C69.9877 34.2181 69.7486 34.2099 69.6661 34.3497C69.6538 34.3662 69.695 34.4444 69.6785 34.4526C69.662 34.4608 69.5837 34.4032 69.5631 34.4073C69.526 34.4114 69.5342 34.4855 69.5054 34.5102C69.4064 34.6048 69.2745 34.6007 69.3116 34.7981C69.0601 34.6912 69.3033 35.1601 69.023 35.012C69.1302 35.1931 68.9817 35.1149 68.9611 35.1643C68.9446 35.1972 68.9941 35.2959 68.9859 35.337C68.9735 35.3987 68.9075 35.4152 68.8869 35.4728C68.8498 35.6003 68.8869 35.7978 68.9075 35.9541C68.9199 36.0528 68.8993 36.1227 68.9405 36.242C69.2209 36.5753 69.1013 36.6493 69.3075 36.9249C69.4435 37.0648 69.4229 36.9743 69.5548 37.1059C69.6538 37.2335 69.5837 37.2499 69.7321 37.4062C69.8352 37.505 69.8682 37.505 69.9506 37.5708C69.9341 37.6654 70.0908 37.8011 70.264 38.0109C70.433 38.2043 70.4784 38.2948 70.7464 38.5293C70.8577 38.6815 70.9237 38.8008 71.0886 38.9818C71.1545 39.0188 71.2535 39.1011 71.3524 39.1875C71.3895 39.134 71.538 39.1669 71.5545 39.1093H71.571Z" fill="#024089"/>
<path id="Vector_10" d="M71.7642 51.5934C71.8054 51.3836 71.7971 51.1738 71.8136 50.9557C71.8549 50.602 72.1847 50.4662 72.3661 50.2111C72.5063 50.0301 72.7289 49.8944 72.8485 49.6969C72.9928 49.4501 73.1866 49.2239 73.4298 49.0593C73.7968 48.8043 74.0153 48.3888 74.2874 48.0473C74.4894 47.8005 74.8316 47.6894 75.046 47.455C75.1491 47.3439 75.2274 47.1793 75.3346 47.0683C75.6645 46.7268 75.9984 46.3895 76.3448 45.9987C76.4643 45.8588 76.5633 45.6902 76.6911 45.5544C76.9921 45.25 77.3673 45.0567 77.66 44.7564C77.7672 44.6453 77.8043 44.452 77.928 44.3697C78.0022 44.3203 78.1011 44.3039 78.1712 44.2463C78.2413 44.1887 78.3568 44.201 78.4269 44.1517C78.4598 44.1311 78.4475 44.0529 78.4722 44.0241C78.5588 43.9213 78.7031 43.8884 78.8144 43.8184C78.8598 43.7896 78.8639 43.7033 78.9051 43.6662C79.1566 43.4235 79.5689 43.3536 79.8204 43.1109C80.0843 42.8517 80.3605 42.572 80.7192 42.4691C80.9048 42.4157 80.9831 42.2347 81.082 42.1195C81.2099 41.9714 81.3047 41.8603 81.3954 41.6916C81.4531 41.5888 81.515 41.4819 81.5644 41.3667C81.6634 41.1322 81.6716 40.7907 81.7747 40.5686C81.8737 40.3547 82.0468 40.1984 82.0221 39.894C82.088 39.75 82.2736 39.75 82.3973 39.6554C82.5003 39.5772 82.422 39.2769 82.0386 38.7298C81.919 38.557 81.717 38.3184 81.5438 38.0716C81.3171 37.7507 80.9336 37.2283 80.7316 36.9979C80.678 36.9362 80.6368 36.9239 80.5543 36.8334C80.4471 36.7182 80.3976 36.64 80.3317 36.5824C80.2162 36.4837 80.208 36.5495 80.109 36.5413C80.0307 36.5331 79.9565 36.5207 79.9111 36.5619C79.7215 36.7305 79.5689 36.9321 79.4494 37.1954C79.2391 37.6561 78.868 37.9194 78.5918 38.302C78.4145 38.5488 78.1218 38.6928 77.8496 38.8326C77.3961 39.063 77.1982 39.6389 76.5715 39.6389C76.5138 39.8035 76.3448 39.7952 76.2211 39.8857C76.184 39.9145 76.2087 40.0215 76.1716 40.0544C76.085 40.1284 75.9077 40.0996 75.9407 40.3177C75.4171 40.4246 75.0378 40.799 74.8358 41.2474C74.5554 41.2021 74.6172 41.6793 74.2544 41.5559C74.2214 41.5641 74.3039 41.667 74.2874 41.6834C73.9205 41.8151 73.838 42.3169 73.5659 42.5884C73.5205 42.6296 73.434 42.6255 73.401 42.6831C73.3845 42.7077 73.4092 42.7818 73.3886 42.8024C73.3639 42.827 73.302 42.8106 73.2732 42.8312C73.2072 42.8723 73.2484 43.0245 73.1866 43.0615C73.0917 43.1273 72.9392 43.1273 72.8609 43.2096C72.8114 43.2631 72.8485 43.4194 72.8155 43.4976C72.6341 43.3783 72.733 43.6086 72.5805 43.5593C72.6506 43.839 72.3331 43.7691 72.362 44.0159C72.263 43.9912 72.2878 44.0982 72.2301 44.127C72.1723 44.1599 72.0816 44.1558 72.0363 44.2051C71.8549 44.4232 71.6034 44.5671 71.4261 44.7975C71.4096 44.8181 71.4384 44.8962 71.4178 44.9127C71.389 44.9374 71.3024 44.9045 71.2735 44.9291C71.1952 44.9908 71.2117 45.1595 71.1663 45.2624C71.0509 45.5297 70.7458 45.6079 70.6056 45.8054C70.5314 45.9123 70.519 46.0851 70.3995 46.1345C70.3747 46.1468 70.2923 46.0974 70.2634 46.1098C70.2016 46.1386 70.2016 46.2414 70.1892 46.3155C69.9954 46.3607 69.9501 46.5787 69.8387 46.7063C69.7357 46.8256 69.4965 46.8461 69.4306 46.9942C69.4223 47.0148 69.4677 47.0847 69.4512 47.0971C69.4388 47.1053 69.3481 47.06 69.3316 47.0642C69.2945 47.0765 69.311 47.1464 69.2863 47.1752C69.1997 47.2781 69.0677 47.2945 69.1255 47.4879C68.8616 47.4097 69.1584 47.8458 68.8616 47.7306C68.9853 47.8992 68.8327 47.8334 68.8162 47.8869C68.8039 47.9198 68.8657 48.0144 68.8616 48.0556C68.8575 48.1173 68.7915 48.1419 68.7791 48.1995C68.7544 48.3271 68.8162 48.5286 68.8492 48.6767C68.8698 48.7755 68.8575 48.8413 68.9111 48.9606C69.2203 49.265 69.109 49.3514 69.3357 49.6064C69.48 49.734 69.4594 49.6435 69.5996 49.7669C69.7109 49.8862 69.6408 49.9108 69.8016 50.0548C69.9129 50.1412 69.9459 50.1412 70.0325 50.1988C70.0201 50.2975 70.1892 50.4209 70.3788 50.6143C70.5602 50.7953 70.6138 50.8817 70.9025 51.0956C71.022 51.2396 71.0962 51.3589 71.2735 51.5275C71.3395 51.5563 71.4467 51.6345 71.558 51.7085C71.5951 51.6427 71.7518 51.6592 71.7683 51.5934H71.7642Z" fill="#024089"/>
<path id="Vector_11" d="M70.4009 62.4137C70.5081 62.2615 70.5741 62.0846 70.6607 61.916C70.7967 61.6403 71.0812 61.6897 71.2873 61.5622C71.4358 61.4717 71.6378 61.4552 71.7738 61.3441C71.9429 61.2043 72.1284 61.0891 72.3511 61.0438C72.685 60.9821 72.9159 60.6983 73.1757 60.5091C73.3653 60.3733 73.6415 60.398 73.8394 60.2705C73.9343 60.2088 74.0085 60.0936 74.1033 60.0319C74.3919 59.8426 74.6847 59.6616 74.9733 59.4189C75.0763 59.3325 75.1629 59.2132 75.2701 59.1351C75.5134 58.9541 75.8226 58.8965 76.0576 58.7073C76.1442 58.6373 76.173 58.4728 76.272 58.4358C76.3297 58.4111 76.4122 58.4234 76.4658 58.3905C76.5194 58.3617 76.6142 58.3987 76.6719 58.374C76.6967 58.3617 76.6884 58.2918 76.7049 58.2712C76.775 58.2013 76.8863 58.2095 76.977 58.1725C77.0141 58.156 77.0141 58.082 77.0471 58.0573C77.245 57.9092 77.5666 57.938 77.7604 57.7776C77.9624 57.6089 78.1644 57.4114 78.4489 57.395C78.5973 57.3868 78.6468 57.2387 78.7169 57.1564C78.8076 57.0494 78.8736 56.9672 78.9354 56.8314C78.9725 56.7491 79.0138 56.6669 79.0426 56.5722C79.1003 56.3789 79.0715 56.0745 79.1292 55.8935C79.1828 55.7207 79.3065 55.6096 79.2488 55.334C79.2818 55.2188 79.4302 55.2476 79.5168 55.1859C79.5869 55.1324 79.4879 54.8527 79.1086 54.3015C78.9849 54.1287 78.8035 53.8778 78.6262 53.6351C78.4036 53.3142 78.0284 52.7835 77.8387 52.5408C77.7892 52.475 77.7563 52.4585 77.6779 52.3639C77.579 52.2446 77.5254 52.1623 77.4677 52.1006C77.3646 51.9937 77.3728 52.0472 77.2945 52.0225C77.2326 52.0019 77.1749 51.9731 77.1502 51.9978C77.0389 52.1089 76.9564 52.2528 76.9069 52.4544C76.8162 52.8082 76.5771 52.9604 76.4122 53.2278C76.3091 53.4006 76.1071 53.4623 75.9174 53.5158C75.6041 53.6021 75.5092 54.0547 75.0434 53.886C75.0145 54.0135 74.8867 53.96 74.8042 54.0053C74.7795 54.0176 74.8042 54.1205 74.7795 54.1369C74.7218 54.1781 74.5898 54.0999 74.6269 54.2974C74.2476 54.2439 73.992 54.4455 73.8642 54.7745C73.658 54.6511 73.7199 55.079 73.4519 54.8568C73.4313 54.8568 73.4931 54.9679 73.4766 54.9761C73.2128 54.9679 73.1633 55.3793 72.9654 55.5109C72.9324 55.5315 72.8706 55.4986 72.8458 55.5315C72.8334 55.5479 72.8499 55.6179 72.8376 55.6261C72.8211 55.6384 72.7757 55.6014 72.751 55.6096C72.7056 55.622 72.7304 55.766 72.6891 55.7783C72.6191 55.7989 72.5077 55.7454 72.45 55.7865C72.4129 55.8153 72.4376 55.9634 72.4088 56.0128C72.281 55.84 72.3469 56.0786 72.2397 55.9758C72.281 56.239 72.0542 56.0621 72.0707 56.2843C72.0006 56.2226 72.013 56.3254 71.9717 56.3295C71.9264 56.3295 71.8646 56.2925 71.8316 56.3172C71.6914 56.4283 71.5059 56.4529 71.3657 56.5722C71.3533 56.5846 71.3657 56.6586 71.3533 56.6669C71.3327 56.6792 71.275 56.6093 71.2502 56.6175C71.1884 56.6381 71.1925 56.782 71.1513 56.8479C71.0523 57.0248 70.8297 56.9589 70.7142 57.0577C70.6524 57.1111 70.6277 57.2469 70.537 57.2346C70.5163 57.2346 70.4669 57.1523 70.4421 57.1523C70.3968 57.1523 70.3885 57.2304 70.3679 57.288C70.2277 57.2345 70.1741 57.395 70.0834 57.4443C69.9969 57.4896 69.8319 57.3909 69.766 57.4773C69.7577 57.4896 69.7825 57.5678 69.766 57.5719C69.7536 57.5719 69.7041 57.4896 69.6876 57.4855C69.6588 57.4731 69.6629 57.5431 69.6423 57.5513C69.5681 57.5924 69.4774 57.5348 69.4897 57.72C69.3248 57.5225 69.4567 58.0203 69.2753 57.7693C69.3331 57.9668 69.2382 57.8352 69.2176 57.8681C69.2052 57.8886 69.23 57.9956 69.2176 58.0244C69.2052 58.0696 69.1558 58.0532 69.1393 58.0943C69.1022 58.1848 69.1063 58.3699 69.098 58.5016C69.0939 58.588 69.0692 58.6332 69.0816 58.7525C69.2259 59.1598 69.131 59.1639 69.2259 59.4889C69.2959 59.6699 69.3001 59.5876 69.366 59.7604C69.4114 59.9167 69.3578 59.8961 69.432 60.0977C69.4856 60.2293 69.5103 60.2458 69.5557 60.3363C69.5227 60.4062 69.6052 60.5996 69.6876 60.8587C69.766 61.1056 69.7742 61.2002 69.9185 61.5293C69.9597 61.7103 69.9762 61.846 70.0463 62.0846C70.0876 62.1463 70.1412 62.2656 70.1948 62.3849C70.2484 62.352 70.3638 62.4466 70.3968 62.3973L70.4009 62.4137Z" fill="#024089"/>
<path id="Vector_12" d="M70.8639 67.227C70.8309 67.1406 70.7691 66.9843 70.7526 66.8691C70.7319 66.6757 70.8391 66.7745 70.9381 66.7374C70.9752 66.721 70.9999 66.7169 71.0535 66.7169C71.1154 66.721 71.1731 66.721 71.2226 66.6922C71.3298 66.614 71.5607 66.5852 71.7462 66.6346C72.076 66.7169 72.443 66.5647 72.8594 66.4988C73.1398 66.4618 73.4902 66.5811 73.8118 66.5318C73.9643 66.5112 74.1334 66.4207 74.2942 66.3837C74.5416 66.3261 74.7889 66.2849 75.0404 66.2027C75.2919 66.1204 75.5476 66.0258 75.8032 65.9188C75.9846 65.8407 76.1454 65.6967 76.3186 65.6144C76.5165 65.5116 76.7309 65.4499 76.9329 65.3717C77.1267 65.2853 77.3246 65.1948 77.5018 65.0755C77.6338 64.985 77.7039 64.7999 77.8399 64.7423C77.9224 64.7053 78.0131 64.697 78.0873 64.6477C78.1574 64.5983 78.2687 64.6189 78.3471 64.5777C78.38 64.5572 78.3718 64.479 78.4007 64.4543C78.4914 64.3597 78.6357 64.3392 78.7511 64.2733C78.8006 64.2445 78.8047 64.1664 78.8459 64.1294C79.0974 63.9072 79.4685 63.8249 79.6994 63.5822C79.819 63.4547 79.9344 63.319 80.0663 63.1997C80.19 63.0804 80.3137 62.9734 80.4745 62.9076C80.6394 62.8376 80.6806 62.6566 80.7507 62.5415C80.8414 62.3893 80.9074 62.2741 80.9569 62.1054C80.9857 62.0026 81.027 61.8997 81.0352 61.7845C81.06 61.5542 80.9693 61.2374 80.9899 61.0235C81.0105 60.8137 81.1177 60.6491 80.9981 60.3859C81.0105 60.2501 81.1754 60.2213 81.2537 60.1185C81.3197 60.0321 81.1507 59.7853 80.6229 59.3739C80.4498 59.2464 80.1983 59.0654 79.9591 58.8885C79.6458 58.6499 79.1263 58.2632 78.8707 58.0904C78.8006 58.0452 78.7635 58.0369 78.6604 57.9711C78.5285 57.8888 78.4543 57.8271 78.38 57.786C78.2481 57.7161 78.2687 57.7695 78.1821 57.7695C78.1162 57.7695 78.0502 57.7613 78.0296 57.7942C77.943 57.9423 77.9018 58.111 77.9018 58.329C77.9018 58.7157 77.7039 58.9666 77.5926 59.2628C77.5266 59.4603 77.3328 59.5755 77.1596 59.6783C76.8793 59.8675 76.8463 60.2954 76.3639 60.209C76.3557 60.3406 76.2237 60.3077 76.1536 60.3653C76.133 60.3818 76.1743 60.4846 76.1536 60.5011C76.1 60.5422 75.9681 60.4723 76.0258 60.6615C75.6548 60.6162 75.461 60.8466 75.3579 61.1263C75.1724 60.9865 75.2342 61.4102 74.9992 61.1716C74.9786 61.1716 75.0363 61.2868 75.024 61.295C74.8013 61.2456 74.7477 61.6159 74.5622 61.7187C74.5333 61.7352 74.4838 61.6817 74.4591 61.7064C74.4467 61.7187 74.455 61.7887 74.4385 61.7928C74.422 61.7969 74.389 61.7557 74.3684 61.7516C74.3272 61.7516 74.3272 61.8915 74.2901 61.8956C74.2282 61.8956 74.1458 61.8174 74.0922 61.8421C74.0592 61.8627 74.0468 62.0067 74.0097 62.0437C73.9396 61.8421 73.9396 62.0848 73.8736 61.9532C73.8407 62.2165 73.6964 61.9738 73.6428 62.1877C73.6015 62.1054 73.5809 62.2124 73.5438 62.2C73.5026 62.1877 73.4572 62.126 73.4201 62.1342C73.247 62.1794 73.0903 62.1383 72.8883 62.1836C72.8676 62.1836 72.8511 62.2617 72.8305 62.2617C72.8058 62.2617 72.7769 62.1753 72.7522 62.1753C72.6821 62.1671 72.6161 62.2988 72.5461 62.344C72.3646 62.4592 72.1338 62.3029 71.9565 62.344C71.8658 62.3646 71.7544 62.4798 71.6472 62.4345C71.6266 62.4263 71.6019 62.3317 71.5772 62.3234C71.5194 62.3029 71.4617 62.3769 71.4081 62.418C71.2638 62.3152 71.103 62.4427 70.934 62.4674C70.7814 62.488 70.5918 62.3481 70.4475 62.4139C70.431 62.4222 70.4227 62.5085 70.4021 62.5044C70.3856 62.5044 70.3444 62.4139 70.3238 62.4098C70.2825 62.3975 70.2537 62.4674 70.2125 62.4756C70.0682 62.5127 69.9445 62.451 69.8744 62.6484C69.6847 62.4386 69.6971 62.9528 69.4951 62.7142C69.5157 62.924 69.4085 62.7965 69.359 62.8376C69.3301 62.8623 69.3343 62.9775 69.3095 63.0104C69.2724 63.0639 69.1982 63.0557 69.157 63.105C69.0704 63.2161 69.0292 63.4095 69.0086 63.5658C68.9921 63.6686 68.955 63.7262 68.9673 63.8537C69.1487 64.2486 69.0292 64.2857 69.1735 64.5942C69.2724 64.7588 69.2683 64.6724 69.3631 64.8328C69.4332 64.9768 69.3755 64.9686 69.4868 65.1537C69.5651 65.273 69.594 65.2853 69.6517 65.3676C69.6352 65.4375 69.7548 65.6103 69.895 65.8407C70.0269 66.0587 70.0682 66.141 70.2825 66.4289C70.3774 66.5852 70.4433 66.6963 70.5876 66.8938C70.633 66.9472 70.7155 67.0542 70.7938 67.157C70.7979 67.1447 70.8845 67.2517 70.8721 67.2229L70.8639 67.227Z" fill="#024089"/>
<g id="Group">
<path id="Vector_13" d="M51.202 116.402C51.6926 116.526 52.1049 116.608 52.5543 116.711C53.2841 116.876 54.018 117.164 54.7601 117.39C55.292 117.55 55.8733 117.76 56.401 117.912C57.0607 118.101 57.7328 118.307 58.3883 118.537C59.3902 118.887 60.4127 119.159 61.3981 119.455C62.1155 119.669 62.8246 119.948 63.5379 120.167C63.8801 120.273 64.2594 120.368 64.6016 120.475C65.6571 120.8 66.7167 121.129 67.867 121.471C68.2752 121.59 68.6916 121.701 69.0998 121.828C70.0398 122.116 70.9427 122.437 71.8663 122.717C72.2044 122.82 72.5507 122.886 72.8764 122.993C73.0702 123.058 73.2598 123.137 73.4577 123.198C73.6515 123.26 73.8247 123.342 74.0185 123.408C74.105 123.437 74.1957 123.441 74.2823 123.47C74.5751 123.556 74.8595 123.667 75.1481 123.766C75.2677 123.807 75.3914 123.824 75.5151 123.861C76.282 124.095 77.0653 124.412 77.8322 124.646C78.6444 124.893 79.502 125.148 80.2482 125.432C80.6358 125.58 81.0234 125.671 81.3532 125.765C81.7779 125.889 82.0912 125.975 82.4829 126.074C82.7261 126.136 82.9776 126.201 83.225 126.259C83.7157 126.37 84.2063 126.44 84.6846 126.551C85.1463 126.658 85.6576 126.814 86.0245 126.847C86.3337 126.921 86.6471 127.057 86.9852 127.164C87.2655 127.254 87.5418 127.242 87.6407 127.049C87.6737 126.987 87.6572 126.876 87.6943 126.79C87.7438 126.67 87.8015 126.473 87.7809 126.362C87.7768 126.333 87.7232 126.304 87.7026 126.255C87.6778 126.193 87.7026 126.168 87.6655 126.131C87.6077 126.061 87.5088 126.049 87.3562 125.975C87.2367 125.917 87.1336 125.868 87.0058 125.831C86.4739 125.671 85.9585 125.531 85.4143 125.403C84.4537 125.177 83.4971 124.868 82.5282 124.609C81.9057 124.441 81.2336 124.206 80.6069 123.988C79.5638 123.622 78.4465 123.379 77.4529 122.931C77.1313 122.861 76.8757 122.742 76.5541 122.635C76.4551 122.602 76.3438 122.602 76.2407 122.569C76.0016 122.495 75.7666 122.376 75.511 122.355C74.5297 121.96 73.4248 121.623 72.4682 121.392C72.093 121.203 71.5117 121.154 71.1324 120.919C71.0705 120.895 71.054 120.936 70.9963 120.919C70.2418 120.631 69.3966 120.475 68.5926 120.228C68.4648 120.187 68.337 120.125 68.2051 120.092C68.1432 120.076 68.0773 120.08 68.0154 120.06C67.9453 120.039 67.8711 119.998 67.7969 119.969C67.6402 119.916 67.4794 119.911 67.331 119.862C67.0919 119.78 66.861 119.673 66.6219 119.599C66.4652 119.549 66.2962 119.545 66.1354 119.504C66.0405 119.401 65.8468 119.422 65.6983 119.327C65.3932 119.315 65.018 119.109 64.6964 119.076C64.5851 119.011 64.4573 119.006 64.3377 118.961C64.2058 118.912 64.078 118.85 63.9419 118.809C63.3524 118.632 62.7669 118.426 62.1649 118.25C62.1072 118.233 62.0371 118.233 61.9753 118.217C61.897 118.192 61.8269 118.138 61.7444 118.114C61.5383 118.044 61.3115 118.019 61.093 117.962C60.524 117.818 59.9633 117.587 59.4685 117.443C59.2047 117.365 58.9202 117.316 58.6769 117.221C58.6233 117.201 58.5862 117.155 58.5244 117.135C58.3924 117.085 58.2399 117.061 58.108 117.032C57.774 116.888 57.3699 116.802 57.0236 116.695C56.6979 116.592 56.3516 116.427 56.03 116.345C55.9887 116.333 55.9393 116.345 55.898 116.333C55.8651 116.32 55.8238 116.275 55.7909 116.263C55.7249 116.234 55.6383 116.226 55.56 116.205C55.2796 116.119 55.0899 116.028 54.8549 116.012C54.6447 115.859 54.3272 115.934 54.1375 115.769C54.0303 115.802 53.9355 115.72 53.8283 115.695C53.7624 115.678 53.6881 115.691 53.6139 115.674C53.5067 115.654 53.3872 115.604 53.28 115.58C53.0367 115.526 52.7935 115.506 52.5914 115.481C52.4595 115.465 52.3276 115.436 52.2039 115.432C52.0719 115.534 51.7957 115.436 51.6349 115.497C51.5978 115.551 51.7215 115.563 51.6885 115.617C51.6184 115.65 51.4865 115.596 51.437 115.65C51.4205 115.691 51.4741 115.72 51.4782 115.753C51.2845 115.707 51.2762 115.777 51.1731 115.835C51.0742 115.892 50.9835 115.892 50.967 116.008C50.8557 116.032 50.7237 116.036 50.6289 116.09C50.666 116.127 50.666 116.168 50.666 116.213C50.8598 116.271 51.0577 116.378 51.2102 116.419L51.202 116.402Z" fill="#024089"/>
<path id="Vector_14" d="M67.76 120.306C67.5951 120.417 67.4673 120.524 67.323 120.635C67.088 120.816 66.787 120.895 66.519 121.03C66.3252 121.129 66.0985 121.203 65.9088 121.306C65.6738 121.434 65.4306 121.553 65.1749 121.647C64.7874 121.791 64.4328 122.001 64.0741 122.178C63.8102 122.31 63.5216 122.38 63.2578 122.503C63.1299 122.561 63.0021 122.643 62.8743 122.701C62.4868 122.882 62.0951 123.058 61.6663 123.256C61.5179 123.33 61.3694 123.412 61.221 123.478C60.8747 123.634 60.516 123.75 60.1738 123.902C60.0501 123.959 59.9388 124.046 59.811 124.095C59.7368 124.124 59.6584 124.136 59.5842 124.169C59.51 124.198 59.4317 124.202 59.3574 124.231C59.3245 124.243 59.2997 124.276 59.2667 124.293C59.1595 124.342 59.04 124.371 58.9286 124.408C58.8833 124.424 58.8462 124.461 58.7967 124.482C58.5122 124.605 58.1824 124.667 57.8938 124.79C57.5928 124.922 57.2712 125.062 56.9661 125.132C56.8094 125.169 56.6734 125.251 56.5538 125.309C56.3972 125.383 56.2817 125.436 56.1457 125.514C56.0591 125.564 55.9684 125.613 55.8859 125.667C55.7169 125.774 55.5684 125.922 55.4035 126.024C55.2427 126.123 55.0531 126.201 54.9459 126.329C54.8387 126.395 54.7026 126.407 54.5748 126.456C54.4676 126.498 54.4058 126.617 54.4635 126.827C54.4841 126.892 54.5336 126.979 54.5666 127.069C54.6078 127.189 54.6779 127.386 54.7315 127.468C54.748 127.493 54.7727 127.493 54.7974 127.526C54.8304 127.567 54.8346 127.596 54.8593 127.616C54.9046 127.649 54.9335 127.621 55.0036 127.616C55.0572 127.616 55.1067 127.616 55.152 127.596C55.354 127.514 55.5437 127.419 55.7334 127.3C56.0673 127.09 56.4384 126.958 56.793 126.777C57.0197 126.662 57.2877 126.58 57.5392 126.502C57.9556 126.374 58.3349 126.115 58.7761 126.074C58.8833 126 58.9987 125.992 59.1266 125.946C59.1637 125.934 59.1925 125.885 59.2296 125.868C59.3203 125.831 59.4317 125.831 59.4976 125.741C59.9099 125.662 60.3263 125.477 60.6562 125.268C60.8335 125.268 60.9901 125.066 61.188 125.099C61.2128 125.095 61.2004 125.054 61.221 125.045C61.5302 124.963 61.7982 124.741 62.0992 124.605C62.1487 124.585 62.2064 124.581 62.2518 124.556C62.2724 124.544 62.2889 124.515 62.3095 124.502C62.3383 124.49 62.3713 124.494 62.4002 124.482C62.462 124.461 62.4991 124.395 62.5569 124.375C62.6517 124.342 62.7548 124.334 62.8413 124.288C62.8991 124.26 62.9403 124.194 62.998 124.157C63.0681 124.202 63.1011 124.103 63.1835 124.116C63.2578 123.996 63.4433 124.009 63.5299 123.898C63.5876 123.906 63.6165 123.857 63.6659 123.84C63.7195 123.824 63.7773 123.819 63.8267 123.795C64.0452 123.688 64.2761 123.614 64.4946 123.499C64.5153 123.486 64.5318 123.453 64.5524 123.445C64.5812 123.433 64.6225 123.445 64.6554 123.433C64.7338 123.4 64.7997 123.326 64.874 123.281C65.0677 123.157 65.3069 123.104 65.4842 123.009C65.579 122.96 65.6656 122.882 65.7686 122.853C65.7893 122.849 65.8181 122.865 65.847 122.861C65.9006 122.845 65.9459 122.799 65.9872 122.766C66.1315 122.742 66.2634 122.639 66.3912 122.577C66.5108 122.52 66.6716 122.507 66.7829 122.437C66.7953 122.429 66.7994 122.396 66.8159 122.392C66.8282 122.388 66.8612 122.408 66.8736 122.404C66.9025 122.4 66.9231 122.367 66.9519 122.355C67.055 122.306 67.1416 122.297 67.1993 122.207C67.3189 122.24 67.3519 122.042 67.4755 122.096C67.4797 122.022 67.5415 122.046 67.5786 122.026C67.5992 122.009 67.6116 121.968 67.6322 121.952C67.6652 121.923 67.7147 121.915 67.7518 121.886C67.8301 121.824 67.892 121.738 67.9456 121.668C67.9827 121.623 68.0239 121.594 68.0528 121.541C68.028 121.401 68.1352 121.359 68.1393 121.24C68.1187 121.183 68.0857 121.224 68.0651 121.166C68.0651 121.109 68.1187 121.096 68.0981 121.03C68.0816 120.989 68.0569 120.989 68.0363 120.965C68.0981 120.915 68.0651 120.858 68.0569 120.767C68.0486 120.681 68.0651 120.64 68.0115 120.537C68.0198 120.467 68.0486 120.409 68.0404 120.323C68.0157 120.31 67.9909 120.273 67.9703 120.236C67.9002 120.273 67.8054 120.269 67.7518 120.306H67.76Z" fill="#024089"/>
<path id="Vector_15" d="M68.2403 120.75C68.1496 120.915 68.0919 121.063 68.0176 121.219C67.8981 121.47 67.6878 121.672 67.5229 121.902C67.4033 122.067 67.2549 122.235 67.1477 122.404C67.0116 122.618 66.8673 122.828 66.7065 123.025C66.4592 123.321 66.2778 123.667 66.0799 123.988C65.9355 124.218 65.7418 124.424 65.5975 124.654C65.5274 124.765 65.4655 124.897 65.3996 125.008C65.1934 125.354 64.979 125.699 64.7729 126.082C64.7028 126.217 64.6286 126.366 64.5585 126.497C64.3894 126.81 64.1792 127.094 64.0184 127.406C63.9606 127.522 63.9318 127.653 63.8658 127.756C63.8287 127.818 63.7751 127.875 63.738 127.941C63.7009 128.007 63.6432 128.052 63.6061 128.118C63.5896 128.147 63.5937 128.184 63.5813 128.217C63.536 128.32 63.4618 128.406 63.4082 128.501C63.3834 128.542 63.3793 128.591 63.3587 128.632C63.2268 128.891 63.033 129.134 62.9052 129.397C62.7732 129.677 62.6454 129.977 62.4764 130.216C62.3857 130.339 62.3527 130.483 62.3073 130.603C62.2496 130.755 62.2084 130.866 62.1672 131.01C62.1424 131.096 62.1136 131.191 62.0971 131.281C62.06 131.462 62.0641 131.66 62.0229 131.837C61.9858 132.005 61.9115 132.186 61.9363 132.339C61.9115 132.454 61.8291 132.553 61.7796 132.668C61.7384 132.767 61.7837 132.886 61.9775 132.985C62.0394 133.013 62.1383 133.038 62.2249 133.079C62.3403 133.133 62.5341 133.211 62.6331 133.235C62.6578 133.24 62.6784 133.227 62.7196 133.235C62.7732 133.24 62.798 133.256 62.831 133.256C62.8846 133.252 62.8846 133.211 62.9299 133.166C62.9629 133.129 62.9959 133.1 63.0124 133.059C63.0825 132.878 63.1361 132.692 63.1773 132.495C63.2515 132.149 63.3999 131.824 63.5154 131.487C63.5896 131.269 63.7133 131.051 63.837 130.85C64.039 130.512 64.1256 130.105 64.4142 129.825C64.443 129.71 64.5214 129.636 64.575 129.533C64.5915 129.5 64.5832 129.451 64.5997 129.418C64.6409 129.34 64.7234 129.278 64.711 129.175C64.9543 128.883 65.1439 128.521 65.2553 128.188C65.3872 128.093 65.3748 127.855 65.5439 127.777C65.5604 127.76 65.5233 127.735 65.5356 127.719C65.717 127.497 65.7789 127.18 65.9314 126.925C65.9562 126.884 65.9974 126.851 66.018 126.81C66.0263 126.789 66.018 126.76 66.0304 126.74C66.0427 126.715 66.0716 126.699 66.0881 126.678C66.1211 126.629 66.1128 126.559 66.1458 126.514C66.1953 126.44 66.2736 126.382 66.319 126.304C66.3478 126.255 66.3396 126.18 66.3643 126.127C66.4468 126.127 66.4138 126.032 66.4839 126.004C66.4715 125.872 66.62 125.79 66.6282 125.662C66.6777 125.642 66.6736 125.588 66.7024 125.551C66.7354 125.514 66.7808 125.481 66.8055 125.44C66.9168 125.251 67.0529 125.078 67.1683 124.889C67.1807 124.868 67.1724 124.835 67.1848 124.819C67.2013 124.794 67.2425 124.786 67.259 124.761C67.3044 124.7 67.3167 124.609 67.3497 124.535C67.4363 124.342 67.6012 124.194 67.696 124.037C67.7455 123.955 67.7785 123.848 67.8445 123.782C67.8568 123.77 67.894 123.77 67.9104 123.753C67.9476 123.716 67.9599 123.659 67.9764 123.613C68.0795 123.527 68.1372 123.391 68.2114 123.284C68.2815 123.186 68.4052 123.108 68.4588 123.001C68.467 122.988 68.4547 122.959 68.4629 122.947C68.4712 122.939 68.5083 122.943 68.5165 122.935C68.5371 122.918 68.5413 122.881 68.5577 122.861C68.6196 122.774 68.6856 122.733 68.6897 122.639C68.8051 122.618 68.735 122.437 68.8628 122.433C68.8299 122.367 68.8958 122.363 68.9123 122.33C68.9247 122.309 68.9123 122.268 68.9206 122.244C68.9329 122.207 68.97 122.178 68.9865 122.141C69.0236 122.059 69.0319 121.96 69.0484 121.878C69.0566 121.824 69.0772 121.783 69.0772 121.725C68.9907 121.614 69.0649 121.536 69.0072 121.433C68.9618 121.388 68.9536 121.437 68.9123 121.396C68.8835 121.347 68.9247 121.314 68.8793 121.265C68.8464 121.236 68.8257 121.248 68.7969 121.232C68.8299 121.166 68.7721 121.129 68.7227 121.051C68.6773 120.977 68.6732 120.935 68.5784 120.87C68.5536 120.804 68.5495 120.742 68.5042 120.672C68.4753 120.672 68.4382 120.648 68.4052 120.627C68.364 120.685 68.2774 120.722 68.2485 120.775L68.2403 120.75Z" fill="#024089"/>
<path id="Vector_16" d="M68.0015 121.634C68.0799 121.802 68.1582 121.934 68.2407 122.086C68.3685 122.329 68.4014 122.613 68.4839 122.876C68.5457 123.065 68.587 123.283 68.6571 123.468C68.7478 123.699 68.8261 123.937 68.888 124.18C68.9787 124.55 69.1436 124.896 69.2838 125.237C69.3827 125.488 69.4281 125.76 69.5311 126.007C69.5806 126.118 69.6466 126.253 69.6961 126.369C69.8486 126.735 69.997 127.105 70.1867 127.492C70.2527 127.627 70.331 127.763 70.3928 127.903C70.5413 128.22 70.6526 128.549 70.8051 128.857C70.8629 128.968 70.9536 129.067 70.9989 129.178C71.0278 129.244 71.0443 129.318 71.0731 129.384C71.102 129.45 71.1061 129.524 71.135 129.59C71.1473 129.618 71.1803 129.639 71.1968 129.668C71.2504 129.762 71.2793 129.869 71.3205 129.968C71.337 130.009 71.3741 130.042 71.3988 130.083C71.5308 130.338 71.6091 130.635 71.7493 130.885C71.8936 131.153 72.0626 131.424 72.1533 131.696C72.1987 131.836 72.2976 131.947 72.3636 132.05C72.4502 132.181 72.5162 132.28 72.6069 132.395C72.6605 132.465 72.7182 132.539 72.78 132.609C72.9037 132.745 73.0645 132.856 73.18 132.988C73.2913 133.115 73.3944 133.276 73.5304 133.345C73.6087 133.432 73.6376 133.551 73.6994 133.658C73.753 133.749 73.8767 133.782 74.0705 133.683C74.1324 133.65 74.2107 133.588 74.2932 133.539C74.4045 133.477 74.5859 133.37 74.6601 133.304C74.6807 133.288 74.6807 133.263 74.7096 133.234C74.7467 133.197 74.7755 133.185 74.792 133.16C74.8209 133.115 74.792 133.09 74.7797 133.029C74.7714 132.979 74.7673 132.938 74.7426 132.897C74.6395 132.733 74.524 132.584 74.3921 132.44C74.1571 132.181 73.9881 131.877 73.7819 131.589C73.65 131.404 73.5469 131.182 73.4603 130.968C73.3078 130.614 73.0315 130.314 72.9779 129.919C72.8996 129.828 72.8872 129.73 72.8377 129.623C72.8213 129.59 72.7759 129.569 72.7594 129.536C72.7223 129.458 72.7223 129.359 72.6275 129.306C72.5368 128.944 72.3595 128.586 72.1533 128.306C72.1533 128.15 71.9596 128.018 71.9925 127.841C71.9884 127.821 71.9472 127.833 71.9389 127.817C71.8647 127.545 71.6503 127.315 71.5349 127.047C71.5143 127.006 71.5143 126.953 71.4937 126.912C71.4813 126.891 71.4524 126.883 71.4442 126.862C71.4318 126.838 71.4401 126.805 71.4277 126.78C71.4071 126.727 71.3494 126.694 71.3329 126.64C71.304 126.558 71.304 126.463 71.2669 126.385C71.2463 126.332 71.1803 126.299 71.1515 126.245C71.2009 126.184 71.1061 126.151 71.1267 126.081C71.0113 126.015 71.0401 125.846 70.9412 125.768C70.9536 125.719 70.9082 125.69 70.8958 125.645C70.8835 125.595 70.8876 125.546 70.867 125.497C70.7804 125.299 70.7268 125.093 70.6443 124.892C70.6361 124.871 70.6072 124.859 70.599 124.838C70.5907 124.81 70.6072 124.777 70.599 124.748C70.5784 124.674 70.5124 124.616 70.4712 124.546C70.3681 124.365 70.3557 124.151 70.2856 123.983C70.2485 123.896 70.1826 123.81 70.1702 123.719C70.1702 123.699 70.1908 123.674 70.1867 123.654C70.1784 123.604 70.1413 123.563 70.1125 123.522C70.1125 123.39 70.03 123.267 69.9888 123.148C69.9517 123.032 69.964 122.893 69.9146 122.786C69.9063 122.773 69.8775 122.765 69.8733 122.749C69.8733 122.736 69.894 122.712 69.894 122.699C69.894 122.675 69.8651 122.65 69.8569 122.625C69.828 122.526 69.8321 122.448 69.7579 122.391C69.8115 122.288 69.626 122.238 69.7002 122.136C69.6301 122.123 69.6672 122.07 69.6507 122.037C69.6383 122.016 69.6012 122 69.5847 121.979C69.5641 121.946 69.5641 121.901 69.5435 121.864C69.5023 121.786 69.4281 121.72 69.3703 121.663C69.3332 121.626 69.3126 121.58 69.2673 121.551C69.123 121.551 69.1065 121.453 68.991 121.432C68.9292 121.44 68.9622 121.477 68.9044 121.486C68.8509 121.482 68.8467 121.428 68.7766 121.436C68.7313 121.445 68.7313 121.469 68.6983 121.482C68.6653 121.42 68.5993 121.44 68.5086 121.432C68.4221 121.428 68.385 121.403 68.2736 121.44C68.2077 121.42 68.1541 121.387 68.0716 121.383C68.0551 121.403 68.0139 121.42 67.9727 121.432C67.9933 121.502 67.9727 121.589 67.9974 121.642L68.0015 121.634Z" fill="#024089"/>
<path id="Vector_17" d="M68.8142 122.668C68.9956 122.734 69.1523 122.775 69.3213 122.825C69.5935 122.907 69.8243 123.096 70.08 123.228C70.2655 123.323 70.451 123.458 70.6366 123.545C70.8675 123.656 71.0942 123.775 71.3086 123.923C71.6302 124.145 71.9971 124.297 72.3311 124.478C72.5744 124.61 72.7888 124.795 73.0279 124.931C73.1392 124.993 73.2753 125.063 73.3907 125.12C73.7412 125.326 74.0875 125.532 74.4709 125.758C74.607 125.836 74.7513 125.906 74.8832 125.988C75.1883 126.182 75.4687 126.4 75.7573 126.593C75.8645 126.663 75.9923 126.704 76.0912 126.782C76.149 126.827 76.2026 126.885 76.2644 126.926C76.3263 126.967 76.3675 127.033 76.4211 127.078C76.4458 127.099 76.4871 127.103 76.5118 127.119C76.6066 127.181 76.6808 127.263 76.7674 127.333C76.8045 127.362 76.8499 127.375 76.8911 127.399C77.1344 127.564 77.324 127.815 77.5549 127.987C77.8064 128.168 78.0496 128.374 78.2352 128.596C78.33 128.712 78.4619 128.781 78.5485 128.864C78.6681 128.967 78.7588 129.041 78.8784 129.123C78.9526 129.176 79.0309 129.23 79.1051 129.279C79.2577 129.378 79.4308 129.456 79.5751 129.563C79.7153 129.666 79.8473 129.806 79.9833 129.859C80.0699 129.937 80.1153 130.057 80.1895 130.155C80.2513 130.238 80.3832 130.262 80.5729 130.155C80.6347 130.123 80.7048 130.053 80.7873 130.003C80.8945 129.937 81.0718 129.822 81.1419 129.752C81.1625 129.732 81.1584 129.707 81.1831 129.674C81.2161 129.633 81.2449 129.621 81.2573 129.592C81.2779 129.542 81.2408 129.514 81.2161 129.448C81.1996 129.394 81.1831 129.345 81.1501 129.304C81.0058 129.123 80.8615 128.946 80.676 128.814C80.3585 128.563 80.0946 128.263 79.7813 128.025C79.5834 127.864 79.3979 127.658 79.2164 127.477C78.9196 127.161 78.5155 126.963 78.2723 126.605C78.1527 126.548 78.095 126.449 77.9919 126.371C77.9589 126.346 77.9095 126.346 77.8765 126.321C77.7982 126.264 77.7446 126.169 77.6332 126.161C77.3611 125.852 76.9942 125.606 76.6478 125.449C76.5571 125.301 76.3098 125.281 76.2314 125.104C76.2149 125.087 76.1902 125.12 76.1696 125.104C75.9387 124.898 75.613 124.803 75.345 124.635C75.2996 124.606 75.2667 124.565 75.2213 124.54C75.2007 124.528 75.1677 124.536 75.1471 124.524C75.1224 124.507 75.1059 124.478 75.0811 124.462C75.0316 124.425 74.9574 124.429 74.908 124.396C74.8296 124.339 74.7678 124.26 74.6853 124.211C74.6317 124.178 74.5534 124.186 74.4957 124.162C74.4957 124.079 74.3967 124.108 74.3637 124.038C74.2277 124.051 74.137 123.894 74.0009 123.886C73.9762 123.837 73.9184 123.841 73.8813 123.808C73.8401 123.775 73.8071 123.73 73.7576 123.705C73.5556 123.594 73.366 123.458 73.1557 123.347C73.1351 123.335 73.1021 123.347 73.0815 123.331C73.0567 123.314 73.0444 123.273 73.0155 123.257C72.9454 123.211 72.8547 123.203 72.7723 123.174C72.5661 123.096 72.393 122.936 72.2198 122.849C72.1291 122.804 72.0178 122.78 71.9394 122.718C71.9229 122.705 71.9229 122.668 71.9023 122.652C71.8611 122.619 71.7992 122.611 71.7498 122.599C71.6508 122.5 71.4983 122.459 71.3787 122.393C71.2674 122.331 71.1684 122.216 71.053 122.171C71.0365 122.167 71.0118 122.179 70.9994 122.171C70.987 122.162 70.987 122.125 70.9788 122.117C70.9582 122.097 70.9211 122.101 70.8963 122.084C70.8015 122.031 70.7438 121.969 70.6448 121.977C70.6036 121.862 70.4345 121.953 70.4057 121.825C70.3438 121.866 70.3315 121.8 70.2902 121.784C70.2655 121.776 70.2284 121.792 70.1995 121.784C70.1583 121.776 70.1212 121.743 70.08 121.731C69.9893 121.706 69.8862 121.71 69.7996 121.706C69.746 121.706 69.6965 121.689 69.6388 121.698C69.5399 121.8 69.4492 121.739 69.3502 121.809C69.3131 121.858 69.3667 121.862 69.3296 121.912C69.2842 121.944 69.2471 121.912 69.2018 121.965C69.177 122.002 69.1935 122.023 69.1812 122.056C69.107 122.035 69.0781 122.093 69.008 122.154C68.942 122.212 68.8967 122.22 68.8472 122.327C68.7854 122.36 68.7235 122.372 68.6617 122.43C68.6617 122.459 68.6493 122.496 68.6328 122.537C68.6988 122.57 68.7524 122.648 68.8101 122.668H68.8142Z" fill="#024089"/>
</g>
<path id="Vector_18" d="M49.533 120.124C49.6938 120.823 49.8587 121.391 50.0442 122.016C50.3452 123.024 50.5802 124.106 50.9142 125.151C51.1574 125.9 51.4089 126.731 51.7017 127.451C52.0562 128.356 52.452 129.265 52.8561 130.17C53.4704 131.54 54.2538 132.84 55.0949 134.045C55.7092 134.925 56.3524 135.81 57.0862 136.6C57.2594 136.789 57.4656 136.97 57.6593 137.159C57.8572 137.344 58.0469 137.533 58.253 137.698C59.4528 138.759 60.8175 139.681 62.442 140.343C62.7347 140.454 63.0192 140.582 63.3202 140.668C63.6211 140.754 63.9221 140.841 64.219 140.927C65.6043 141.285 67.0143 141.445 68.3749 141.454C68.8779 141.437 69.3768 141.408 69.8633 141.384L70.7374 141.351C71.026 141.33 71.3022 141.318 71.5908 141.289C71.7186 141.277 71.8464 141.24 71.9701 141.223C72.403 141.157 72.8359 141.096 73.2647 141.034C73.442 140.997 73.6111 140.939 73.7925 140.902C74.9098 140.656 76.089 140.384 77.1568 139.956C78.2906 139.512 79.4327 138.944 80.4469 138.418C80.9747 138.146 81.4364 137.817 81.8405 137.537C82.36 137.175 82.7269 136.896 83.1722 136.525C83.4402 136.295 83.7288 136.052 83.9844 135.806C84.5039 135.316 84.9533 134.785 85.4192 134.271C85.8645 133.777 86.3716 133.218 86.6355 132.774C86.9035 132.42 87.2333 132.07 87.5302 131.667C87.7776 131.334 87.9054 130.968 87.7487 130.812C87.6992 130.762 87.5797 130.762 87.5013 130.705C87.4024 130.626 87.221 130.519 87.1014 130.524C87.0684 130.524 87.0189 130.581 86.9612 130.593C86.887 130.61 86.8746 130.577 86.821 130.61C86.7262 130.663 86.6644 130.779 86.5159 130.943C86.3964 131.071 86.2974 131.182 86.1902 131.318C85.7449 131.898 85.2914 132.449 84.809 133.016C83.9514 134.016 82.9331 134.909 81.8735 135.736C81.1932 136.27 80.381 136.781 79.5935 137.196C78.2989 137.904 76.9218 138.603 75.4994 138.924C75.0912 139.092 74.7201 139.154 74.279 139.265C74.1471 139.298 74.0151 139.372 73.8749 139.401C73.5451 139.471 73.1988 139.508 72.8854 139.627C71.4836 139.812 69.9416 139.952 68.6264 140.006C68.3502 139.981 68.0162 139.973 67.6822 139.973C67.3442 139.973 67.0102 139.965 66.734 139.87C66.6474 139.858 66.6391 139.899 66.5608 139.89C65.5136 139.759 64.4086 139.582 63.3696 139.195C63.2047 139.129 63.0398 139.043 62.8749 138.981C62.7965 138.953 62.71 138.94 62.6316 138.911C62.545 138.866 62.4543 138.8 62.3636 138.755C62.174 138.652 61.9678 138.599 61.7905 138.5C61.4937 138.344 61.2422 138.117 60.9577 137.953C60.7722 137.846 60.5701 137.751 60.3887 137.628C60.3022 137.48 60.063 137.398 59.9105 137.225C59.56 137.036 59.1848 136.612 58.8385 136.369C58.7396 136.233 58.5994 136.139 58.4798 136.011C58.352 135.871 58.2283 135.736 58.1005 135.588C57.5398 134.983 57.0203 134.329 56.5255 133.646C56.476 133.58 56.406 133.518 56.3565 133.448C56.2905 133.358 56.2493 133.251 56.1833 133.156C56.0225 132.91 55.8287 132.675 55.6514 132.428C55.202 131.774 54.8516 131.03 54.5176 130.412C54.3403 130.083 54.1466 129.746 54.0023 129.417C53.9734 129.347 53.9693 129.273 53.9404 129.191C53.8703 129.014 53.7673 128.833 53.6807 128.668C53.5075 128.203 53.2725 127.697 53.087 127.237C52.922 126.801 52.786 126.299 52.6293 125.871C52.6087 125.817 52.5634 125.772 52.5469 125.715C52.5304 125.669 52.5386 125.591 52.5262 125.542C52.5015 125.447 52.4479 125.34 52.4149 125.237C52.2912 124.855 52.2294 124.575 52.0892 124.295C52.0686 123.95 51.8047 123.629 51.8171 123.296C51.7223 123.193 51.7264 123.024 51.681 122.884C51.6522 122.794 51.5986 122.712 51.5656 122.621C51.5202 122.481 51.4831 122.308 51.4378 122.16C51.3388 121.835 51.2069 121.535 51.1121 121.268C51.0502 121.095 51.0008 120.922 50.9307 120.766C50.7699 120.671 50.6998 120.268 50.5596 120.104C50.4936 120.091 50.5472 120.252 50.4854 120.243C50.4194 120.178 50.3947 119.98 50.3205 119.951C50.2751 119.955 50.2792 120.038 50.2545 120.066C50.1885 119.799 50.1267 119.828 50.0195 119.733C49.9205 119.643 49.8711 119.523 49.7597 119.573C49.6773 119.441 49.6113 119.277 49.5165 119.174C49.5041 119.248 49.4629 119.273 49.4258 119.297C49.4711 119.589 49.4835 119.902 49.533 120.128V120.124Z" fill="#024089"/>
<path id="Vector_19" d="M109.605 104.677C109.321 104.829 109.106 104.989 108.863 105.154C108.476 105.425 108.022 105.623 107.618 105.894C107.321 106.08 107.004 106.289 106.727 106.495C106.394 106.762 106.055 107.034 105.713 107.297C105.194 107.696 104.744 108.169 104.307 108.622C103.986 108.951 103.631 109.247 103.326 109.584C103.186 109.749 103.029 109.934 102.893 110.099C102.452 110.601 102.023 111.115 101.578 111.682C101.425 111.884 101.269 112.094 101.116 112.295C100.757 112.756 100.374 113.184 100.024 113.636C99.8957 113.801 99.7968 113.99 99.6648 114.142C99.5865 114.233 99.4958 114.319 99.4216 114.414C99.3474 114.509 99.2525 114.578 99.1742 114.669C99.1412 114.71 99.1247 114.764 99.0917 114.805C98.9845 114.949 98.8526 115.076 98.7331 115.208C98.6836 115.265 98.6547 115.331 98.6052 115.393C98.3084 115.759 97.9414 116.092 97.6363 116.45C97.3189 116.829 96.9767 117.224 96.6221 117.528C96.4407 117.688 96.2964 117.865 96.1644 118.013C95.9954 118.207 95.8593 118.338 95.7109 118.515C95.6161 118.622 95.5213 118.733 95.4223 118.849C95.2327 119.071 95.0801 119.326 94.8822 119.531C94.6967 119.737 94.4534 119.93 94.338 120.124C94.2102 120.26 94.0246 120.346 93.8556 120.461C93.7154 120.56 93.6453 120.724 93.7484 120.914C93.7814 120.975 93.8597 121.041 93.9133 121.123C93.9793 121.23 94.0988 121.403 94.1813 121.465C94.2019 121.481 94.239 121.469 94.2761 121.49C94.3256 121.514 94.338 121.547 94.3751 121.551C94.441 121.564 94.4823 121.514 94.5812 121.469C94.6596 121.436 94.7255 121.407 94.7915 121.358C95.0677 121.148 95.3192 120.922 95.5584 120.675C95.983 120.231 96.4489 119.828 96.8612 119.367C97.1292 119.075 97.4467 118.783 97.7435 118.503C98.2342 118.042 98.6135 117.454 99.1371 117.047C99.2443 116.878 99.3804 116.771 99.5164 116.619C99.5576 116.574 99.5741 116.5 99.6154 116.45C99.7102 116.335 99.8462 116.24 99.8916 116.088C100.357 115.652 100.782 115.105 101.091 114.607C101.302 114.459 101.413 114.114 101.656 113.978C101.685 113.949 101.656 113.92 101.673 113.896C102.007 113.55 102.242 113.093 102.551 112.707C102.6 112.645 102.666 112.592 102.716 112.53C102.736 112.497 102.745 112.456 102.769 112.427C102.798 112.394 102.84 112.365 102.872 112.332C102.938 112.262 102.963 112.16 103.025 112.094C103.124 111.983 103.248 111.892 103.338 111.781C103.4 111.707 103.429 111.604 103.483 111.526C103.582 111.518 103.59 111.39 103.693 111.345C103.747 111.164 103.973 111.032 104.048 110.856C104.118 110.823 104.142 110.749 104.2 110.695C104.262 110.638 104.332 110.592 104.386 110.531C104.625 110.263 104.889 110.016 105.136 109.749C105.161 109.724 105.169 109.679 105.198 109.654C105.231 109.621 105.284 109.605 105.322 109.572C105.412 109.486 105.478 109.362 105.565 109.268C105.787 109.009 106.08 108.811 106.299 108.605C106.414 108.494 106.517 108.359 106.645 108.276C106.674 108.26 106.715 108.264 106.744 108.243C106.81 108.198 106.864 108.124 106.917 108.066C107.099 107.96 107.268 107.795 107.432 107.663C107.585 107.54 107.799 107.466 107.948 107.338C107.968 107.322 107.973 107.285 107.993 107.273C108.01 107.26 108.055 107.273 108.072 107.26C108.109 107.244 108.138 107.198 108.179 107.174C108.319 107.083 108.434 107.042 108.517 106.927C108.678 106.919 108.731 106.697 108.896 106.717C108.909 106.635 108.991 106.647 109.045 106.61C109.078 106.586 109.094 106.536 109.127 106.511C109.177 106.47 109.242 106.442 109.296 106.405C109.412 106.322 109.51 106.211 109.597 106.125C109.655 106.067 109.717 106.026 109.766 105.96C109.754 105.808 109.919 105.75 109.948 105.619C109.931 105.557 109.877 105.606 109.861 105.549C109.869 105.487 109.952 105.467 109.943 105.393C109.927 105.351 109.89 105.356 109.869 105.331C109.972 105.269 109.939 105.207 109.948 105.109C109.956 105.014 109.997 104.965 109.939 104.866C109.972 104.788 110.03 104.718 110.042 104.623C110.009 104.615 109.985 104.578 109.96 104.541C109.844 104.594 109.7 104.611 109.609 104.66L109.605 104.677Z" fill="#024089"/>
<path id="Vector_20" d="M103.176 112.659C103.288 112.622 103.383 112.569 103.486 112.523C103.651 112.449 103.836 112.49 104.013 112.47C104.141 112.453 104.281 112.47 104.405 112.449C104.562 112.42 104.723 112.404 104.883 112.416C105.127 112.433 105.366 112.371 105.601 112.342C105.774 112.322 105.947 112.363 106.12 112.346C106.203 112.338 106.289 112.314 106.372 112.305C106.623 112.285 106.879 112.268 107.151 112.235C107.25 112.223 107.345 112.198 107.444 112.19C107.666 112.174 107.889 112.194 108.112 112.178C108.194 112.17 108.272 112.128 108.351 112.133C108.396 112.133 108.446 112.149 108.491 112.149C108.536 112.149 108.582 112.174 108.627 112.174C108.648 112.174 108.668 112.153 108.689 112.149C108.759 112.141 108.829 112.161 108.899 112.161C108.928 112.161 108.957 112.141 108.986 112.141C109.171 112.128 109.365 112.19 109.546 112.178C109.74 112.161 109.946 112.145 110.128 112.186C110.223 112.207 110.313 112.178 110.392 112.165C110.495 112.153 110.569 112.141 110.66 112.116C110.717 112.1 110.775 112.087 110.833 112.067C110.948 112.026 111.06 111.939 111.171 111.902C111.278 111.865 111.402 111.861 111.484 111.775C111.558 111.75 111.637 111.787 111.715 111.787C111.781 111.787 111.843 111.692 111.851 111.478C111.851 111.408 111.851 111.31 111.847 111.215C111.847 111.088 111.847 110.882 111.839 110.783C111.839 110.759 111.822 110.746 111.814 110.705C111.806 110.656 111.806 110.623 111.798 110.598C111.781 110.549 111.756 110.565 111.719 110.545C111.69 110.528 111.661 110.512 111.633 110.512C111.505 110.52 111.381 110.541 111.249 110.586C111.022 110.664 110.787 110.66 110.557 110.705C110.408 110.734 110.243 110.713 110.087 110.697C109.831 110.668 109.567 110.779 109.316 110.656C109.241 110.689 109.175 110.652 109.097 110.652C109.072 110.652 109.048 110.684 109.023 110.684C108.965 110.684 108.903 110.643 108.845 110.705C108.598 110.631 108.33 110.652 108.107 110.726C108.009 110.66 107.881 110.791 107.778 110.689C107.761 110.689 107.761 110.726 107.749 110.726C107.559 110.689 107.365 110.8 107.172 110.812C107.139 110.812 107.106 110.796 107.077 110.804C107.06 110.804 107.048 110.828 107.031 110.833C107.015 110.833 106.994 110.816 106.978 110.816C106.941 110.816 106.904 110.861 106.871 110.857C106.813 110.857 106.751 110.824 106.693 110.828C106.656 110.828 106.619 110.878 106.582 110.89C106.553 110.824 106.512 110.903 106.471 110.857C106.405 110.944 106.306 110.857 106.236 110.927C106.207 110.898 106.178 110.935 106.149 110.927C106.116 110.923 106.083 110.903 106.05 110.907C105.91 110.923 105.766 110.907 105.617 110.931C105.605 110.931 105.588 110.956 105.576 110.96C105.555 110.96 105.535 110.935 105.518 110.935C105.469 110.935 105.419 110.981 105.366 110.997C105.234 111.038 105.089 110.997 104.97 111.014C104.908 111.026 104.842 111.063 104.78 111.051C104.768 111.051 104.756 111.018 104.739 111.014C104.706 111.009 104.673 111.034 104.64 111.046C104.553 111.018 104.463 111.063 104.376 111.067C104.298 111.071 104.207 111.026 104.129 111.046C104.121 111.046 104.112 111.075 104.1 111.075C104.092 111.075 104.079 111.042 104.071 111.042C104.055 111.038 104.034 111.059 104.018 111.059C103.947 111.067 103.898 111.038 103.853 111.1C103.791 111.022 103.737 111.19 103.675 111.1C103.659 111.166 103.63 111.116 103.605 111.125C103.589 111.129 103.576 111.166 103.56 111.174C103.535 111.186 103.506 111.174 103.482 111.19C103.424 111.215 103.374 111.273 103.329 111.314C103.3 111.343 103.271 111.355 103.247 111.392C103.234 111.532 103.164 111.524 103.139 111.635C103.139 111.696 103.164 111.672 103.164 111.729C103.156 111.783 103.123 111.771 103.119 111.84C103.119 111.886 103.135 111.894 103.139 111.927C103.094 111.947 103.102 112.013 103.09 112.1C103.077 112.182 103.061 112.215 103.073 112.33C103.053 112.392 103.028 112.433 103.016 112.515C103.028 112.536 103.032 112.581 103.04 112.622C103.086 112.614 103.139 112.655 103.176 112.643V112.659Z" fill="#024089"/>
<path id="Vector_21" d="M101.728 113.674C101.909 113.764 102.07 113.826 102.243 113.904C102.524 114.028 102.738 114.258 102.994 114.435C103.179 114.562 103.356 114.731 103.538 114.854C103.765 115.007 103.991 115.171 104.197 115.36C104.511 115.644 104.87 115.875 105.191 116.126C105.43 116.307 105.628 116.541 105.859 116.73C105.97 116.821 106.102 116.903 106.214 116.998C106.548 117.282 106.886 117.565 107.253 117.878C107.385 117.989 107.525 118.088 107.653 118.199C107.941 118.462 108.201 118.746 108.485 119.005C108.588 119.1 108.716 119.17 108.811 119.268C108.869 119.326 108.914 119.396 108.972 119.454C109.03 119.511 109.063 119.585 109.12 119.643C109.145 119.667 109.186 119.68 109.211 119.704C109.302 119.787 109.372 119.89 109.454 119.976C109.487 120.013 109.537 120.034 109.574 120.071C109.805 120.293 109.986 120.585 110.213 120.807C110.452 121.046 110.704 121.301 110.889 121.564C110.984 121.7 111.108 121.798 111.207 121.897C111.334 122.021 111.425 122.111 111.553 122.214C111.627 122.276 111.705 122.341 111.792 122.411C111.953 122.539 112.147 122.629 112.303 122.757C112.456 122.876 112.596 123.037 112.753 123.098C112.852 123.181 112.913 123.308 113.004 123.419C113.078 123.51 113.219 123.53 113.396 123.407C113.454 123.366 113.52 123.292 113.594 123.23C113.697 123.152 113.858 123.02 113.919 122.942C113.936 122.921 113.932 122.897 113.952 122.86C113.981 122.814 114.006 122.798 114.018 122.769C114.035 122.716 113.998 122.695 113.969 122.625C113.948 122.572 113.932 122.527 113.895 122.485C113.742 122.317 113.585 122.16 113.404 122.012C113.082 121.757 112.823 121.436 112.514 121.161C112.316 120.984 112.142 120.749 111.973 120.535C111.689 120.182 111.301 119.906 111.083 119.503C110.967 119.425 110.918 119.318 110.823 119.215C110.794 119.182 110.741 119.174 110.708 119.145C110.633 119.071 110.592 118.964 110.477 118.935C110.234 118.569 109.887 118.244 109.549 118.014C109.479 117.845 109.219 117.775 109.162 117.578C109.145 117.557 109.116 117.586 109.096 117.569C108.885 117.31 108.564 117.146 108.304 116.92C108.263 116.882 108.234 116.829 108.189 116.796C108.168 116.78 108.135 116.78 108.114 116.763C108.09 116.743 108.077 116.706 108.057 116.685C108.011 116.636 107.933 116.627 107.888 116.582C107.813 116.508 107.76 116.418 107.681 116.352C107.632 116.311 107.549 116.298 107.492 116.261C107.5 116.179 107.393 116.187 107.372 116.105C107.228 116.084 107.158 115.908 107.013 115.875C106.993 115.821 106.935 115.813 106.898 115.772C106.857 115.731 106.828 115.677 106.783 115.64C106.585 115.484 106.407 115.303 106.201 115.151C106.181 115.134 106.144 115.138 106.123 115.122C106.098 115.101 106.09 115.056 106.061 115.035C105.995 114.978 105.896 114.949 105.818 114.904C105.612 114.776 105.455 114.583 105.278 114.464C105.187 114.398 105.072 114.353 104.997 114.274C104.981 114.258 104.985 114.221 104.964 114.2C104.923 114.159 104.861 114.139 104.812 114.114C104.717 113.995 104.56 113.925 104.441 113.834C104.329 113.752 104.239 113.616 104.119 113.542C104.103 113.534 104.074 113.542 104.061 113.534C104.049 113.526 104.053 113.485 104.045 113.476C104.024 113.452 103.987 113.448 103.958 113.427C103.859 113.357 103.81 113.283 103.703 113.275C103.67 113.151 103.48 113.213 103.464 113.077C103.394 113.106 103.385 113.04 103.348 113.016C103.323 113.003 103.282 113.016 103.253 113.003C103.212 112.987 103.175 112.946 103.134 112.925C103.039 112.884 102.928 112.872 102.837 112.855C102.779 112.843 102.73 112.822 102.668 112.822C102.557 112.913 102.466 112.835 102.359 112.892C102.317 112.937 102.371 112.95 102.33 112.991C102.28 113.02 102.243 112.974 102.19 113.024C102.161 113.061 102.177 113.081 102.161 113.11C102.087 113.077 102.054 113.135 101.975 113.188C101.901 113.238 101.856 113.242 101.798 113.341C101.732 113.365 101.666 113.369 101.596 113.419C101.596 113.448 101.575 113.485 101.555 113.522C101.621 113.567 101.666 113.653 101.724 113.682L101.728 113.674Z" fill="#024089"/>
<path id="Vector_22" d="M101.042 112.773C101.079 112.978 101.124 113.147 101.169 113.332C101.24 113.633 101.194 113.957 101.215 114.274C101.227 114.501 101.211 114.756 101.231 114.978C101.256 115.257 101.272 115.545 101.26 115.829C101.244 116.261 101.305 116.693 101.334 117.113C101.355 117.421 101.318 117.73 101.334 118.038C101.347 118.182 101.363 118.347 101.38 118.491C101.409 118.943 101.433 119.396 101.483 119.885C101.503 120.058 101.524 120.239 101.54 120.408C101.578 120.811 101.561 121.202 101.602 121.597C101.615 121.741 101.668 121.88 101.672 122.02C101.672 122.103 101.664 122.189 101.672 122.271C101.677 122.354 101.656 122.436 101.66 122.518C101.66 122.555 101.685 122.592 101.693 122.625C101.71 122.748 101.697 122.876 101.701 122.999C101.701 123.053 101.726 123.102 101.734 123.152C101.767 123.481 101.734 123.83 101.771 124.155C101.813 124.501 101.866 124.867 101.854 125.196C101.846 125.369 101.895 125.525 101.92 125.665C101.953 125.846 101.978 125.978 102.019 126.138C102.043 126.237 102.072 126.344 102.105 126.443C102.171 126.644 102.283 126.833 102.34 127.027C102.398 127.216 102.435 127.43 102.538 127.566C102.579 127.689 102.563 127.833 102.584 127.977C102.6 128.096 102.707 128.187 102.922 128.174C102.992 128.17 103.087 128.137 103.181 128.125C103.309 128.113 103.515 128.08 103.61 128.043C103.635 128.035 103.643 128.01 103.68 127.989C103.73 127.965 103.759 127.965 103.783 127.944C103.825 127.907 103.804 127.87 103.816 127.8C103.825 127.747 103.837 127.697 103.829 127.644C103.792 127.422 103.738 127.212 103.668 126.998C103.544 126.615 103.495 126.212 103.408 125.813C103.355 125.558 103.338 125.27 103.334 125.003C103.322 124.554 103.173 124.106 103.264 123.658C103.223 123.526 103.252 123.411 103.239 123.275C103.239 123.234 103.202 123.193 103.198 123.148C103.19 123.045 103.223 122.938 103.157 122.843C103.202 122.411 103.157 121.946 103.062 121.556C103.12 121.383 102.975 121.161 103.07 120.98C103.07 120.951 103.029 120.955 103.029 120.93C103.054 120.601 102.93 120.264 102.905 119.922C102.905 119.869 102.918 119.811 102.909 119.754C102.909 119.729 102.88 119.704 102.88 119.676C102.88 119.647 102.893 119.61 102.893 119.581C102.893 119.515 102.847 119.453 102.847 119.388C102.847 119.285 102.876 119.182 102.868 119.079C102.864 119.013 102.814 118.947 102.802 118.882C102.868 118.828 102.79 118.762 102.831 118.688C102.744 118.573 102.823 118.396 102.753 118.273C102.777 118.223 102.744 118.17 102.749 118.121C102.749 118.063 102.769 118.005 102.765 117.948C102.744 117.697 102.757 117.446 102.732 117.191C102.732 117.166 102.703 117.142 102.703 117.113C102.703 117.08 102.728 117.043 102.728 117.01C102.728 116.919 102.683 116.833 102.666 116.738C102.621 116.5 102.666 116.253 102.645 116.043C102.637 115.932 102.596 115.817 102.608 115.71C102.608 115.685 102.641 115.665 102.645 115.64C102.65 115.582 102.625 115.521 102.612 115.467C102.641 115.319 102.6 115.155 102.596 115.002C102.592 114.863 102.637 114.706 102.621 114.57C102.621 114.554 102.592 114.538 102.592 114.517C102.592 114.501 102.625 114.48 102.625 114.468C102.629 114.439 102.608 114.402 102.608 114.373C102.604 114.254 102.629 114.167 102.571 114.077C102.65 113.974 102.481 113.863 102.579 113.768C102.514 113.731 102.563 113.682 102.555 113.641C102.551 113.612 102.513 113.587 102.505 113.558C102.493 113.513 102.505 113.464 102.493 113.419C102.468 113.32 102.41 113.221 102.373 113.139C102.349 113.085 102.336 113.032 102.299 112.983C102.159 112.95 102.167 112.826 102.056 112.773C101.994 112.765 102.019 112.814 101.957 112.81C101.903 112.789 101.916 112.732 101.846 112.719C101.8 112.719 101.792 112.744 101.759 112.752C101.743 112.67 101.672 112.678 101.586 112.649C101.503 112.621 101.47 112.584 101.355 112.596C101.293 112.555 101.252 112.505 101.169 112.477C101.149 112.497 101.103 112.501 101.062 112.509C101.066 112.592 101.025 112.682 101.037 112.748L101.042 112.773Z" fill="#024089"/>
<path id="Vector_23" d="M93.4166 124.806C93.8372 125.403 94.2206 125.864 94.6494 126.361C95.3462 127.168 96.0512 128.048 96.8593 128.817C97.4406 129.369 98.1044 129.965 98.76 130.426C99.5763 131.002 100.467 131.516 101.407 131.944C102.829 132.602 104.441 132.886 105.971 132.828C107.092 132.799 108.222 132.606 109.261 132.244C109.768 132.088 110.275 131.812 110.754 131.602C112.193 130.882 113.528 129.932 114.741 128.69C115.173 128.25 115.569 127.768 115.944 127.283C116.806 126.16 117.544 124.971 118.068 123.683C118.266 123.214 118.394 122.721 118.546 122.264C118.641 121.989 118.744 121.717 118.818 121.437C118.892 121.158 119.004 120.907 119.066 120.623C119.094 120.499 119.103 120.368 119.132 120.244C119.23 119.821 119.321 119.397 119.408 118.973C119.445 118.796 119.453 118.619 119.474 118.438C119.647 117.315 119.775 116.126 119.791 114.987C119.771 114.386 119.775 113.765 119.717 113.161C119.696 112.856 119.676 112.556 119.655 112.26C119.626 111.963 119.597 111.675 119.569 111.392C119.531 110.803 119.375 110.26 119.284 109.783C119.165 109.17 119.016 108.73 118.868 108.179C118.781 107.837 118.641 107.492 118.521 107.159C118.29 106.488 117.969 105.875 117.697 105.246C117.573 104.941 117.429 104.616 117.276 104.32C117.128 104.02 116.983 103.744 116.847 103.53C116.658 103.123 116.456 102.699 116.245 102.259C116.06 101.889 115.821 101.613 115.606 101.667C115.54 101.683 115.479 101.79 115.392 101.827C115.272 101.877 115.091 101.979 115.037 102.091C115.021 102.119 115.046 102.193 115.033 102.255C115.013 102.329 114.98 102.329 114.98 102.391C114.98 102.502 115.058 102.617 115.136 102.827C115.202 102.991 115.252 103.135 115.334 103.296C115.512 103.625 115.664 103.954 115.817 104.287C115.973 104.616 116.134 104.945 116.303 105.283C116.839 106.488 117.289 107.767 117.623 109.067C117.676 109.277 117.734 109.491 117.792 109.709C117.833 109.931 117.874 110.153 117.915 110.38L118.031 111.058C118.064 111.285 118.08 111.511 118.105 111.733C118.266 113.198 118.439 114.728 118.22 116.168C118.22 116.608 118.146 116.974 118.105 117.422C118.084 117.558 118.097 117.702 118.08 117.846C118.035 118.175 117.952 118.517 117.944 118.85C117.623 120.216 117.223 121.717 116.814 122.931C116.555 123.408 116.34 124.136 115.969 124.58C115.924 124.654 115.957 124.679 115.916 124.745C115.355 125.637 114.774 126.596 114.015 127.41C113.895 127.542 113.747 127.653 113.627 127.785C113.57 127.846 113.528 127.921 113.467 127.978C113.392 128.044 113.302 128.106 113.227 128.176C113.067 128.32 112.935 128.484 112.778 128.612C112.518 128.826 112.234 128.994 111.97 129.188C111.793 129.307 111.644 129.48 111.463 129.599C111.29 129.624 111.137 129.825 110.91 129.887C110.609 130.142 110.086 130.348 109.731 130.557C109.57 130.599 109.434 130.693 109.274 130.759C109.1 130.817 108.919 130.854 108.742 130.919C108.366 131.072 107.975 131.146 107.583 131.244C107.385 131.29 107.187 131.306 106.985 131.343C106.787 131.38 106.585 131.405 106.383 131.413C106.305 131.417 106.223 131.45 106.14 131.454C106.033 131.458 105.926 131.446 105.814 131.442C105.534 131.425 105.245 131.475 104.953 131.458C104.186 131.434 103.431 131.191 102.788 131.002C102.45 130.882 102.079 130.792 101.778 130.623C101.712 130.59 101.667 130.537 101.588 130.496C101.419 130.418 101.242 130.331 101.073 130.261C100.863 130.134 100.648 130.006 100.43 129.875C100.207 129.751 99.9886 129.611 99.7907 129.471C99.4155 129.212 99.0486 128.863 98.6981 128.587C98.6528 128.554 98.591 128.538 98.5497 128.496C98.5126 128.464 98.4796 128.398 98.4466 128.361C98.3807 128.291 98.2817 128.229 98.2034 128.155C97.9065 127.896 97.7334 127.674 97.4777 127.501C97.3046 127.205 96.9253 127.048 96.7933 126.748C96.6614 126.699 96.5954 126.551 96.4965 126.444C96.4346 126.378 96.3481 126.329 96.2821 126.259C96.179 126.156 96.0759 126.016 95.977 125.901C95.7502 125.654 95.5152 125.432 95.3173 125.234C95.1936 125.103 95.0782 124.963 94.9545 124.852C94.769 124.827 94.5463 124.486 94.3567 124.391C94.2907 124.403 94.402 124.531 94.3402 124.547C94.2536 124.514 94.1588 124.342 94.0763 124.342C94.0351 124.362 94.0722 124.436 94.0557 124.473C93.8949 124.247 93.8454 124.3 93.7135 124.251C93.5857 124.202 93.495 124.111 93.4125 124.198C93.2847 124.103 93.1651 123.975 93.0332 123.906C93.0538 123.988 93.0208 124.017 92.9961 124.058C93.1486 124.317 93.2806 124.609 93.4166 124.802V124.806Z" fill="#024089"/>
<path id="Vector_24" d="M80.5548 95.1761C80.1961 95.2255 79.8828 95.5875 79.9405 95.9454C79.9735 96.1552 80.126 96.3279 80.2909 96.4637C80.5672 96.6899 80.8888 96.8463 81.2186 96.9738C81.5608 97.1054 81.9236 97.2083 82.2906 97.2124C82.6575 97.2165 83.0368 97.1095 83.3131 96.8668C83.3955 96.7928 83.4739 96.7023 83.5027 96.5953C83.5398 96.4637 83.5027 96.3197 83.4491 96.1963C83.243 95.7273 82.773 95.4476 82.3029 95.246C81.9401 95.0897 81.0908 95.1062 80.5548 95.1761Z" fill="#024089"/>
<path id="Vector_25" d="M88.384 96.1465C88.2975 96.1465 87.811 96.2082 87.7326 96.2452C87.5883 96.3151 87.5265 96.5003 87.5595 96.6566C87.5924 96.8129 87.6955 96.9487 87.8068 97.068C88.6314 97.9524 89.9013 98.2733 91.1093 98.3597C91.2413 98.3679 91.4021 98.3638 91.4763 98.2527C91.5299 98.1704 91.5134 98.0635 91.4845 97.973C91.3526 97.5246 91.0269 97.1502 90.6393 96.887C90.2517 96.6237 89.8065 96.4591 89.3571 96.3234C88.9654 96.2 88.7015 96.1547 88.384 96.1506V96.1465Z" fill="#024089"/>
<path id="Vector_26" d="M85.4298 101.19C85.2649 101.087 84.9722 101.005 84.7825 100.968C84.5929 100.931 84.3743 100.972 84.2506 101.124C84.0527 101.371 84.2012 101.737 84.3743 102C84.6464 102.408 84.9763 102.786 85.3886 103.053C85.8009 103.321 86.2998 103.469 86.7863 103.407C86.8728 103.395 86.9636 103.374 87.0254 103.317C87.1367 103.218 87.1285 103.045 87.0996 102.901C86.9306 102.054 85.4216 101.198 85.4216 101.198L85.4298 101.19Z" fill="#024089"/>
<path id="Vector_27" d="M91.9418 102.391C91.9418 102.983 92.1315 103.576 92.449 104.073C92.7664 104.571 93.3024 104.962 93.8961 104.983C94.0033 104.983 94.1188 104.974 94.193 104.9C94.2425 104.851 94.2631 104.785 94.2796 104.719C94.4404 104.111 94.2425 103.436 93.8302 102.959C93.4179 102.481 92.6716 102.074 92.317 102.074C92.0573 102.074 91.9336 102.185 91.9336 102.391H91.9418Z" fill="#024089"/>
<path id="Vector_28" d="M97.2218 101.974C97.16 102.102 97.1559 102.188 97.1724 102.332C97.2177 102.764 97.3331 103.2 97.564 103.57C97.7949 103.941 98.1577 104.241 98.5824 104.344C98.669 104.364 98.7638 104.372 98.838 104.327C98.9205 104.274 98.9493 104.167 98.9617 104.068C99.0071 103.665 98.8793 103.258 98.7267 102.879C98.6154 102.604 98.4917 102.324 98.2855 102.11C98.0794 101.896 97.7743 101.752 97.4816 101.81C97.4816 101.81 97.2878 101.851 97.2218 101.978V101.974Z" fill="#024089"/>
<path id="Vector_29" d="M91.542 109.584C91.4761 109.798 91.5173 110.029 91.5668 110.247C91.6616 110.666 91.7935 111.082 92.0203 111.444C92.2471 111.806 92.5728 112.123 92.9727 112.279C93.1541 112.349 93.3767 112.378 93.5293 112.254C93.6571 112.147 93.6901 111.966 93.6901 111.798C93.6983 111.255 93.5128 110.724 93.253 110.247C93.1046 109.971 92.9273 109.704 92.6841 109.506C92.4408 109.309 92.1522 109.074 91.8141 109.222C91.8141 109.222 91.608 109.366 91.542 109.58V109.584Z" fill="#024089"/>
</g>
<defs>
<clipPath id="clip0_3956_14640">
<rect width="147" height="190" fill="white"/>
</clipPath>
</defs>
</svg>
