<svg width="150" height="83" viewBox="0 0 150 83" fill="none" xmlns="http://www.w3.org/2000/svg">
<g id="Layer_1" clip-path="url(#clip0_3956_14687)">
<path id="Vector" d="M2.59108 21.3789C2.59108 21.3789 90.1511 2.8289 116.301 4.5889C116.301 4.5889 129.141 2.7689 129.781 5.7989C131.851 15.5389 131.131 45.7989 103.441 67.0489C70.8811 92.0389 23.9511 60.0689 23.9511 60.0689C23.9511 60.0689 5.57108 48.2389 1.70108 26.8089C0.73108 21.4389 2.59108 21.3789 2.59108 21.3789Z" fill="#F18700"/>
<path id="Vector_2" d="M149.36 25.9696C149.42 21.2796 148.41 17.3996 147.75 12.9396C147.39 7.85958 145.29 -0.360415 138.61 0.489585C125.13 0.0295849 111.61 2.06958 98.3 3.90958C78.08 6.75958 58.28 10.1096 38.31 13.9796C32.17 15.1896 25.87 16.4196 19.87 17.9196C17.55 18.3896 16.11 18.9096 13.65 19.5996C12.58 19.9996 11.47 19.8896 10.96 20.6696C10.68 20.7496 10.45 20.8096 10.27 20.8796C10.09 20.8596 9.89005 20.9396 9.77005 21.0696C9.66005 21.1096 9.56005 21.2196 9.49005 21.3496C8.61005 21.7996 7.47005 22.0896 6.84005 22.6996C6.05005 22.9496 5.16005 23.2496 4.38005 23.5296C4.76005 22.8796 5.32005 22.0796 4.27005 21.7096C3.67005 20.4096 1.86005 21.1696 1.27005 22.3096C1.14005 22.5096 0.890048 22.9596 0.760048 23.1096C0.0100482 24.2896 0.120048 25.3496 0.230048 27.5096C6.11005 63.1096 46.14 81.9396 79.37 82.6296C94.9 82.7296 110.47 77.1896 122.93 67.8696C136.95 58.4596 150.29 43.8096 149.37 25.9696H149.36ZM127.13 22.7396C126.96 22.8996 126.66 23.0896 126.54 23.2696C124.21 24.8396 121.16 24.7096 118.49 25.3796C106.96 22.8896 96.04 18.3596 85.07 14.0896C85.05 14.0696 85.03 14.0396 85 14.0196C85 13.8896 84.9601 13.7496 84.8801 13.6396C84.84 13.5096 84.79 13.4296 84.66 13.3196C84.61 13.0896 84.4901 12.8896 84.3101 12.7296C84.3 12.5496 84.2101 12.3696 84.0601 12.2596C83.9901 12.1696 83.91 12.0896 83.84 12.0296C83.8 11.9196 83.76 11.8596 83.71 11.7996C83.7 11.6596 83.65 11.5396 83.5601 11.4496C83.5301 11.3696 83.48 11.2896 83.41 11.2296C83.3201 10.9396 83.33 10.5396 83.1 10.3196C83.1 10.2996 83.1 10.2796 83.1 10.2596C98.22 7.98958 113.46 5.49959 128.75 4.71958C129.89 4.90958 130.5 5.84959 130.72 6.93959C131.03 8.27959 130.34 9.62959 130.1 10.9396C129.11 14.6096 128.37 18.3896 127.57 22.1196C127.55 22.1496 127.49 22.2196 127.47 22.2596C127.34 22.3596 127.12 22.6496 127.14 22.6996C127.13 22.7196 127.09 22.7496 127.12 22.7296L127.13 22.7396ZM78.2001 21.2996C78.7001 22.5796 79.24 23.6196 79.72 24.8596C79.11 24.5696 78.77 23.3696 77.96 23.4396C77.82 23.2996 77.6001 23.1896 77.3801 23.1996C76.9 22.9696 76.62 22.7096 76.04 22.5896C75.91 22.4696 75.78 22.3496 75.65 22.2496C76.2001 22.5896 77.04 22.5596 77.32 21.9996C77.49 21.9196 77.9501 21.6896 78.2001 21.2896V21.2996ZM67.97 19.5196L68.3 19.5896H67.89L67.97 19.5196ZM63.07 61.4796C64.84 49.2296 67.8 37.0596 70.69 25.1396C70.97 25.1896 71.31 25.0696 71.42 24.8896C72.1 24.3496 71.73 23.2096 71.94 22.4396C72.83 20.6496 73.9701 20.9896 75.3101 22.0496C74.9601 21.8996 74.5301 22.0996 74.4501 22.4696C74.2801 22.6696 74.29 23.0296 74.41 23.2596C74.6701 23.7496 74.98 24.4496 75.23 24.8896C79.94 32.2396 83.85 39.8096 88.68 47.0896C89.59 48.4996 90.63 49.9696 91.78 51.1996C93.57 53.2996 94 56.0496 93.96 58.8596C93.94 59.5896 93.89 60.2796 93.8 60.9796C91.73 65.4796 84.79 65.0596 80.51 65.5496C77.4 65.8196 74.26 66.0796 71.16 66.2696C68.34 65.3396 64.23 64.6996 63.07 61.7296C63.07 61.6596 63.07 61.5996 63.07 61.4796ZM93.94 47.0896C90.54 42.6696 88.01 37.5696 85.03 32.8896C85.02 32.8596 85 32.8196 84.99 32.7896C86.48 31.7396 85.86 29.7896 85.46 28.3196C84.32 24.6496 82.28 21.0296 81.75 17.1896C82.13 17.3796 82.55 17.7896 82.96 17.9196C92.1 21.4196 101.36 25.2596 110.75 27.8796C112.01 28.2996 113.25 28.5796 114.58 28.7596C115.25 29.5396 116.43 29.3396 117.29 29.3696C118.39 29.8096 119.43 30.4896 120.38 31.1796C121.04 31.8096 121.55 32.5596 122.15 33.2396C122.48 34.1196 122.9 34.9096 122.67 35.9096C119.25 41.7196 118.15 49.9996 112.1 53.9196C110.26 54.6396 108.31 55.1496 106.49 55.8496C105.93 55.8696 105.45 56.1896 104.93 56.1796C104.67 56.0396 104.53 56.2596 104.27 56.1996C103.78 56.1496 103.29 56.2096 102.8 55.9896C101.45 55.6396 100.6 55.0696 99.35 54.6996C98.95 54.5196 98.48 54.1996 98.0601 54.4496C98.05 54.4496 98.0301 54.4496 98.0201 54.4396C97.4 51.5696 95.7501 49.1596 93.9501 47.0996L93.94 47.0896ZM79.37 12.8996C77.01 13.9096 76.94 16.7696 77.49 18.9196C76.06 17.5896 73.9 16.8696 71.96 17.5096C71.82 17.0796 71.57 16.7096 71.25 16.3896C71.15 16.1696 70.99 16.0096 70.85 15.8996C70.81 15.6796 70.66 15.5096 70.44 15.4196C70.2001 15.1596 69.66 14.8796 69.34 14.7396C69.3 14.6896 69.14 14.5396 68.99 14.4896C68.88 14.3996 68.75 14.3496 68.65 14.3296C68.43 14.1196 68.0701 13.9196 67.7701 13.9296C67.69 13.8796 67.59 13.8496 67.47 13.8196C67.34 13.6996 66.36 13.7296 66.11 13.7596C66.0201 13.7396 65.86 13.7096 65.71 13.7396C65.76 13.5296 65.82 13.3196 65.87 13.0996C70.32 12.3196 74.65 11.5896 78.7701 10.9396C78.83 11.1496 78.9 11.3096 78.98 11.4896C78.93 11.9696 79.2001 12.4196 79.3801 12.8796L79.37 12.8996ZM65.42 18.1096C65.67 17.8896 66.0601 17.9596 66.33 17.8796C66.59 18.0396 66.87 18.0896 67.08 18.3196C67.22 18.4696 67.34 18.6696 67.5 18.7896C67.5 18.8996 67.53 19.0396 67.61 19.1396C67.61 19.2396 67.65 19.3496 67.69 19.4196C67.69 19.4196 67.69 19.4296 67.69 19.4396H67.71C67.74 19.4996 67.7801 19.5396 67.8 19.5696H67.67C67.61 19.7796 67.67 20.1396 67.65 20.4096C67.39 20.9496 67.5001 21.3396 67.5201 21.8396C64.4901 29.6696 62.91 38.1296 61.15 46.3196C60.98 46.1896 60.73 46.1596 60.53 46.2396C59.85 46.2096 59.7 47.2196 59.45 47.6796C58.33 52.0296 56.31 56.0996 54.08 60.0296L54.61 60.3596L53.99 60.1496C51.94 62.7096 48.2 61.4396 45.5 60.6496C39.89 56.7296 34.28 52.9296 29.61 47.9496L29.09 48.2896L29.54 47.8396C26.82 43.0396 33.34 39.5796 36.27 36.7396C37.27 35.8096 38.18 34.8196 39.24 33.9596C43.25 31.8196 46.87 29.6196 50.76 27.3496C52.1 26.6296 53.74 25.5796 55.02 24.7296C57.31 23.5796 59.8801 21.9796 61.64 20.2296C62.24 20.5796 62.81 19.9796 63 19.4296C63.74 18.9296 64.6301 18.4296 65.41 18.0796L65.42 18.1096ZM61.19 14.1696C59.33 17.3396 55.83 19.3796 52.53 21.2096C50.3 22.7596 47.78 23.8396 45.58 25.4396C44 26.2196 42.23 27.2396 40.56 28.3296C40.11 28.2396 39.7901 28.5296 39.46 28.7296C39.01 28.9596 38.6101 29.2696 38.23 29.5896C38 29.8196 37.5201 29.8296 37.37 30.1096C34.53 31.7396 31.65 33.2296 28.72 34.6696C27.74 34.9796 26.92 35.4596 25.94 35.8596C24.29 36.4496 22.56 36.9496 20.86 37.2096C19.27 37.4096 17.97 36.3296 17.09 35.0596C16.31 33.6096 15.6 32.0396 15.21 30.4096C15.11 29.7496 14.94 29.1696 14.74 28.5196C14.74 28.1196 14.55 27.7996 14.48 27.4896C14.55 27.2896 14.51 27.0796 14.39 26.9196C14.24 26.0596 13.98 25.1396 13.68 24.3196C13.54 23.9796 13.54 23.4896 13.18 23.3096C13.18 23.3096 13.16 23.2796 13.15 23.2596C28.91 19.6796 45.35 16.7396 61.31 13.9196C61.27 13.9996 61.23 14.0896 61.18 14.1696H61.19ZM128.72 56.1996C129.46 55.1196 130.29 53.8596 130.88 52.7096C132.9 48.9996 134.62 45.0696 135.88 41.0596C136.42 39.8896 136.68 38.6396 137.02 37.3596C139.3 30.1096 140.29 22.4096 140.77 14.8596C140.95 13.9996 140.93 13.0296 140.88 12.1396C141.04 11.5896 140.78 10.9596 140.89 10.4896C140.97 10.2996 140.98 10.1496 140.86 9.97958C140.88 8.86959 140.73 7.61959 140.51 6.55959C140.35 6.05959 140.44 5.36959 140.04 4.99959C139.99 4.92958 139.93 4.69958 139.89 4.57959C143.56 6.74959 142.77 12.3996 143.73 16.0396C145.12 23.2396 145.59 30.1596 143.46 36.9696C140.51 46.4096 133.79 53.7596 126.18 59.9496C127.12 58.7396 127.99 57.4596 128.71 56.1996H128.72ZM4.58005 24.7596C6.21005 24.8396 7.89005 24.2796 9.51005 24.0396C10.96 33.9596 13.66 44.8696 26.2 40.2096C21.04 47.9696 26.89 51.8996 32.49 56.5596C35.13 58.5996 37.84 60.6196 40.63 62.4396C43.27 64.6596 46.4 65.6896 49.99 65.7696C52.29 65.8896 54.8601 65.1496 56.55 63.7196C57.2001 63.0296 58.02 62.0096 58.4 61.2296C58.47 66.8896 65.06 69.0496 69.72 70.3096C69.9 70.3096 70.7 70.5896 70.85 70.5596C74.44 70.3496 78.05 69.8896 81.64 69.6496C85.07 69.3396 88.7001 69.3196 91.94 67.9396C94.59 66.7896 96.9501 65.0696 98.05 62.3696C98.4601 61.0896 98.41 59.6696 98.42 58.3196C102.45 61.0596 107.01 60.3796 111.29 58.6396C114.59 57.7496 117.14 55.7696 119.21 52.9196C121.59 49.8096 123.04 45.5596 124.67 41.9496C127.35 37.0196 128.66 33.2596 124.07 28.8096C126.16 28.2596 128.48 27.7396 130 26.0796C131.17 25.2396 132.08 23.8696 132.11 22.3896C132.3 22.0496 132.25 21.5996 132.38 21.3196C132.52 21.1396 132.58 21.0396 132.54 20.7296C132.78 19.7696 132.82 18.9096 133.04 17.9396C133.14 17.7696 133.16 17.4696 133.13 17.3196C133.26 16.9496 133.48 16.5796 133.41 16.1696C133.45 16.0796 133.48 15.9796 133.5 15.8696C133.6 15.7296 133.63 15.5596 133.56 15.3796C133.6 15.1596 133.7 14.9496 133.7 14.6696C133.74 14.5496 133.75 14.4496 133.75 14.3896C134.03 13.6496 134.23 12.7996 134.36 12.0096C134.51 11.7696 134.5 11.4396 134.5 11.1796C134.75 10.3896 135.08 9.58958 135.06 8.71958C135.23 8.48958 135.23 8.11959 135.17 7.83958C135.2 7.01958 135.06 5.80958 134.76 5.04958C134.76 4.85958 134.63 4.66959 134.56 4.55959C135.1 4.54958 135.64 4.54958 136.19 4.55959C137.66 21.3896 133.57 40.8696 124.24 55.0196C117.9 64.3296 108.22 70.8596 98.11 75.3496C75.92 82.9596 49.57 75.2896 30.31 63.4896C17.08 54.9296 4.89005 40.7496 4.18005 24.6596C4.30005 24.7296 4.43005 24.7696 4.58005 24.7496V24.7596Z" fill="#024089"/>
</g>
<defs>
<clipPath id="clip0_3956_14687">
<rect width="149.26" height="82.2" fill="white" transform="translate(0.151367 0.429688)"/>
</clipPath>
</defs>
</svg>
