<svg width="1440" height="419" viewBox="0 0 1440 419" fill="none" xmlns="http://www.w3.org/2000/svg">
<path d="M720 65.5012C708.56 61.9812 555.07 52.7412 387 24.0912C292.07 12.2312 303 10.0912 153.53 1.15118C100.41 -2.01882 47.95 1.65118 0 8.57118V127.091H720V65.5012Z" fill="#F18700"/>
<path d="M1439.96 123.995V66.5055C1378.54 49.6055 1279.52 29.8155 1177.5 31.0555C1045.5 32.6555 964.5 48.3855 940.5 56.0555C904.55 64.4055 813.41 89.3155 727.42 124.005H1439.96V123.995Z" fill="#F18700"/>
<path d="M-41 476.2V68.29C209 104.74 477.58 46.14 719.68 44C961.78 46.14 1230.36 104.74 1480.36 68.29V476.19C1101.19 476.19 338.11 476.19 -40.99 476.19L-41 476.2Z" fill="url(#paint0_linear_3949_10890)"/>
<path d="M-41 476.2V68.29C209 104.74 477.58 46.14 719.68 44C961.78 46.14 1230.36 104.74 1480.36 68.29V476.19C1101.19 476.19 338.11 476.19 -40.99 476.19L-41 476.2Z" fill="url(#paint1_linear_3949_10890)"/>
<defs>
<linearGradient id="paint0_linear_3949_10890" x1="720" y1="557" x2="720" y2="-279" gradientUnits="userSpaceOnUse">
<stop stop-color="#024089"/>
<stop offset="1" stop-color="#4CB4E7"/>
</linearGradient>
<linearGradient id="paint1_linear_3949_10890" x1="720" y1="-119" x2="719.68" y2="1017" gradientUnits="userSpaceOnUse">
<stop stop-color="#024089"/>
<stop offset="1" stop-color="#4CB4E7"/>
</linearGradient>
</defs>
</svg>
